<svg xmlns="http://www.w3.org/2000/svg" height="1024" preserveAspectRatio="none" style="display: block;" version="1.1" viewBox="0 0 2048 2048" width="1024">
<defs>
	<linearGradient gradientUnits="userSpaceOnUse" id="Gradient1" x1="451.875" x2="719.948" y1="1789.1" y2="1697.39">
		<stop class="stop0" offset="0" stop-color="rgb(251,84,75)" stop-opacity="1"></stop>
		<stop class="stop1" offset="1" stop-color="rgb(250,139,118)" stop-opacity="1"></stop>
	</linearGradient>
	<linearGradient gradientUnits="userSpaceOnUse" id="Gradient2" x1="308.279" x2="938.917" y1="1512.65" y2="1559">
		<stop class="stop0" offset="0" stop-color="rgb(1,0,1)" stop-opacity="1"></stop>
		<stop class="stop1" offset="1" stop-color="rgb(10,14,29)" stop-opacity="1"></stop>
	</linearGradient>
</defs>
<path d="M 0 0 L 2048 0 L 2048 2048 L 0 2048 L 0 0 z" fill="rgb(247,247,246)" transform="translate(0,0)"></path>
<path d="M 1322.26 338.908 C 1267.67 284.022 1210.77 237.546 1178.59 163.959 C 1151.8 102.677 1189.32 42.7063 1255.98 75.1636 C 1331.75 112.056 1373.43 213.347 1400.68 289.277 C 1432.87 277.813 1453.13 276.99 1486.21 276.515 C 1484.03 228.337 1484.38 187.335 1502.85 141.091 C 1522.17 92.7487 1572.31 60.6967 1623.19 83.2932 C 1659.59 98.963 1702.91 157.067 1684.15 197.796 C 1666.62 235.836 1624.18 228.641 1594.41 214.794 C 1584.69 246.335 1578.43 264.375 1564.41 294.617 C 1620.89 322.179 1651.51 357.646 1680.53 411.89 C 1687.45 407.731 1698.7 402.832 1705.3 410.341 C 1712.04 418.01 1711.37 428.481 1712.81 437.464 C 1713 438.669 1721.2 446.074 1718.55 451.989 C 1717.59 461.447 1713.12 466.917 1712.66 475.521 C 1712.48 480.277 1711.94 485.999 1710.32 490.528 C 1697.08 527.574 1664.59 554.913 1631.25 573.601 C 1615.51 582.421 1599.84 589.082 1584.15 597.137 C 1627.53 603.437 1646.42 593.333 1686.48 577.134 C 1695.63 573.438 1706.17 568.748 1716.01 568.848 C 1735.27 545.963 1716.39 528.102 1731.14 506.329 C 1733.75 503.455 1738.34 502.025 1741.93 502.155 C 1771.1 503.216 1771.56 529.975 1772.25 551.35 C 1803.21 555.295 1806.25 573.323 1808.92 599.153 C 1811.75 626.602 1806.91 640.79 1778.91 648.744 C 1746.17 699.475 1673.98 709.284 1619.38 696.651 L 1618.13 696.589 C 1616.71 696.475 1615.95 696.874 1614.79 697.647 C 1629.29 757.593 1646.89 815.784 1657.72 876.701 C 1662.53 903.79 1666.86 926.004 1668.18 953.694 C 1677.99 956.949 1679.02 957.845 1686.39 964.869 C 1696.57 974.569 1705.01 1000.41 1685.17 1004.64 C 1635.34 1015.27 1569.79 1015.86 1523 994.137 C 1479.89 974.122 1490 908.451 1486.6 869.727 C 1485.78 860.409 1487.21 850.075 1484.42 840.823 C 1481.38 839.43 1478.1 839.365 1474.97 840.507 C 1472.69 845.281 1468.24 864.864 1466.07 871.962 C 1459.42 894.292 1451.44 916.202 1442.17 937.575 C 1430.92 963.551 1421.67 981.084 1393.65 991.22 C 1349.78 1006.69 1300.61 1008.53 1254.97 1000.59 C 1236.98 997.466 1209.66 993.471 1223.46 968.653 C 1232.34 952.676 1243.3 948.176 1259.76 943.348 C 1261 880.199 1305.94 841.797 1335.63 788.334 C 1315.11 778.604 1297.06 767.182 1287.56 745.65 C 1281 730.597 1280.86 713.526 1287.16 698.364 C 1302.32 660.959 1352.84 641.394 1387.57 626.388 C 1359.15 624.162 1337.01 620.704 1309.64 610.472 C 1292.46 604.053 1273.47 594.764 1259.81 581.671 C 1256.42 577.41 1256.02 572.513 1252.06 568.413 C 1242.95 558.99 1230.62 546.962 1234.88 532.35 C 1236.43 527.058 1233.05 518.937 1232.97 513.182 C 1232.77 497.87 1247.25 494.576 1259.84 495.261 C 1259.31 430.944 1281.09 386.215 1322.26 338.908 z" fill="rgb(8,9,20)" transform="translate(0,0)"></path>
<path d="M 1395.27 629.916 C 1445.86 645.265 1481.03 648.886 1531.82 627.635 C 1541.8 623.457 1555.19 612.761 1564.36 610.671 C 1596.72 603.299 1620.97 606.715 1653.25 596.475 C 1653.7 601.888 1653.54 607.29 1658.1 611.065 C 1666.09 617.676 1679.33 610.595 1681.53 624.273 C 1683.95 637.834 1665.39 643.712 1667.18 657.194 C 1668.12 664.361 1671.84 668.334 1677.62 672.225 C 1688 679.216 1690.02 681.641 1690.02 694.117 C 1664.16 697.789 1648.72 693.766 1625.35 692.664 L 1623.45 692.586 L 1623.05 693.414 C 1622 695.641 1621.19 695.378 1619.38 696.651 L 1618.13 696.589 C 1616.71 696.475 1615.95 696.874 1614.79 697.647 C 1612.38 700.605 1612.93 699.934 1609.51 701.337 C 1614.79 719.572 1619.01 738.311 1623.99 756.656 C 1631.88 785.755 1639.63 814.19 1645.78 843.731 C 1651.09 867.678 1659.26 911.26 1661.57 935.342 C 1642.14 947.456 1637.76 922.967 1621.36 926.483 C 1603.56 932.509 1603.08 947.025 1582.05 950.814 C 1557.31 955.268 1553.98 916.98 1530.73 928.185 C 1515.37 935.584 1512.69 949.273 1495.07 934.588 C 1494.38 925.962 1493.93 917.319 1493.72 908.668 C 1492.8 903.005 1492.8 896.09 1492.77 890.306 C 1492.68 873.266 1491.14 856.176 1490.81 839.184 C 1495.24 838.946 1497.52 839.219 1501.36 837.278 L 1502.01 836.168 C 1499.07 833.141 1474.81 834.547 1469.45 834.812 C 1465.08 857.622 1455.24 891.969 1446.42 913.599 C 1441.8 924.761 1437.45 935.154 1432.3 946.1 C 1423.74 939.898 1421.59 938.976 1411.41 936.478 C 1389.72 943.264 1361.21 970.716 1344.33 932.736 C 1323.61 886.148 1295.23 954.376 1266.63 927.622 C 1267.48 916.788 1270.28 908.838 1273.79 898.579 C 1294.65 855.152 1321.3 828.012 1340.69 790.298 C 1356.56 794.606 1381.38 800.406 1397.54 797.158 C 1417.69 793.107 1452.35 755.157 1444.09 733.973 C 1435.88 712.927 1400.31 688.845 1381.2 678.686 C 1382.4 677.762 1383.18 676.829 1384.25 675.723 C 1386.01 667.342 1383.41 662.183 1376.97 656.329 C 1368.62 648.741 1364.97 647.837 1354.21 648.153 C 1366.45 641.217 1382.06 634.543 1395.27 629.916 z" fill="rgb(250,103,89)" transform="translate(0,0)"></path>
<path d="M 1493.72 908.668 C 1494.69 902.84 1491.6 899.377 1499.15 896.266 C 1509.2 892.123 1515.28 883.835 1526.39 881.005 C 1552.57 874.331 1560.39 910.378 1586.64 907.159 C 1625.1 902.778 1614.56 870.195 1631.18 848.662 C 1634.69 844.118 1640.48 843.771 1645.78 843.731 C 1651.09 867.678 1659.26 911.26 1661.57 935.342 C 1642.14 947.456 1637.76 922.967 1621.36 926.483 C 1603.56 932.509 1603.08 947.025 1582.05 950.814 C 1557.31 955.268 1553.98 916.98 1530.73 928.185 C 1515.37 935.584 1512.69 949.273 1495.07 934.588 C 1494.38 925.962 1493.93 917.319 1493.72 908.668 z" fill="rgb(250,156,133)" transform="translate(0,0)"></path>
<path d="M 1273.79 898.579 C 1310.8 915.372 1311.52 873.485 1344.52 868.986 C 1375.1 864.817 1364.18 900.46 1382.13 908.826 C 1407.76 920.778 1418.89 894.36 1446.42 913.599 C 1441.8 924.761 1437.45 935.154 1432.3 946.1 C 1423.74 939.898 1421.59 938.976 1411.41 936.478 C 1389.72 943.264 1361.21 970.716 1344.33 932.736 C 1323.61 886.148 1295.23 954.376 1266.63 927.622 C 1267.48 916.788 1270.28 908.838 1273.79 898.579 z" fill="rgb(251,159,92)" transform="translate(0,0)"></path>
<path d="M 1609.51 701.337 C 1608.13 694.967 1594.36 648.811 1595.37 646.636 C 1595.69 645.949 1596.28 645.426 1597 645.191 C 1600.86 643.969 1604.63 652.675 1606.66 655.82 C 1612.87 665.422 1619.55 676.197 1621.97 687.515 C 1622.53 690.131 1622.35 690.284 1623.45 692.586 L 1623.05 693.414 C 1622 695.641 1621.19 695.378 1619.38 696.651 L 1618.13 696.589 C 1616.71 696.475 1615.95 696.874 1614.79 697.647 C 1612.38 700.605 1612.93 699.934 1609.51 701.337 z" fill="rgb(8,9,20)" transform="translate(0,0)"></path>
<path d="M 1495.07 934.588 C 1512.69 949.273 1515.37 935.584 1530.73 928.185 C 1553.98 916.98 1557.31 955.268 1582.05 950.814 C 1603.08 947.025 1603.56 932.509 1621.36 926.483 C 1637.76 922.967 1642.14 947.456 1661.57 935.342 C 1662.17 938.663 1662.26 948.465 1662.38 952.362 C 1660.03 952.051 1657.68 951.765 1655.33 951.504 C 1650.84 951.025 1649.74 950.749 1646.62 953.292 L 1646.52 955.389 C 1653.41 958.303 1668.37 954.051 1678.98 964.296 C 1689.17 974.138 1690.99 982.939 1692 996.252 C 1683.98 1000.19 1674.17 1001.99 1665.39 1003.89 C 1664.57 997.746 1663.92 992.496 1661.68 986.624 C 1659.62 981.237 1651.59 972.169 1645.36 975.834 C 1645.74 980.157 1651.51 980.397 1654.47 985.533 C 1657.88 991.432 1659.03 997.874 1660.67 1004.47 C 1616.3 1007.91 1546.92 1010.23 1510.74 978.604 C 1500.74 969.858 1495.02 947.945 1495.07 934.588 z" fill="rgb(55,93,108)" transform="translate(0,0)"></path>
<path d="M 1266.63 927.622 C 1295.23 954.376 1323.61 886.148 1344.33 932.736 C 1361.21 970.716 1389.72 943.264 1411.41 936.478 C 1421.59 938.976 1423.74 939.898 1432.3 946.1 C 1417.42 1003.46 1304.7 1003.66 1258.4 995.897 C 1261.12 989.35 1264.29 980.035 1269.99 976.639 C 1273.01 974.84 1277.89 970.5 1279.6 967.379 L 1277.28 965.836 C 1263.11 967.187 1257.06 982.682 1253.7 994.558 C 1247.41 993.178 1240.81 992.346 1234.65 990.626 C 1223.17 987.42 1223.97 981.334 1228.61 972.193 C 1235.84 957.948 1249.91 950.197 1265.46 948.625 C 1270.36 948.13 1274.89 950.171 1279.63 948.584 L 1280.57 946.396 L 1279.62 944.498 C 1275.33 942.538 1270.66 942.868 1265.83 942.715 C 1265.86 936.961 1265.9 933.436 1266.63 927.622 z" fill="rgb(55,93,108)" transform="translate(0,0)"></path>
<path d="M 1711.2 573.747 C 1709.96 580.311 1708.55 586.007 1712.92 591.511 C 1719.16 599.389 1724.39 608.466 1721.57 619.001 C 1715.26 642.576 1719.97 650.108 1745.4 654.878 C 1748.97 659.88 1751.3 662.559 1751.24 668.668 C 1745.31 682.189 1703.88 691.773 1690.02 694.117 C 1690.02 681.641 1688 679.216 1677.62 672.225 C 1671.84 668.334 1668.12 664.361 1667.18 657.194 C 1665.39 643.712 1683.95 637.834 1681.53 624.273 C 1679.33 610.595 1666.09 617.676 1658.1 611.065 C 1653.54 607.29 1653.7 601.888 1653.25 596.475 C 1671.51 590.054 1695.19 578.643 1711.2 573.747 z" fill="rgb(246,224,203)" transform="translate(0,0)"></path>
<path d="M 1354.21 648.153 C 1364.97 647.837 1368.62 648.741 1376.97 656.329 C 1383.41 662.183 1386.01 667.342 1384.25 675.723 C 1383.18 676.829 1382.4 677.762 1381.2 678.686 C 1376.75 676.48 1371.05 673.358 1366.41 672.014 L 1365.1 672.67 C 1365.52 678.102 1384.21 685.683 1389.07 689.19 C 1386.02 693.507 1383.89 696.869 1378.43 697.533 C 1360.74 699.684 1331.63 687.723 1319.19 706.918 C 1303.66 730.855 1345.4 744.789 1305.84 762.75 C 1296.3 752.646 1288.97 741.166 1287.87 726.96 C 1284.7 686.155 1322.09 662.486 1354.21 648.153 z" fill="rgb(250,156,133)" transform="translate(0,0)"></path>
<path d="M 1389.07 689.19 C 1396.83 693.966 1402.5 697.788 1409.85 703.18 C 1407.26 704.375 1405.74 704.999 1403.44 706.573 C 1379.92 715.339 1388.03 718.928 1374.99 733.238 C 1353.83 756.455 1343.41 754.884 1360.97 789.739 C 1337.38 784.286 1323.84 779.759 1305.84 762.75 C 1345.4 744.789 1303.66 730.855 1319.19 706.918 C 1331.63 687.723 1360.74 699.684 1378.43 697.533 C 1383.89 696.869 1386.02 693.507 1389.07 689.19 z" fill="rgb(246,224,203)" transform="translate(0,0)"></path>
<path d="M 1409.85 703.18 C 1411.02 703.951 1413.01 704.956 1413.49 706.318 C 1413.26 707.698 1404.77 706.648 1403.44 706.573 C 1405.74 704.999 1407.26 704.375 1409.85 703.18 z" fill="rgb(247,247,246)" transform="translate(0,0)"></path>
<path d="M 1341.24 329.804 C 1403.35 278.714 1481.23 269.735 1555.57 297.133 C 1598.42 314.681 1634.67 347.435 1659.81 386.183 C 1667.51 398.034 1671.55 407.909 1677.87 419.908 L 1679.67 420.519 C 1697.74 404.726 1708.53 411.145 1706.21 433.552 C 1705.45 440.846 1702.01 444.968 1710.89 445.166 C 1720.93 455.183 1698.15 476.804 1701.45 481.819 C 1704.03 481.72 1705.19 481.647 1707.73 481.234 C 1700.33 504.403 1687.24 523.103 1669.32 539.331 C 1590.08 610.339 1431.92 639.029 1330.62 611.487 C 1308.21 605.089 1275.64 592.91 1260.98 573.544 L 1261.47 572.287 C 1264.11 571.683 1265.6 571.32 1268.22 570.453 C 1267.15 565.69 1251.61 562.02 1247.85 557.229 C 1244.78 553.327 1237.28 543.145 1242.03 538.798 C 1245.28 538.843 1245.64 539.259 1248.38 537.952 C 1246.59 530.603 1234.86 523.345 1237.53 513.388 C 1240.97 500.553 1254.63 499.837 1265.4 502.588 C 1264.84 493.235 1264.98 483.853 1265.84 474.523 C 1270.78 418.19 1297.9 366.129 1341.24 329.804 z" fill="rgb(250,103,89)" transform="translate(0,0)"></path>
<path d="M 1341.24 329.804 C 1403.35 278.714 1481.23 269.735 1555.57 297.133 C 1553.63 309.929 1549.72 317.282 1539.97 325.399 C 1534.61 331.354 1507.24 337.621 1503.81 341.149 C 1489.06 356.333 1492.46 378.364 1469.19 387.979 C 1429.35 404.435 1423.07 363.28 1397.63 349.542 C 1375.66 337.677 1362.36 352.56 1341.24 329.804 z" fill="rgb(246,224,203)" transform="translate(0,0)"></path>
<path d="M 1330.62 611.487 C 1308.21 605.089 1275.64 592.91 1260.98 573.544 L 1261.47 572.287 C 1264.11 571.683 1265.6 571.32 1268.22 570.453 C 1267.15 565.69 1251.61 562.02 1247.85 557.229 C 1244.78 553.327 1237.28 543.145 1242.03 538.798 C 1245.28 538.843 1245.64 539.259 1248.38 537.952 C 1246.59 530.603 1234.86 523.345 1237.53 513.388 C 1240.97 500.553 1254.63 499.837 1265.4 502.588 C 1290.81 507.792 1318.09 515.537 1333.06 538.561 C 1342.38 552.735 1345.53 570.087 1341.81 586.636 C 1339.95 594.992 1335.88 604.69 1330.62 611.487 z" fill="rgb(251,159,92)" transform="translate(0,0)"></path>
<path d="M 1677.87 419.908 L 1679.67 420.519 C 1697.74 404.726 1708.53 411.145 1706.21 433.552 C 1705.45 440.846 1702.01 444.968 1710.89 445.166 C 1720.93 455.183 1698.15 476.804 1701.45 481.819 C 1704.03 481.72 1705.19 481.647 1707.73 481.234 C 1700.33 504.403 1687.24 523.103 1669.32 539.331 C 1668.6 538.844 1667.88 538.343 1667.18 537.828 C 1639.69 517.623 1632.18 462.212 1654.48 436.29 C 1660.68 429.089 1668.03 421.289 1677.87 419.908 z" fill="rgb(251,159,92)" transform="translate(0,0)"></path>
<path d="M 1517.05 490.234 L 1518.11 489.204 C 1522.47 485.035 1527.85 480.983 1534.27 481.509 C 1544.31 482.331 1544.52 498.526 1542.95 505.399 C 1534.27 543.265 1491.37 561.985 1455.65 553.428 C 1440.18 549.71 1424.96 539.943 1416.25 526.373 C 1411.75 519.354 1408.1 507.076 1418.25 502.616 C 1425.41 499.467 1432.5 501.238 1439.61 503.759 C 1449.8 501.715 1462.25 503.158 1473.01 501.214 C 1482.78 499.447 1491.92 498.359 1501.52 495.171 C 1506.68 493.457 1511.78 490.603 1517.05 490.234 z" fill="rgb(8,9,20)" transform="translate(0,0)"></path>
<path d="M 1439.61 503.759 C 1449.8 501.715 1462.25 503.158 1473.01 501.214 C 1482.78 499.447 1491.92 498.359 1501.52 495.171 C 1506.68 493.457 1511.78 490.603 1517.05 490.234 C 1496.67 511.891 1466.23 514.519 1439.61 503.759 z" fill="rgb(247,247,246)" transform="translate(0,0)"></path>
<path d="M 1495.49 534.151 C 1499.44 533.992 1502.69 533.673 1506.32 535.605 C 1506.85 535.889 1511.53 538.594 1509.5 539.956 C 1497.99 547.687 1483.17 549.877 1469.56 550.055 C 1464.98 549.669 1460.6 548.921 1456.03 548.325 L 1457.09 547.405 C 1461.81 543.218 1471.99 535.868 1478.37 540.214 C 1485.41 545.007 1483.61 537.526 1495.49 534.151 z" fill="rgb(250,103,89)" transform="translate(0,0)"></path>
<path d="M 1480.07 442.085 C 1491.4 441.276 1500.5 444.534 1499.91 458.501 C 1499.45 469.399 1483.57 482.402 1475.59 489.544 C 1471.44 487.4 1467.95 485.614 1463.72 483.673 L 1462.66 483.176 C 1424.62 465.715 1442.5 434.538 1470.6 451.398 C 1473.75 447.449 1474.33 446.196 1478.46 443.262 L 1480.07 442.085 z" fill="rgb(246,224,203)" transform="translate(0,0)"></path>
<path d="M 1357.52 451.186 C 1364.7 450.701 1399.01 452.597 1401.26 466.513 C 1402.57 474.654 1390.7 466.89 1387 464.818 C 1376.98 459.216 1368.2 458.846 1355.84 460.152 C 1348.78 461.825 1335.35 467.694 1332.63 473.63 C 1327.34 485.172 1315.32 484.611 1322.5 472.998 C 1330 460.873 1343.42 453.822 1357.52 451.186 z" fill="rgb(8,9,20)" transform="translate(0,0)"></path>
<path d="M 1572.64 418.274 C 1581.81 417.701 1603.95 420.753 1609.01 427.467 C 1614.93 435.312 1608.54 437.239 1601.39 432.065 C 1590.91 424.47 1575.29 424.781 1562.73 429.011 C 1550.46 434.656 1544.31 442.898 1537.49 449.124 C 1535.48 450.961 1529.01 447.129 1536.63 438.539 C 1548.04 425.681 1555.24 420.9 1572.64 418.274 z" fill="rgb(8,9,20)" transform="translate(0,0)"></path>
<path d="M 1373.71 389.225 C 1379.6 388.682 1389.36 389.891 1385.73 397.055 C 1384.38 399.718 1356.7 405.905 1352.07 407.836 L 1350.75 408.4 C 1349.4 408.919 1338.38 414.49 1338.16 409.818 C 1337.57 396.991 1364.27 390.941 1373.71 389.225 z" fill="rgb(8,9,20)" transform="translate(0,0)"></path>
<path d="M 1534.13 364.216 C 1571.5 361.679 1581.24 381.832 1565.78 378.662 C 1551.98 376.273 1541.51 377.292 1529.08 377.139 C 1526.73 377.11 1521.62 368.129 1534.13 364.216 z" fill="rgb(8,9,20)" transform="translate(0,0)"></path>
<path d="M 1363.09 483.182 C 1378.38 482.675 1378.57 492.517 1361.68 497.119 C 1342.24 497.26 1345.43 486.728 1363.09 483.182 z" fill="rgb(246,224,203)" transform="translate(0,0)"></path>
<path d="M 1573.75 449.29 C 1590.81 448.385 1595.98 454.952 1578.76 462.193 C 1562.21 464.193 1558.49 455.123 1573.75 449.29 z" fill="rgb(246,224,203)" transform="translate(0,0)"></path>
<path d="M 1326.67 334.818 C 1278.42 292.895 1150.93 171.649 1179.4 99.3523 C 1183.65 88.3911 1192.32 79.7319 1203.29 75.5091 C 1219.26 69.2061 1238.4 72.8551 1253.33 80.1082 C 1329.09 116.906 1368.4 218.233 1395.77 291.61 C 1390.74 293.432 1385.95 295.704 1381.07 297.905 C 1364.97 305.904 1355.27 312.481 1340.6 322.478 C 1335.8 326.435 1331.27 330.632 1326.67 334.818 z" fill="rgb(250,103,89)" transform="translate(0,0)"></path>
<path d="M 1340.6 322.478 C 1323.36 305.309 1261.81 232.186 1253.65 209.702 C 1249.96 199.537 1249.55 188.235 1254.56 178.434 C 1258.46 170.722 1265.33 164.929 1273.59 162.388 C 1290.65 157.209 1309.62 167.733 1319.02 181.765 C 1339.02 211.619 1355.11 244.969 1371.19 277.089 C 1374.57 283.831 1378.96 290.898 1381.07 297.905 C 1364.97 305.904 1355.27 312.481 1340.6 322.478 z" fill="rgb(250,156,133)" transform="translate(0,0)"></path>
<path d="M 1492.33 276.702 C 1488.45 210.504 1492.55 104.233 1572.84 83.2064 C 1620.13 70.8201 1671.46 117.429 1680.99 161.56 C 1686.95 189.13 1675.98 214.544 1645.87 219.349 C 1602.74 226.302 1568.44 190.75 1541.82 161.982 C 1538.16 158.031 1533.86 152.848 1529.46 149.774 L 1528.56 150.415 C 1528.6 155.111 1529.43 155.76 1531.99 159.736 L 1523.29 173.737 C 1524.9 175.387 1526.42 176.371 1527.59 177.97 C 1532.02 174.025 1535.52 171.348 1541.04 168.971 C 1550.09 178.632 1558.03 187.453 1568.12 196.055 C 1576 202.618 1580.23 205.835 1588.72 211.628 L 1587.92 215.491 C 1583.44 236.174 1569.16 273.863 1559.19 292.455 C 1555.27 291.119 1545.7 287.614 1542.19 286.792 C 1530.58 283.447 1518.81 280.674 1506.92 278.481 C 1502.06 277.853 1497.2 277.26 1492.33 276.702 z" fill="rgb(250,103,89)" transform="translate(0,0)"></path>
<path d="M 1527.59 177.97 C 1532.02 174.025 1535.52 171.348 1541.04 168.971 C 1550.09 178.632 1558.03 187.453 1568.12 196.055 C 1576 202.618 1580.23 205.835 1588.72 211.628 L 1587.92 215.491 C 1583.44 236.174 1569.16 273.863 1559.19 292.455 C 1555.27 291.119 1545.7 287.614 1542.19 286.792 C 1530.58 283.447 1518.81 280.674 1506.92 278.481 C 1508.77 260.302 1509.28 239.706 1513.94 222.278 L 1514.45 220.659 C 1519.56 204.587 1519.46 194.133 1527.59 177.97 z" fill="rgb(250,156,133)" transform="translate(0,0)"></path>
<path d="M 1568.12 196.055 C 1576 202.618 1580.23 205.835 1588.72 211.628 L 1587.92 215.491 C 1583.44 236.174 1569.16 273.863 1559.19 292.455 C 1555.27 291.119 1545.7 287.614 1542.19 286.792 C 1548.2 280.292 1559.97 232.858 1562.7 221.445 L 1564.71 212.984 C 1566.08 207.056 1567.28 202.117 1568.12 196.055 z" fill="rgb(250,103,89)" transform="translate(0,0)"></path>
<path d="M 1523.29 173.737 C 1524.9 175.387 1526.42 176.371 1527.59 177.97 C 1519.46 194.133 1519.56 204.587 1514.45 220.659 L 1513.94 222.278 C 1507.3 215.465 1512.09 210.827 1513.73 201.461 C 1515.33 192.362 1519.32 182.104 1523.29 173.737 z" fill="rgb(8,9,20)" transform="translate(0,0)"></path>
<path d="M 1368.22 790.272 C 1363.15 783.484 1355.57 773.465 1357.23 764.522 C 1359.85 750.457 1370.29 746.815 1378.63 737.635 C 1384.17 730.6 1386.01 722.175 1393.99 717.026 C 1413.54 704.425 1431.18 717.581 1438.64 736.6 C 1442.28 745.903 1436.92 754.185 1432.54 762.23 C 1430.58 751.049 1425.36 738.705 1410.99 735.181 C 1406.02 736.498 1407.12 739.536 1410.84 741.486 C 1441.35 757.467 1424.29 773.444 1409.17 785.665 C 1407.27 786.316 1407.2 786.406 1405.46 787.435 C 1392.69 795.609 1382.91 793.724 1368.22 790.272 z" fill="rgb(55,93,108)" transform="translate(0,0)"></path>
<path d="M 1405.46 787.435 C 1403.22 778.877 1400.64 772.576 1393 766.984 C 1391.4 765.813 1388.2 764.511 1386.91 763.163 C 1386.71 761.067 1387.67 760.589 1389.59 760.546 C 1401.55 760.275 1407.93 776.839 1409.17 785.665 C 1407.27 786.316 1407.2 786.406 1405.46 787.435 z" fill="rgb(8,9,20)" transform="translate(0,0)"></path>
<path d="M 1765.23 557.25 C 1793.06 555.781 1803.19 571.129 1803.43 596.987 C 1803.54 608.719 1807.84 623.436 1798.03 633.03 C 1788.61 642.247 1778.22 643.529 1765.79 643.419 C 1759.7 639.909 1752.56 636.45 1752.68 628.489 C 1752.85 617.008 1760.77 620.369 1768.99 619.505 L 1770.14 619.113 C 1771.6 618.601 1781.92 615.807 1781.05 613.571 C 1778.48 606.579 1774.96 612.32 1770.01 613.064 C 1735.88 618.196 1740.57 589.589 1769.64 584.567 C 1771.52 584.241 1775.15 580.84 1773.48 579.841 C 1767.13 576.055 1751.88 586.184 1746.71 589.556 C 1741.14 571.584 1746.15 562.426 1765.23 557.25 z" fill="rgb(55,93,108)" transform="translate(0,0)"></path>
<path d="M 1738.96 507.106 C 1739.92 507.064 1740.87 507.022 1741.83 506.98 C 1748.16 506.871 1754.25 509.432 1758.6 514.035 C 1768.21 524.228 1767.23 539.598 1766.97 552.443 C 1760.21 554.119 1751.23 556.61 1745.67 560.864 C 1731.81 571.459 1743.76 589.213 1741.86 598.599 C 1739.11 612.128 1747.8 612.5 1750.05 619.338 C 1751.13 622.621 1744.3 633.441 1753.3 642.301 C 1759.44 648.344 1768.84 647.178 1770.87 651.126 L 1767.96 655.467 C 1764.53 659.285 1760.51 663.057 1756.82 666.67 C 1754.27 660.476 1753.22 658.317 1749.7 652.579 C 1736.18 645.159 1729.11 650.188 1722.49 633.2 C 1723.42 630.363 1724.32 627.516 1725.19 624.658 C 1731.76 602.798 1723.79 599.918 1714.32 582.412 C 1718.66 572.264 1723.32 569.673 1727.99 560.939 C 1736.78 544.496 1722.21 519.829 1738.96 507.106 z" fill="rgb(55,93,108)" transform="translate(0,0)"></path>
<path d="M 415.562 59.3583 C 510.016 58.5019 512.223 272.23 514.04 335.302 C 543.424 328.964 572.681 330.16 602.236 333.525 C 601.631 311.179 602.058 288.817 603.515 266.51 C 607.875 198.163 622.669 103.471 711.893 111.927 C 746.262 114.874 778.09 128.329 800.784 154.928 C 819.145 176.448 822.696 206.885 798.146 225.901 C 779.375 240.44 753.822 242.853 730.887 240.133 C 724.209 278.666 702.585 332.097 686.595 367.579 C 739.045 398.652 765.82 447.402 783.434 503.594 C 789.922 501.87 800.337 499.963 806.275 503.11 C 817.365 506.756 812.075 530.784 813.493 533.339 C 822.725 549.963 811.804 557.528 804.923 572.089 C 803.577 574.937 801.726 582.066 799.488 585.183 C 773.961 620.749 727.371 636.577 686.738 647.014 C 733.838 681.231 764.272 716.465 793.055 767.244 C 822.214 818.685 819.813 854.239 752.998 862.461 C 762.179 895.084 767.539 918.473 765.727 952.844 C 775.871 957.691 778.804 960.064 785.843 968.665 C 803.113 1000.48 781.571 1005.48 755.206 1007.94 C 711.668 1012 642.813 1011.44 607.382 984.018 C 583.712 965.698 578.233 877.128 575.815 847.825 L 557.301 847.931 C 555.041 870.414 549.28 903.913 543.654 926.121 C 537.768 949.351 532.772 979.359 510.645 991.607 C 463.081 1016.23 398.046 1014.37 346.507 1005.35 C 331.286 1002.69 327.643 994.179 333.569 979.943 C 339.488 965.721 347.715 958.298 362.143 952.527 C 357.761 925.128 368.199 888.687 376.31 862.119 C 272.551 847.642 334.468 765.352 371.211 715.651 C 389.922 690.341 414.862 667.118 439.867 648.245 C 424.74 644.415 409.049 639.668 394.344 633.66 C 373.115 624.986 351.41 612.755 336.976 594.326 C 333.831 589.434 332.82 584.309 329.867 579.196 C 324.193 569.371 311.576 556.017 317.448 543.908 C 317.671 543.448 319.698 538.928 319.695 538.907 C 318.164 529.474 316.02 519.421 319.72 510.205 C 323.286 501.099 334.874 503.573 341.664 507.118 C 353.765 453.543 384.223 408.62 427.249 375.144 C 398.48 310.731 369.588 244.834 359.58 174.409 C 353.287 130.129 359.891 65.6017 415.562 59.3583 z" fill="rgb(8,9,20)" transform="translate(0,0)"></path>
<path d="M 454.526 364.04 C 512.945 327.668 601.988 327.825 662.247 359.632 C 716.36 386.739 753.145 430.915 772.851 488.061 C 774.456 492.714 777.792 503.568 778.294 508.374 L 779.678 510.597 C 785.946 511.397 798.259 500.566 806.374 510.834 C 816.104 523.145 802.208 530.703 803.115 538.345 C 805.39 539.022 807.181 539.452 809.501 539.971 C 818.616 551.451 793.981 568.322 795.22 573.25 L 797.997 574.981 C 798.155 588.07 764.684 610.55 753.796 616.252 C 663.998 666.195 477.434 668.721 385.484 623.511 C 369.171 616.261 349.305 603.64 339.204 587.797 C 336.868 584.132 340.843 581.487 338.854 579.068 C 334.5 573.774 328.159 568.477 324.929 562.416 C 322.846 558.509 320.199 551.716 321.585 547.277 C 324.445 544.953 324.103 545.693 328.514 545.234 C 331.819 540.782 303.362 496.827 343.979 514.904 L 345.353 515.504 C 347.613 509.023 349.485 499.098 351.66 492.078 C 368.291 438.41 405.159 390.846 454.526 364.04 z" fill="rgb(250,103,89)" transform="translate(0,0)"></path>
<path d="M 454.526 364.04 C 512.945 327.668 601.988 327.825 662.247 359.632 C 662.01 368.151 660.94 372.794 654.593 378.668 C 644.117 388.412 627.198 387.027 615.908 394.787 C 604.98 402.298 598.692 416.317 590.301 426.36 C 573.636 446.305 546.865 447.197 530.869 425.937 C 523.234 415.79 517.345 402.422 506.414 395.472 C 488.437 385.277 457.238 395.429 454.526 364.04 z" fill="rgb(246,224,203)" transform="translate(0,0)"></path>
<path d="M 385.484 623.511 C 369.171 616.261 349.305 603.64 339.204 587.797 C 336.868 584.132 340.843 581.487 338.854 579.068 C 334.5 573.774 328.159 568.477 324.929 562.416 C 322.846 558.509 320.199 551.716 321.585 547.277 C 324.445 544.953 324.103 545.693 328.514 545.234 C 331.819 540.782 303.362 496.827 343.979 514.904 L 345.353 515.504 C 373.971 512.61 402.374 545.909 404.59 573.51 C 405.939 589.997 400.599 606.333 389.772 618.84 C 388.409 620.456 386.978 622.015 385.484 623.511 z" fill="rgb(251,159,92)" transform="translate(0,0)"></path>
<path d="M 778.294 508.374 L 779.678 510.597 C 785.946 511.397 798.259 500.566 806.374 510.834 C 816.104 523.145 802.208 530.703 803.115 538.345 C 805.39 539.022 807.181 539.452 809.501 539.971 C 818.616 551.451 793.981 568.322 795.22 573.25 L 797.997 574.981 C 798.155 588.07 764.684 610.55 753.796 616.252 C 723.143 588.312 728.746 541.484 759.13 515.726 C 764.637 511.058 770.994 507.633 778.294 508.374 z" fill="rgb(251,159,92)" transform="translate(0,0)"></path>
<path d="M 468.987 445.239 C 502.9 447.146 499.868 479.379 499.903 503.466 C 499.942 529.492 502.258 547.859 471.891 555.303 C 439.616 553.319 438.308 530.007 438.948 504.792 C 439.633 477.749 434.155 452.104 468.987 445.239 z" fill="rgb(8,9,20)" transform="translate(0,0)"></path>
<path d="M 473.107 460.026 C 494.927 460.369 498.959 485.748 481.664 491.512 L 479.866 492.143 C 460.231 491.244 454.869 471.162 470.366 461.668 L 473.107 460.026 z" fill="rgb(246,224,203)" transform="translate(0,0)"></path>
<path d="M 653.708 445.138 C 686.496 443.03 689.421 476.4 687.772 500.96 C 686.083 526.108 691.699 545.641 661.339 554.903 C 627.242 556.768 626.633 525.556 627.123 501.11 C 627.637 475.382 623.037 454.511 653.708 445.138 z" fill="rgb(8,9,20)" transform="translate(0,0)"></path>
<path d="M 660.488 460.878 C 668.798 458.954 677.095 464.13 679.021 472.441 C 680.946 480.751 675.771 489.049 667.461 490.976 C 659.149 492.903 650.849 487.726 648.923 479.414 C 646.997 471.102 652.175 462.802 660.488 460.878 z" fill="rgb(246,224,203)" transform="translate(0,0)"></path>
<path d="M 545.174 520.126 L 546.745 520.022 C 560.202 519.146 556.362 522.67 564.702 526.887 C 566.763 526.778 578.819 513.618 589.281 524.71 C 600.546 536.653 588.431 549.36 579.581 557.767 C 573.185 563.056 570.207 565.44 563.213 570.132 C 547.556 557.377 517.512 536.788 545.174 520.126 z" fill="rgb(246,224,203)" transform="translate(0,0)"></path>
<path d="M 591.689 585.635 C 599.868 593.304 580.651 611.319 565.364 593.576 C 565.066 592.181 563.608 586.174 565.919 587.217 C 570.673 589.363 574.024 598.12 582.002 596.149 C 586.712 594.985 589.447 589.389 591.689 585.635 z" fill="rgb(246,224,203)" transform="translate(0,0)"></path>
<path d="M 455.022 660.689 C 499.686 661.671 520.331 678.939 568.111 679.312 C 582.417 679.503 596.685 677.784 610.536 674.2 C 637.077 667.379 652.795 655.582 680.05 667.761 C 687.074 682.587 693.592 700.386 699.44 715.885 C 714.81 757.087 728.692 798.829 741.057 841.03 C 749.543 870.055 758.392 901.241 760.878 931.335 C 760.894 937.876 761.071 944.722 760.518 951.22 C 754.674 950.798 746.522 949.256 742.218 952.749 L 742.572 954.866 C 755.528 958.678 772.159 956.006 781.591 972.245 C 785.546 979.054 786.581 987.381 786.574 995.21 C 778.053 998.128 771.161 999.599 762.424 1001.54 C 760.883 991.133 754.645 974.741 743.538 971.756 L 742.077 973.196 C 742.158 975.926 741.549 977.133 743.864 978.681 C 753.727 985.277 754.995 990.318 757.614 1002.46 C 715.508 1006.01 646.421 1007.64 610.691 979.799 C 599.571 971.135 596.088 956.502 594.147 943.064 C 591.08 931.034 589.376 920.143 587.52 907.958 C 584.998 887.669 582.758 867.906 581.799 847.466 C 586.03 847.303 591.981 847.825 594.942 845.816 L 595.253 843.605 C 591.824 840.373 544.982 842.113 536.577 841.981 C 521.297 825.431 509.723 828.911 490.057 834.276 C 487.964 833.722 484.572 832.732 482.502 832.054 C 464.181 823.983 472.912 795.992 464.301 779.549 C 453.42 758.773 426.092 770.349 410.077 779.752 C 424.079 739.701 439.065 700.002 455.022 660.689 z" fill="rgb(250,103,89)" transform="translate(0,0)"></path>
<path d="M 594.147 943.064 C 614.533 956.602 618.93 934.209 635.259 929.378 C 649.418 925.529 655.439 943.274 664.935 948.524 C 688.868 961.757 700.86 931.31 718.347 926.454 C 729.989 923.22 748.436 954.131 760.878 931.335 C 760.894 937.876 761.071 944.722 760.518 951.22 C 754.674 950.798 746.522 949.256 742.218 952.749 L 742.572 954.866 C 755.528 958.678 772.159 956.006 781.591 972.245 C 785.546 979.054 786.581 987.381 786.574 995.21 C 778.053 998.128 771.161 999.599 762.424 1001.54 C 760.883 991.133 754.645 974.741 743.538 971.756 L 742.077 973.196 C 742.158 975.926 741.549 977.133 743.864 978.681 C 753.727 985.277 754.995 990.318 757.614 1002.46 C 715.508 1006.01 646.421 1007.64 610.691 979.799 C 599.571 971.135 596.088 956.502 594.147 943.064 z" fill="rgb(55,93,108)" transform="translate(0,0)"></path>
<path d="M 615.088 907.926 C 628.464 898.286 634.503 883.684 654.967 896.219 C 667.178 904.265 682.619 917.936 696.839 904.601 C 718.787 884.019 691.039 834.924 741.057 841.03 C 749.543 870.055 758.392 901.241 760.878 931.335 C 748.436 954.131 729.989 923.22 718.347 926.454 C 700.86 931.31 688.868 961.757 664.935 948.524 C 655.439 943.274 649.418 925.529 635.259 929.378 C 618.93 934.209 614.533 956.602 594.147 943.064 C 591.08 931.034 589.376 920.143 587.52 907.958 C 596.708 908.15 605.9 908.14 615.088 907.926 z" fill="rgb(251,159,92)" transform="translate(0,0)"></path>
<path d="M 410.077 779.752 C 426.092 770.349 453.42 758.773 464.301 779.549 C 472.912 795.992 464.181 823.983 482.502 832.054 C 484.572 832.732 487.964 833.722 490.057 834.276 C 509.723 828.911 521.297 825.431 536.577 841.981 L 537.029 847.751 L 551.784 847.84 L 550.906 855.997 C 550.383 860.674 549.401 865.699 548.806 870.514 C 548.628 871.854 548.422 873.19 548.187 874.521 C 545.958 887.53 543.859 900.895 541.059 913.77 C 537.79 926.777 534.57 940.439 531.04 953.324 C 526.304 968.365 521.366 979.603 506.766 987.66 C 472.306 1006.17 429.317 1006.97 391.033 1005.64 C 385.46 1005.45 371.13 1006.33 368.915 1002.05 C 369.572 985.809 377.185 987.309 381.126 975.259 L 380.29 973.807 C 368.964 974.207 364.541 994.924 363.553 1003.77 C 354.269 1002.32 344.695 999.383 335.882 996.164 C 337.163 976.84 347.213 960.982 366.984 956.399 C 373.403 954.912 382.993 958.403 386.982 953.018 C 384.778 946.459 374.769 953.815 367.573 949.866 C 366.273 945.841 367.048 940.842 367.338 936.464 C 365.727 924.367 372.269 896.985 375.606 885.132 C 383.741 852.226 399.326 812.393 410.077 779.752 z" fill="rgb(250,156,133)" transform="translate(0,0)"></path>
<path d="M 367.338 936.464 C 372.419 946.445 382.361 943.656 390.57 939.572 C 401.377 934.289 412.177 919.765 425.595 924.677 C 444.442 931.999 435.93 949.116 459.28 953.274 C 480.518 957.056 489.742 937.248 507.986 942.116 C 514.768 943.926 520.289 950.718 531.04 953.324 C 526.304 968.365 521.366 979.603 506.766 987.66 C 472.306 1006.17 429.317 1006.97 391.033 1005.64 C 385.46 1005.45 371.13 1006.33 368.915 1002.05 C 369.572 985.809 377.185 987.309 381.126 975.259 L 380.29 973.807 C 368.964 974.207 364.541 994.924 363.553 1003.77 C 354.269 1002.32 344.695 999.383 335.882 996.164 C 337.163 976.84 347.213 960.982 366.984 956.399 C 373.403 954.912 382.993 958.403 386.982 953.018 C 384.778 946.459 374.769 953.815 367.573 949.866 C 366.273 945.841 367.048 940.842 367.338 936.464 z" fill="rgb(55,93,108)" transform="translate(0,0)"></path>
<path d="M 375.606 885.132 C 385.635 889.483 396.166 892.366 406.945 887.126 C 425.707 878.007 455.594 856.53 468.603 886.636 C 476.36 904.588 474.938 916.079 498.025 921.502 C 518.316 915.977 517.902 907.512 541.059 913.77 C 537.79 926.777 534.57 940.439 531.04 953.324 C 520.289 950.718 514.768 943.926 507.986 942.116 C 489.742 937.248 480.518 957.056 459.28 953.274 C 435.93 949.116 444.442 931.999 425.595 924.677 C 412.177 919.765 401.377 934.289 390.57 939.572 C 382.361 943.656 372.419 946.445 367.338 936.464 C 365.727 924.367 372.269 896.985 375.606 885.132 z" fill="rgb(246,224,203)" transform="translate(0,0)"></path>
<path d="M 537.029 847.751 L 551.784 847.84 L 550.906 855.997 C 550.383 860.674 549.401 865.699 548.806 870.514 C 548.628 871.854 548.422 873.19 548.187 874.521 C 540.499 866.808 538.939 858.554 537.029 847.751 z" fill="rgb(250,103,89)" transform="translate(0,0)"></path>
<path d="M 431.921 371.837 C 426.405 361.591 418.032 341.836 413.579 330.851 C 391.965 277.268 369.359 220.805 364.123 162.836 C 360.526 126.58 369.207 66.3243 416.569 65.1654 C 456.348 64.2938 478.881 113.689 487.254 146.015 C 502.535 205.008 508.711 275.314 508.901 336.224 C 503.006 337.578 497.733 339.462 492.011 341.375 C 475.875 346.907 465.33 351.418 450.374 359.977 C 444.26 363.706 437.962 367.925 431.921 371.837 z" fill="rgb(250,103,89)" transform="translate(0,0)"></path>
<path d="M 450.374 359.977 C 445.606 352.068 442.472 344.088 439.276 335.452 C 426.631 301.28 414.646 266.603 407.678 230.751 C 405.338 218.708 405.457 202.607 413.422 192.492 C 419.4 184.902 427.697 180.242 437.395 179.299 C 446.242 178.47 455.042 181.302 461.745 187.135 C 479.194 202.177 482.202 255.656 484.859 278.8 C 487.408 299.639 489.792 320.498 492.011 341.375 C 475.875 346.907 465.33 351.418 450.374 359.977 z" fill="rgb(250,156,133)" transform="translate(0,0)"></path>
<path d="M 607.82 334.646 C 607.17 280.259 608.063 191.995 641.038 145.963 C 653.172 129.691 670.582 120.164 690.82 117.638 C 734.413 112.197 802.74 139.738 810.015 188.273 C 814.245 216.489 778.483 234.754 753.552 235.507 C 721.854 236.464 692.064 225.602 667.913 204.458 C 660.875 198.373 655.449 191.304 648.64 185.238 L 646.103 186.346 C 643.572 190.888 648.976 188.943 647.464 194.461 C 645.299 202.362 639.804 212.575 639.439 220.543 C 639.356 222.358 640.438 222.547 642.309 224.132 C 646.15 217.984 649.053 204.82 651.973 197.219 C 667.332 212.836 680.397 221.812 700.154 231.24 C 709.156 234.448 716.306 236.875 725.681 238.859 C 719.373 274.97 697.79 330.554 681.612 363.724 L 663.866 353.907 C 650.174 347.232 638.899 343.509 624.564 338.892 L 607.82 334.646 z" fill="rgb(250,103,89)" transform="translate(0,0)"></path>
<path d="M 651.973 197.219 C 667.332 212.836 680.397 221.812 700.154 231.24 C 709.156 234.448 716.306 236.875 725.681 238.859 C 719.373 274.97 697.79 330.554 681.612 363.724 L 663.866 353.907 C 650.174 347.232 638.899 343.509 624.564 338.892 C 625.047 324.665 635.333 228.306 642.309 224.132 C 646.15 217.984 649.053 204.82 651.973 197.219 z" fill="rgb(250,156,133)" transform="translate(0,0)"></path>
<path d="M 700.154 231.24 C 709.156 234.448 716.306 236.875 725.681 238.859 C 719.373 274.97 697.79 330.554 681.612 363.724 L 663.866 353.907 C 680.975 306.073 690.029 281.792 700.154 231.24 z" fill="rgb(250,103,89)" transform="translate(0,0)"></path>
<path d="M 364.83 733.034 C 375.266 718.016 435.209 648.546 451.49 649.161 L 452.432 650.421 C 451.379 657.104 436.063 693.42 432.717 701.914 C 422.286 728.395 413.413 756.238 403.227 782.501 C 388.665 820.623 396.941 817.036 376.976 795.168 C 372.38 790.135 361.398 797.444 353.976 795.077 C 345.217 792.282 344.112 782.358 338.805 774.974 C 346.319 760.306 355.023 746.279 364.83 733.034 z" fill="rgb(250,103,89)" transform="translate(0,0)"></path>
<path d="M 364.83 733.034 C 365.742 738.249 365.04 742.803 366.088 747.98 C 368.997 762.356 387.56 748.547 393.015 755.062 C 403.258 767.296 387.24 768.861 403.227 782.501 C 388.665 820.623 396.941 817.036 376.976 795.168 C 372.38 790.135 361.398 797.444 353.976 795.077 C 345.217 792.282 344.112 782.358 338.805 774.974 C 346.319 760.306 355.023 746.279 364.83 733.034 z" fill="rgb(246,224,203)" transform="translate(0,0)"></path>
<path d="M 678.572 648.086 C 709.06 666.105 741.434 700.034 761.651 728.87 C 772.694 744.217 779.528 755.293 788.455 771.807 C 776.833 791.676 786.474 793.338 757.818 792.964 C 748.206 799.424 747.136 805.865 738.848 813.5 C 733.598 799.45 725.911 774.483 721.723 760.188 C 719.557 755.468 717.413 749.286 715.725 744.373 C 704.521 711.76 691.269 680.118 678.572 648.086 z" fill="rgb(250,103,89)" transform="translate(0,0)"></path>
<path d="M 761.651 728.87 C 772.694 744.217 779.528 755.293 788.455 771.807 C 776.833 791.676 786.474 793.338 757.818 792.964 C 748.206 799.424 747.136 805.865 738.848 813.5 C 733.598 799.45 725.911 774.483 721.723 760.188 C 727.069 761.081 729.749 766.066 737.005 766.332 C 753.122 766.922 748.97 751.139 749.007 739.025 C 753.516 732.853 754.129 731.51 761.651 728.87 z" fill="rgb(246,224,203)" transform="translate(0,0)"></path>
<path d="M 790.04 777.552 C 798.89 785.046 805.671 807.742 805.534 819.503 C 805.382 832.564 801.026 835.863 792.273 844.438 C 792.644 840.519 792.914 832.726 793.324 829.499 C 794.249 822.221 785.419 814.719 786.579 824.558 C 787.746 834.466 788.065 837.674 786.679 847.452 C 780.974 850.294 776.817 852.342 770.489 853.822 L 764.074 855.263 L 764.668 842.424 C 764.759 838.772 765.604 830.122 763.509 827.426 C 759.968 822.611 756.61 825.07 758.254 830.51 C 759.437 833.136 761.105 860.259 752.486 855.878 C 749.104 854.159 741.305 824.118 739.885 819.363 C 752.206 810.06 749.345 807.809 758.407 798.054 C 783.502 797.845 782.474 799.688 790.04 777.552 z" fill="rgb(55,93,108)" transform="translate(0,0)"></path>
<path d="M 335.86 781.482 C 339.081 782.963 341.116 791.943 350.668 800.037 C 374.575 800.032 371.108 792.772 383.966 812.516 C 385.049 814.179 389.768 816.292 391.682 817.442 C 387.015 830.045 382.812 842.91 378.322 855.549 C 377.838 856.91 375.399 856.165 374.824 855.108 C 372.111 850.12 372.609 839.545 373.789 833.998 C 375.284 826.975 375.287 816.709 367.917 829.105 C 367.356 839.335 367.455 845.534 368.887 855.859 C 340.308 848.484 345.73 850.318 344.583 822.44 C 344.566 822.022 342.357 821.618 341.889 821.651 C 341.335 821.689 340.819 821.949 340.458 822.372 C 338.441 824.724 339.444 842.369 339.704 846.045 C 316.426 826.65 323.93 805.157 335.86 781.482 z" fill="rgb(55,93,108)" transform="translate(0,0)"></path>
<path d="M 719.592 1096.41 C 726.019 1095.63 734.947 1095.81 741.41 1096.48 C 810.882 1103.69 860.73 1159.55 853.486 1229.78 C 935.397 1233.73 963.202 1318.57 953.393 1387.66 C 946.476 1436.39 913.46 1471.22 866.299 1435.86 C 837.459 1414.24 822.364 1371.34 818.371 1337.27 C 783.437 1335.69 756.278 1339.95 723.165 1350.7 C 726.894 1354.33 730.488 1358.09 733.938 1361.98 C 745.245 1374.94 767.026 1405.7 765.767 1423.26 C 763.668 1426.63 765.105 1425.48 761.232 1426.72 C 756.217 1426.26 752.445 1423.36 747.999 1420.69 C 759.689 1461.55 756.714 1491.17 744.231 1530.94 C 767.464 1536.11 769.482 1546.8 760.742 1567.58 C 766.247 1582.88 756.472 1589.73 743.922 1597.37 C 737.28 1601.42 730.519 1602.75 722.965 1604.15 C 733.067 1644.08 726.786 1719.3 684.613 1741.51 C 666.95 1750.81 653.296 1747.48 635.47 1741.97 C 638.411 1755.77 647.181 1772.47 652.343 1786.04 C 665.297 1820.12 681.505 1870.65 675.817 1906.44 C 691.729 1913.03 712.326 1932.72 703.732 1952.56 C 701.607 1957.46 689.168 1959.42 684.022 1960.63 C 644.028 1968.44 600.188 1964.73 559.933 1960.1 C 552.345 1959.22 528.62 1952.93 524.718 1953.74 C 518.946 1976.07 425.412 1969.52 406.813 1968.67 C 337.539 1965.49 297.777 1945.72 310.302 1869.23 C 318.156 1821.27 336.876 1729.29 361.037 1689.17 C 340.324 1641.45 372.523 1569.5 413.21 1540.84 C 382.879 1522.77 339.067 1483.55 324.191 1452.43 C 319.524 1442.67 311.984 1397.4 317.871 1386.03 C 321.519 1378.98 321.102 1379.54 328.56 1376.41 C 329.947 1366.35 330.835 1358.27 337.381 1349.96 C 346.9 1337.88 361.002 1339.17 372.107 1348.11 C 373.973 1345.26 376.014 1342.53 378.217 1339.93 C 412.004 1299.42 462.104 1275.26 514.309 1270.48 C 526.891 1241.78 543.46 1214.99 563.526 1190.92 C 603.038 1143.29 656.133 1102.32 719.592 1096.41 z" fill="url(#Gradient2)" transform="translate(0,0)"></path>
<path d="M 542.492 1274.4 C 614.176 1276.24 676.899 1309.81 725.665 1361.06 C 729.26 1364.82 732.658 1368.76 735.846 1372.87 C 748.707 1388.2 756.607 1401.88 761.229 1421.54 C 756.228 1419.11 746.902 1413.42 741.554 1415.27 C 739.888 1420.74 747.249 1436.89 748.077 1443.9 C 748.963 1451.41 749.483 1458.66 749.555 1466.23 C 749.798 1482.62 747.791 1498.97 743.589 1514.82 C 741.769 1521.66 738.04 1529.69 737.769 1536.33 C 778.499 1535.49 750.915 1571.77 751.139 1572.47 C 752.398 1573.65 755.843 1572.56 756.204 1573.87 C 758.17 1581.05 744.953 1590.66 740.759 1592.64 C 732.892 1596.36 727.471 1597.35 720.213 1598.84 C 710.946 1586.47 708.91 1582.66 692.75 1576.82 C 666.219 1569.45 639.809 1573.91 629.876 1602.85 C 616.021 1603.04 605.052 1602.73 591.604 1599.57 C 592.098 1590.05 592.251 1581.46 589.352 1572.28 C 580.792 1545.16 553.645 1525.76 525.046 1537.23 C 506.52 1544.65 497.954 1557.17 490.294 1574.42 C 476.53 1567.67 461.295 1562.15 447.612 1555 C 418.193 1539.63 391.145 1519.91 366.538 1497.79 C 354.785 1486.86 324.68 1454.18 325.072 1435.02 C 326.389 1429.72 325.746 1425.21 323.994 1419.92 C 321.543 1412.52 318.145 1385.19 327.723 1383.3 L 332.048 1386.31 C 336.927 1385.81 333.179 1358.68 341.863 1352.09 C 353.265 1343.44 363.371 1346.27 372.763 1355.91 C 374.399 1354.94 374.058 1355.38 375.062 1353.93 C 413.63 1298.36 475.552 1276.02 542.492 1274.4 z" fill="rgb(250,103,89)" transform="translate(0,0)"></path>
<path d="M 542.492 1274.4 C 614.176 1276.24 676.899 1309.81 725.665 1361.06 C 729.26 1364.82 732.658 1368.76 735.846 1372.87 C 727.076 1377.7 717.404 1376.77 709.088 1380.04 C 680.294 1391.35 669.746 1424.88 633.639 1419.59 C 591.007 1416.09 605.599 1368.1 587.692 1349.19 C 562.141 1322.2 534.323 1325.72 542.492 1274.4 z" fill="rgb(246,224,203)" transform="translate(0,0)"></path>
<path d="M 366.538 1497.79 C 354.785 1486.86 324.68 1454.18 325.072 1435.02 C 326.389 1429.72 325.746 1425.21 323.994 1419.92 C 321.543 1412.52 318.145 1385.19 327.723 1383.3 L 332.048 1386.31 C 336.927 1385.81 333.179 1358.68 341.863 1352.09 C 353.265 1343.44 363.371 1346.27 372.763 1355.91 C 363.61 1369.19 383.841 1394.48 391.259 1404.85 C 405.277 1424.44 410.397 1449.68 397.675 1471.31 C 391.956 1481.04 377.026 1493.55 366.538 1497.79 z" fill="rgb(251,159,92)" transform="translate(0,0)"></path>
<path d="M 737.769 1536.33 C 778.499 1535.49 750.915 1571.77 751.139 1572.47 C 752.398 1573.65 755.843 1572.56 756.204 1573.87 C 758.17 1581.05 744.953 1590.66 740.759 1592.64 C 732.892 1596.36 727.471 1597.35 720.213 1598.84 C 710.946 1586.47 708.91 1582.66 692.75 1576.82 L 693.928 1575.99 C 707.062 1566.49 721.145 1560.22 730.917 1545.94 C 732.382 1543.8 735.986 1537.22 737.769 1536.33 z" fill="rgb(251,159,92)" transform="translate(0,0)"></path>
<path d="M 504.15 1382.13 C 517.396 1381.45 528.915 1386.86 533.367 1400.4 C 537.909 1418.03 525.439 1438.26 518.691 1453.88 C 512.803 1467.52 504.378 1473.79 491.189 1478.2 C 475.456 1478.85 464.704 1472.49 460.296 1456.45 C 456.112 1441.52 463.972 1430.88 468.909 1418.15 C 476.566 1398.39 481.874 1387.19 504.15 1382.13 z" fill="rgb(8,9,20)" transform="translate(0,0)"></path>
<path d="M 509.791 1409.86 C 507.598 1414.31 506.665 1418.37 501.566 1420.19 C 488.169 1424.96 484.131 1405.54 496.847 1402.2 C 500.778 1401.16 504.931 1403.72 507.97 1405.9 C 508.25 1407.35 508.875 1408.71 509.791 1409.86 z" fill="rgb(247,247,246)" transform="translate(0,0)"></path>
<path d="M 507.97 1405.9 C 507.087 1401.35 509.748 1396.85 514.168 1395.42 C 518.588 1394 523.373 1396.11 525.314 1400.32 C 527.254 1404.54 525.738 1409.55 521.782 1411.98 C 517.826 1414.41 512.678 1413.5 509.791 1409.86 C 508.875 1408.71 508.25 1407.35 507.97 1405.9 z" fill="rgb(247,247,246)" transform="translate(0,0)"></path>
<path d="M 667.833 1454.16 C 717.923 1452.94 689.564 1514.84 676.722 1537.38 C 671.687 1546.22 661.146 1550.14 652.128 1551.7 C 646.296 1551.68 641.215 1551.15 636.014 1548.17 C 627.554 1544.06 620.266 1523.97 624.152 1515.51 C 634.605 1492.76 640.393 1460.56 667.833 1454.16 z" fill="rgb(8,9,20)" transform="translate(0,0)"></path>
<path d="M 658.296 1470.54 C 669.449 1474.11 674.675 1483.67 663.765 1490.89 L 662.127 1492.01 L 660.947 1491.82 C 648.062 1489.82 646.417 1479.92 655.69 1472.58 L 658.296 1470.54 z" fill="rgb(247,247,246)" transform="translate(0,0)"></path>
<path d="M 676.619 1464.79 C 688.355 1467.06 693.408 1476.27 683.548 1484.45 C 669.27 1483.67 667.391 1473.99 676.619 1464.79 z" fill="rgb(247,247,246)" transform="translate(0,0)"></path>
<path d="M 557.714 1461.05 C 566.037 1462.49 570.293 1466.84 574.432 1474.14 C 582.041 1473.81 594.886 1472.09 598.542 1480.63 C 603.992 1493.35 596.725 1501.54 585.507 1506.05 L 582.344 1507.31 C 579.572 1508.11 576.777 1508.95 573.987 1509.67 C 570.106 1510.69 566.209 1511.66 562.3 1512.57 C 548.915 1499.76 528.954 1468.61 557.714 1461.05 z" fill="rgb(246,224,203)" transform="translate(0,0)"></path>
<path d="M 493.673 1355.98 C 506.844 1355.34 521.357 1359.33 534.489 1361.27 C 545.038 1362.83 554.336 1363.41 547.355 1375.2 C 537.166 1377.48 520.688 1372.93 510.01 1370.91 C 498.119 1368.67 490.139 1368.6 493.673 1355.98 z" fill="rgb(8,9,20)" transform="translate(0,0)"></path>
<path d="M 689.631 1426.47 C 697.696 1428.31 706.831 1440.13 712.904 1446.11 C 720.79 1453.87 724.71 1455.59 716.489 1463.78 C 714.504 1463.83 710.333 1463.86 708.327 1461.41 C 701.211 1452.67 688.57 1443.9 684.587 1433.6 C 683.85 1431.7 688.585 1427.55 689.631 1426.47 z" fill="rgb(8,9,20)" transform="translate(0,0)"></path>
<path d="M 541.426 1647.15 C 544.443 1645.93 583.462 1625.63 579.103 1625.12 C 597.774 1627.32 607.144 1623.48 624.013 1619.06 C 634.072 1616.42 623.613 1664.35 630.988 1671.9 L 633.074 1670.98 C 635.266 1666.86 634.315 1666.77 633.836 1661.14 C 634.088 1655.08 634.595 1649.92 635.115 1643.91 C 641.767 1640.54 644.824 1638.59 651.924 1635.86 C 683.436 1651.52 669.983 1647.21 698.055 1633.65 C 706.496 1634.61 713.026 1635.77 721.625 1636.2 C 722.337 1647.34 720.368 1668.45 717.648 1679.01 C 710.195 1706.88 700.909 1731.89 670.974 1741.42 C 657.295 1743.87 647.726 1740.79 635.432 1735.8 C 632.857 1726.69 630.986 1717.29 629.165 1707.99 L 628.184 1702.99 C 627.411 1698.96 626.753 1694.92 625.997 1690.89 C 624.274 1683.29 616.533 1645.99 613.109 1641.75 C 611.205 1643.04 610.854 1644.55 610.598 1646.78 C 610.515 1647.51 631.299 1747.38 632.953 1752.73 C 638.263 1769.91 647.141 1786.07 652.893 1803.21 C 661.714 1827.56 669.525 1857.56 671.436 1883.19 C 672.384 1888 671.687 1898.23 671.244 1903.41 C 665.716 1903.21 655.653 1902.04 651.54 1905.4 L 651.362 1907.57 C 652.943 1908.42 659.365 1909.82 663.163 1909.82 C 683.654 1909.83 703.606 1928.04 698.633 1948.9 C 697.458 1953.82 679.839 1955.85 673.337 1956.88 C 671.613 1945.27 666.011 1929.03 652.81 1926.41 L 651.963 1927.72 C 653.259 1932.23 660.83 1938.54 663.528 1943.56 C 666.313 1948.75 667.249 1952.08 668.863 1957.72 C 625.575 1961.1 565.05 1959.4 523.983 1946.16 C 518.651 1925.57 510.461 1920.76 492.779 1912.05 L 489.707 1911.38 L 488.482 1909.19 L 488.884 1904.84 C 491.378 1895.26 493.561 1884.94 495.789 1875.25 C 498.997 1858.72 501.737 1841.39 504.603 1824.75 C 474.625 1813.47 469.857 1806.89 461.208 1775.69 C 459.249 1768.62 456.716 1760.91 451.85 1754.23 C 446.28 1746.59 435.748 1736.6 428.53 1730.01 C 426.557 1729.68 424.902 1729.4 423.567 1729.17 C 436.653 1729.32 445.282 1728.95 457.83 1724.44 C 490.536 1712.69 526.554 1678.15 541.426 1647.15 z" fill="url(#Gradient1)" transform="translate(0,0)"></path>
<path d="M 671.436 1883.19 C 672.384 1888 671.687 1898.23 671.244 1903.41 C 665.716 1903.21 655.653 1902.04 651.54 1905.4 L 651.362 1907.57 C 652.943 1908.42 659.365 1909.82 663.163 1909.82 C 683.654 1909.83 703.606 1928.04 698.633 1948.9 C 697.458 1953.82 679.839 1955.85 673.337 1956.88 C 671.613 1945.27 666.011 1929.03 652.81 1926.41 L 651.963 1927.72 C 653.259 1932.23 660.83 1938.54 663.528 1943.56 C 666.313 1948.75 667.249 1952.08 668.863 1957.72 C 625.575 1961.1 565.05 1959.4 523.983 1946.16 C 518.651 1925.57 510.461 1920.76 492.779 1912.05 L 496.649 1893.44 C 520.248 1912.87 525.551 1892.82 545.949 1885.49 C 559.581 1881.39 566.372 1899.34 576.24 1903.98 C 600.77 1915.52 613.066 1892.04 632.444 1884.72 C 640.687 1881.6 650.419 1888.53 657.179 1893 C 661.038 1893.23 666.291 1894.06 669.574 1892.49 C 671.948 1888.82 671.151 1888.31 671.436 1883.19 z" fill="rgb(55,93,108)" transform="translate(0,0)"></path>
<path d="M 505.501 1851.19 C 518.095 1846.07 525.072 1837.93 536.718 1834.57 C 561.217 1828.72 569.002 1861.88 592.962 1861.35 C 636.152 1860.4 610.518 1801.92 652.893 1803.21 C 661.714 1827.56 669.525 1857.56 671.436 1883.19 C 671.151 1888.31 671.948 1888.82 669.574 1892.49 C 666.291 1894.06 661.038 1893.23 657.179 1893 C 650.419 1888.53 640.687 1881.6 632.444 1884.72 C 613.066 1892.04 600.77 1915.52 576.24 1903.98 C 566.372 1899.34 559.581 1881.39 545.949 1885.49 C 525.551 1892.82 520.248 1912.87 496.649 1893.44 C 500.43 1881.42 503.618 1863.67 505.501 1851.19 z" fill="rgb(251,159,92)" transform="translate(0,0)"></path>
<path d="M 698.055 1633.65 C 706.496 1634.61 713.026 1635.77 721.625 1636.2 C 722.337 1647.34 720.368 1668.45 717.648 1679.01 C 710.348 1679.25 705.703 1680.14 702.149 1672.38 C 695.245 1657.31 683.032 1668.37 667.788 1672.08 C 651.9 1664.67 652.877 1661.14 633.836 1661.14 C 634.088 1655.08 634.595 1649.92 635.115 1643.91 C 641.767 1640.54 644.824 1638.59 651.924 1635.86 C 683.436 1651.52 669.983 1647.21 698.055 1633.65 z" fill="rgb(246,224,203)" transform="translate(0,0)"></path>
<path d="M 625.997 1690.89 C 630.101 1693.51 629.878 1693.85 634.434 1695.64 C 640.121 1697.85 645.414 1700.97 650.108 1704.87 C 661.069 1714.14 668.746 1727.05 670.974 1741.42 C 657.295 1743.87 647.726 1740.79 635.432 1735.8 C 632.857 1726.69 630.986 1717.29 629.165 1707.99 L 628.184 1702.99 C 627.411 1698.96 626.753 1694.92 625.997 1690.89 z" fill="rgb(250,103,89)" transform="translate(0,0)"></path>
<path d="M 509.448 1792.73 C 515.292 1790.94 528.489 1786.65 533.786 1789.52 C 530.651 1794.49 521.277 1795.34 515.589 1796.98 C 511.16 1814.36 509.123 1833.5 505.501 1851.19 C 503.618 1863.67 500.43 1881.42 496.649 1893.44 L 492.779 1912.05 L 489.707 1911.38 L 488.482 1909.19 L 488.884 1904.84 C 491.378 1895.26 493.561 1884.94 495.789 1875.25 C 498.997 1858.72 501.737 1841.39 504.603 1824.75 C 506.411 1814.2 508.483 1803.36 509.448 1792.73 z" fill="rgb(8,9,20)" transform="translate(0,0)"></path>
<path d="M 364.138 1693.82 C 379.625 1715.05 396.958 1727.03 423.567 1729.17 C 424.902 1729.4 426.557 1729.68 428.53 1730.01 C 435.748 1736.6 446.28 1746.59 451.85 1754.23 C 456.716 1760.91 459.249 1768.62 461.208 1775.69 C 469.857 1806.89 474.625 1813.47 504.603 1824.75 C 501.737 1841.39 498.997 1858.72 495.789 1875.25 C 493.561 1884.94 491.378 1895.26 488.884 1904.84 L 488.482 1909.19 C 483.826 1912.85 474.091 1907.87 469.02 1912.49 L 469.268 1914.72 L 470.942 1915.75 C 492.057 1913.34 512.687 1925.46 520.187 1946.27 C 525.105 1959.91 500.814 1961.45 492.214 1962.75 C 491.897 1957.81 491.639 1956.28 490.202 1951.62 C 488.7 1946.76 476.009 1936.38 471.815 1934.68 C 468.879 1936.02 470.077 1935.05 468.18 1937.79 C 469.861 1940.9 478.96 1945.71 484.455 1951.95 C 485.394 1955.58 486.183 1959.7 486.982 1963.4 C 486.154 1963.48 485.326 1963.54 484.497 1963.59 C 444.384 1966.26 359.722 1968.3 327.875 1940.96 C 317.85 1932.36 315.01 1915.56 314.647 1902.67 C 313.792 1881.94 316.268 1864.93 319.545 1844.76 C 327.907 1806.24 346.119 1728.73 364.138 1693.82 z" fill="rgb(250,156,133)" transform="translate(0,0)"></path>
<path d="M 314.647 1902.67 C 318.394 1901.63 323.858 1900.26 327.184 1898.15 C 339.069 1890.63 352.271 1876.64 367.512 1884.6 C 374.204 1888.09 378.384 1898.28 383.872 1903.47 C 391.394 1910.58 403.999 1911.34 413.657 1909.46 C 425.277 1907.19 434.1 1897.44 445.547 1894.84 C 463.375 1890.63 472.614 1904.52 488.884 1904.84 L 488.482 1909.19 C 483.826 1912.85 474.091 1907.87 469.02 1912.49 L 469.268 1914.72 L 470.942 1915.75 C 492.057 1913.34 512.687 1925.46 520.187 1946.27 C 525.105 1959.91 500.814 1961.45 492.214 1962.75 C 491.897 1957.81 491.639 1956.28 490.202 1951.62 C 488.7 1946.76 476.009 1936.38 471.815 1934.68 C 468.879 1936.02 470.077 1935.05 468.18 1937.79 C 469.861 1940.9 478.96 1945.71 484.455 1951.95 C 485.394 1955.58 486.183 1959.7 486.982 1963.4 C 486.154 1963.48 485.326 1963.54 484.497 1963.59 C 444.384 1966.26 359.722 1968.3 327.875 1940.96 C 317.85 1932.36 315.01 1915.56 314.647 1902.67 z" fill="rgb(55,93,108)" transform="translate(0,0)"></path>
<path d="M 319.545 1844.76 L 320.698 1844.46 C 347.527 1837.06 362.599 1801.38 396.102 1818.98 C 423.375 1833.3 406.293 1886.83 449.486 1878.15 C 456.506 1876.96 466.517 1869.87 475.43 1867.7 C 483.819 1869.47 488.101 1870.78 495.789 1875.25 C 493.561 1884.94 491.378 1895.26 488.884 1904.84 C 472.614 1904.52 463.375 1890.63 445.547 1894.84 C 434.1 1897.44 425.277 1907.19 413.657 1909.46 C 403.999 1911.34 391.394 1910.58 383.872 1903.47 C 378.384 1898.28 374.204 1888.09 367.512 1884.6 C 352.271 1876.64 339.069 1890.63 327.184 1898.15 C 323.858 1900.26 318.394 1901.63 314.647 1902.67 C 313.792 1881.94 316.268 1864.93 319.545 1844.76 z" fill="rgb(246,224,203)" transform="translate(0,0)"></path>
<path d="M 520.726 1269.91 C 536.452 1234.95 558.133 1203 584.8 1175.47 C 622.247 1136.94 673.49 1101.99 729.294 1101.48 C 791.331 1100.91 850.258 1151.42 849.151 1215.67 C 848.323 1263.69 812.694 1289.14 767.58 1269.51 C 732.112 1253.62 718.395 1211.48 709.728 1176.78 C 707.125 1166.36 703.144 1154.36 695.34 1146.6 C 691.475 1142.7 682.785 1136.37 677.774 1141.24 L 678.382 1143.19 L 681.208 1144.26 C 702.785 1153.01 705.061 1179.76 710.821 1200.45 C 666.728 1219.68 634.398 1243.23 600.545 1276.74 C 579.801 1272.11 565.264 1269.38 543.491 1269.09 C 535.968 1269.02 528.257 1269.52 520.726 1269.91 z" fill="rgb(250,103,89)" transform="translate(0,0)"></path>
<path d="M 543.491 1269.09 C 571.646 1218.94 625.496 1161.56 681.208 1144.26 C 702.785 1153.01 705.061 1179.76 710.821 1200.45 C 666.728 1219.68 634.398 1243.23 600.545 1276.74 C 579.801 1272.11 565.264 1269.38 543.491 1269.09 z" fill="rgb(250,156,133)" transform="translate(0,0)"></path>
<path d="M 909.817 1257.68 C 947.431 1286.06 955.801 1355.94 945.503 1398.31 C 938.833 1425.76 922.083 1452.07 889.655 1441.67 C 850.903 1429.24 831.72 1382.5 824.898 1345.96 C 823.729 1339.63 823.162 1321.34 821.342 1317.98 L 818.992 1317.35 L 817.597 1318.39 C 816.376 1322.75 817.599 1327.38 818.313 1332 C 797.858 1330.25 783.062 1332.37 762.769 1334.85 C 746.156 1337.86 735.213 1341.16 719.481 1346.98 C 707.378 1334.84 698.192 1327.72 684.641 1317.66 C 707.598 1298.03 722.327 1286.38 749.943 1272.52 L 750.546 1273.98 C 758.06 1292.16 763.114 1293.96 780.468 1285.76 C 779.092 1292.99 776.978 1300.12 782.056 1306.13 C 796.752 1313.33 816.753 1276.58 834.454 1275.96 C 859.804 1275.08 861.637 1288.03 860.223 1309.69 C 860.067 1312.07 862.2 1313.56 863.787 1314.86 C 887.772 1320.3 904.039 1274.46 909.817 1257.68 z" fill="rgb(250,103,89)" transform="translate(0,0)"></path>
<path d="M 473.18 1586.01 C 469.916 1606.89 472.918 1605.67 488.769 1614.82 C 521.023 1633.46 472.232 1660.33 526.974 1661.9 C 514.879 1677.44 492.752 1700.7 475.653 1709.76 C 474 1710.93 472.295 1712.03 470.541 1713.05 C 435.577 1733.5 388.982 1725.62 367.835 1689.33 C 354.842 1667.03 360.273 1641.45 366.927 1617.99 C 388.43 1611.11 400.22 1612.3 410.993 1633.43 C 408.109 1636.86 403.06 1641.57 403.707 1645.92 L 405.454 1647.09 C 409.676 1644.31 419.992 1631.73 424.441 1627.04 C 431.366 1619.73 438.786 1612.92 446.648 1606.63 C 455.657 1599.2 463.814 1592.96 473.18 1586.01 z" fill="rgb(250,156,133)" transform="translate(0,0)"></path>
<path d="M 473.18 1586.01 C 469.916 1606.89 472.918 1605.67 488.769 1614.82 C 521.023 1633.46 472.232 1660.33 526.974 1661.9 C 514.879 1677.44 492.752 1700.7 475.653 1709.76 C 454.272 1704.42 436.104 1689.51 457.954 1668.82 C 461.31 1665.64 470.625 1662.08 472.875 1657.97 C 483.614 1638.34 469.725 1630.89 454.854 1622.02 C 449.29 1618.67 447.355 1612.27 446.648 1606.63 C 455.657 1599.2 463.814 1592.96 473.18 1586.01 z" fill="rgb(246,224,203)" transform="translate(0,0)"></path>
<path d="M 536.205 1540.13 C 554.589 1538.67 560.033 1542.11 573.582 1553.63 C 566.947 1554.07 540.854 1556.67 543.344 1566.86 C 547.535 1567.63 555.402 1562.51 560.476 1561.29 C 566.583 1559.82 571.026 1559.94 577.185 1559.87 C 584.699 1571.8 585.141 1577.35 585.722 1590.82 C 577.48 1588.74 564.29 1585.51 558.169 1593.76 L 558.559 1595.33 C 565.832 1596.81 569.291 1592.82 582.476 1595.93 L 583.901 1596.27 C 580.711 1611.66 578.118 1619.18 565.403 1628.91 C 555.167 1635.76 547.997 1638.5 536.674 1643.08 L 530.594 1656.18 C 524.012 1655.7 512.196 1657.1 506.449 1652.74 C 500.022 1647.86 508.479 1637.78 505.197 1626.37 C 503.724 1612.64 491.038 1612.98 483.979 1606.78 C 470.951 1595.34 472.898 1579.95 492.232 1579.22 L 493.657 1579.17 C 496.226 1576.71 497.886 1569.3 500.947 1564.79 C 510.714 1550.41 519.884 1544.18 536.205 1540.13 z" fill="rgb(55,93,108)" transform="translate(0,0)"></path>
<path d="M 710.717 1206.97 C 714.274 1207.43 714.656 1212.55 716.163 1216.39 C 724.24 1237.01 732.971 1251.54 749.969 1265.61 C 724.015 1279.91 701.719 1293.21 681.737 1315.55 C 674.287 1310.7 666.101 1306.09 658.403 1301.58 C 641.667 1292.21 624.008 1284.6 605.709 1278.87 C 637.389 1249.21 670.307 1223.88 710.717 1206.97 z" fill="rgb(247,247,246)" transform="translate(0,0)"></path>
<path d="M 418.223 1544.38 C 438.86 1557.53 455.642 1565.21 478.187 1574.26 C 451.834 1594.17 433.353 1609.3 410.993 1633.43 C 400.22 1612.3 388.43 1611.11 366.927 1617.99 C 376.995 1587.48 390.676 1562.37 418.223 1544.38 z" fill="rgb(250,103,89)" transform="translate(0,0)"></path>
<path d="M 671.55 1579.33 C 677.782 1578.53 686.033 1577.61 687.941 1584.46 C 690.332 1593.05 691.549 1600.01 692.327 1608.66 C 692.986 1610.12 696.054 1609.09 696.262 1608.24 C 697.852 1601.7 694.997 1589.42 693.888 1582.6 C 715.195 1593.43 721.546 1606.52 720.306 1630.6 C 715.009 1630.16 711.77 1629.55 706.995 1629.01 C 703.874 1628.63 700.744 1628.34 697.606 1628.13 C 689.907 1632.3 684.743 1636.1 677.461 1640.13 C 656.899 1641.83 666.718 1624.22 634.097 1638.27 C 633.876 1612.79 629.034 1596.09 653.8 1582.73 C 654.46 1590.65 655.803 1599.21 656.254 1607.03 C 656.626 1613.47 663.518 1613.69 662.212 1608.02 C 660.279 1599.62 660.363 1590.09 659.973 1581.43 C 665.281 1580.21 666.05 1580.09 671.55 1579.33 z" fill="rgb(55,93,108)" transform="translate(0,0)"></path>
<path d="M 1407.68 1073.36 C 1415.24 1072.38 1427.52 1073.51 1434.63 1076.08 C 1512.19 1104.14 1484.21 1222.17 1467.05 1276.7 C 1502.28 1281.49 1518.94 1283.95 1551.65 1299.8 C 1554.17 1295.09 1556.76 1290.42 1559.42 1285.79 C 1582.18 1246.28 1621.99 1207.08 1667.06 1194.65 C 1722.08 1179.49 1762.59 1209.48 1774.76 1263.47 C 1782.64 1298.41 1783.73 1341.43 1765.09 1373.83 C 1748.91 1401.59 1715.74 1409.48 1688.88 1392.11 C 1664.12 1376.11 1655.21 1351.36 1649.4 1324.11 C 1636.59 1331.96 1629.02 1338.54 1617.84 1348.32 C 1656.04 1393.89 1673.21 1440.53 1670.52 1500.7 C 1697.57 1501.08 1697.92 1512.17 1692.63 1534.16 C 1691.78 1537.67 1694.6 1544.65 1692.79 1549.56 C 1688.76 1560.56 1680.97 1568 1673.14 1576.29 C 1645.02 1607.91 1595.81 1614.46 1555.87 1619.14 C 1581.94 1634.74 1607.27 1652.36 1629.28 1673.33 C 1657.58 1700.3 1705.5 1750.68 1667.36 1789.25 C 1653.26 1803.51 1636.35 1810.47 1616.5 1811.02 C 1626.37 1841.68 1637.39 1871.36 1640.45 1903.5 C 1649.8 1906.07 1652.18 1910.56 1659 1914.43 C 1667.46 1919.23 1678.9 1947.18 1669.79 1952.51 C 1653.24 1962.18 1620.09 1963.76 1600.73 1964.19 C 1564.99 1964.09 1507.88 1960.77 1480.27 1936.44 C 1474.55 1931.45 1470.02 1925.24 1467 1918.27 C 1455.67 1892.79 1448.98 1824.17 1446.94 1795.92 L 1435.45 1795.8 C 1428.37 1828.8 1423.57 1861.77 1412.83 1894.48 C 1405.98 1915.32 1398.87 1935.18 1376.05 1945.71 C 1323.33 1968.3 1255.27 1967.7 1199.92 1954.68 C 1188.28 1951.94 1193.39 1935.27 1196.94 1927.75 C 1204.65 1911.4 1215.22 1905.97 1231.52 1900.44 C 1233.84 1850.81 1267.19 1795.69 1288.32 1748.63 C 1275.73 1741.72 1266.63 1736.28 1258.26 1724.09 C 1248.98 1710.67 1245.5 1694.09 1248.59 1678.08 C 1255.29 1642.69 1298.55 1598.65 1327.41 1579.03 C 1315.63 1573.24 1304.08 1567.01 1292.78 1560.35 C 1260.25 1540.89 1231.14 1518.08 1216.96 1480.97 C 1215.29 1476.59 1218.02 1471.43 1215.93 1464.24 C 1213.29 1453.79 1211.03 1447.34 1213.14 1436.54 C 1214.76 1428.33 1221.99 1426.79 1222.25 1425.35 C 1223.94 1416.15 1225.43 1398.71 1236.52 1396.14 C 1241.51 1394.98 1249.88 1400.54 1253.51 1403.45 C 1274.06 1352.45 1328.37 1304.76 1380.3 1287.82 C 1378.41 1276.26 1377.99 1250.45 1377.46 1237.73 C 1328.51 1265.66 1277.18 1239.78 1293.33 1179.65 C 1306.79 1129.54 1354.92 1079.66 1407.68 1073.36 z" fill="rgb(8,9,20)" transform="translate(0,0)"></path>
<path d="M 1404.85 1287.04 C 1471.24 1271.97 1553.73 1292.56 1602.79 1340.79 C 1642.86 1377.65 1662.55 1427.84 1664.68 1481.63 C 1664.94 1489.92 1664.8 1498.22 1664.25 1506.5 C 1674.71 1505 1688.36 1504.49 1691.23 1517.74 C 1693.48 1528.16 1683.83 1532.11 1681.95 1537.5 C 1684.37 1539.07 1685.51 1539.11 1688.32 1539.78 C 1689.64 1545.25 1685.1 1553.13 1683.12 1557.51 C 1679.02 1566.56 1663.73 1569.54 1660.82 1574.38 L 1661.97 1579.09 C 1652.48 1590.17 1629.24 1598.71 1615.85 1603.36 C 1607.13 1605.6 1598.33 1607.52 1589.46 1609.11 C 1514.1 1622.49 1413.9 1609.2 1343.21 1579.82 C 1317.63 1568.9 1293.25 1555.35 1270.47 1539.38 C 1257.72 1530.01 1219.42 1492.76 1223.22 1475.91 L 1226.83 1475.35 C 1227.29 1466.89 1210.83 1452.49 1219.22 1435.06 C 1222.32 1433.25 1221.39 1433.85 1226.01 1434.76 C 1232.01 1431.31 1220.87 1383.9 1254.77 1412.01 C 1286.56 1344.71 1332.75 1305.06 1404.85 1287.04 z" fill="rgb(250,103,89)" transform="translate(0,0)"></path>
<path d="M 1404.85 1287.04 C 1471.24 1271.97 1553.73 1292.56 1602.79 1340.79 C 1594.62 1356.55 1572.31 1349.68 1560.44 1351.03 C 1532.88 1354.17 1528.73 1392.28 1496.3 1392.77 C 1458.76 1393.34 1463.74 1358 1446.26 1340.21 C 1424.26 1317.83 1404.82 1328.05 1404.85 1287.04 z" fill="rgb(246,224,203)" transform="translate(0,0)"></path>
<path d="M 1270.47 1539.38 C 1257.72 1530.01 1219.42 1492.76 1223.22 1475.91 L 1226.83 1475.35 C 1227.29 1466.89 1210.83 1452.49 1219.22 1435.06 C 1222.32 1433.25 1221.39 1433.85 1226.01 1434.76 C 1232.01 1431.31 1220.87 1383.9 1254.77 1412.01 C 1256.3 1416.29 1266.55 1426.53 1270.22 1429.58 C 1307.51 1460.56 1310.87 1508.97 1270.47 1539.38 z" fill="rgb(251,159,92)" transform="translate(0,0)"></path>
<path d="M 1615.85 1603.36 C 1565.77 1550.27 1643.19 1486.76 1663.54 1500.03 L 1664.25 1506.5 C 1674.71 1505 1688.36 1504.49 1691.23 1517.74 C 1693.48 1528.16 1683.83 1532.11 1681.95 1537.5 C 1684.37 1539.07 1685.51 1539.11 1688.32 1539.78 C 1689.64 1545.25 1685.1 1553.13 1683.12 1557.51 C 1679.02 1566.56 1663.73 1569.54 1660.82 1574.38 L 1661.97 1579.09 C 1652.48 1590.17 1629.24 1598.71 1615.85 1603.36 z" fill="rgb(251,159,92)" transform="translate(0,0)"></path>
<path d="M 1378.44 1393.09 C 1403.69 1392.1 1409.01 1414.44 1401.94 1434.5 C 1395.74 1452.1 1394.48 1464.52 1374.89 1471.05 C 1369.61 1471.14 1367.29 1471.43 1362.45 1469.12 C 1356.54 1466.26 1351.98 1461.2 1349.76 1455.02 C 1346.56 1445.94 1349.43 1437.59 1352.32 1429.01 C 1358.05 1412.02 1359.93 1399.49 1378.44 1393.09 z" fill="rgb(8,9,20)" transform="translate(0,0)"></path>
<path d="M 1547.46 1440.15 C 1561.32 1439.42 1568.17 1441.52 1572.79 1456.01 C 1576.39 1467.32 1571.99 1476.21 1569.17 1487.02 C 1565.12 1502.58 1562.62 1512.08 1545.49 1516.93 C 1523.41 1517.24 1514.89 1499.3 1521.33 1480.01 C 1527.36 1461.9 1526.95 1446.74 1547.46 1440.15 z" fill="rgb(8,9,20)" transform="translate(0,0)"></path>
<path d="M 1443.08 1459.07 C 1453.43 1458.68 1453.68 1459.41 1460.27 1467.76 C 1467.17 1466 1476.9 1462.41 1481.52 1469.84 C 1488.39 1480.87 1478.6 1489.19 1470.74 1494.16 C 1462.1 1498.12 1460.52 1498.64 1451.5 1501.15 C 1445.84 1495.28 1441.13 1488.95 1436.91 1481.99 C 1430.16 1470.87 1433.6 1465.07 1443.08 1459.07 z" fill="rgb(246,224,203)" transform="translate(0,0)"></path>
<path d="M 1367.54 1355.37 C 1375.49 1356.74 1375.24 1358.64 1382.49 1362.05 C 1389.11 1365.17 1398.28 1367.88 1405.5 1368.91 L 1411.52 1369.8 C 1419.53 1371 1423.11 1372.55 1417.56 1379.6 C 1408.85 1381.56 1397.61 1380.69 1389.49 1377.18 C 1379.27 1372.77 1361.83 1369.05 1367.54 1355.37 z" fill="rgb(8,9,20)" transform="translate(0,0)"></path>
<path d="M 1438.73 1523.09 C 1449.58 1522.52 1454.49 1522.73 1463.61 1530.39 C 1466.64 1532.93 1479.51 1550.67 1466.96 1551.05 C 1465.62 1551.09 1460.75 1542.93 1459.27 1540.89 C 1442.08 1524.42 1429.39 1540.67 1425.61 1538.84 C 1414.63 1533.49 1430.72 1525.39 1438.73 1523.09 z" fill="rgb(8,9,20)" transform="translate(0,0)"></path>
<path d="M 1536.83 1401.48 C 1544.03 1402.17 1546.93 1405.61 1553.57 1408.8 C 1556.94 1411.01 1563.83 1411.92 1567.01 1413.68 C 1573.01 1416.99 1592.54 1414.19 1586.75 1425.3 C 1568.85 1427.53 1548.23 1421.85 1535.23 1408.39 C 1534.06 1407.18 1536.43 1402.48 1536.83 1401.48 z" fill="rgb(8,9,20)" transform="translate(0,0)"></path>
<path d="M 1320.67 1591.31 C 1326.35 1592.57 1332.53 1594.17 1338.23 1595.08 C 1354.61 1597.69 1368.5 1605.64 1383.6 1612.24 C 1402.08 1620.38 1421.62 1625.84 1441.64 1628.44 C 1454.92 1630.1 1468.35 1630.12 1481.64 1628.5 C 1506.86 1625.36 1504.76 1621.12 1532.72 1625.32 C 1552.72 1662.23 1569.55 1707.32 1585.95 1746.38 C 1591.41 1759.38 1597.53 1778.66 1603.11 1790.6 C 1612.9 1817.61 1626.28 1856.28 1632.67 1883.86 C 1634.48 1890.25 1634.95 1895.44 1635.25 1902.05 C 1629.85 1901.99 1620.19 1900.96 1616.45 1904.58 C 1616.59 1907.2 1616.02 1906.14 1617.95 1907.93 C 1633.02 1909.14 1641.49 1903.71 1656.29 1920.86 C 1660.09 1925.26 1667.97 1938.06 1668.24 1943.53 C 1665.8 1952.64 1648.54 1953.84 1640.22 1955.61 C 1639.73 1944.81 1635.87 1930.21 1623.7 1927.77 L 1621.98 1928.3 C 1623.63 1935.83 1638.81 1945.61 1635.4 1955.12 C 1619.26 1964.57 1542.79 1956.19 1522.65 1950.5 C 1485.31 1939.95 1471.29 1929.06 1464.95 1890.59 C 1463.07 1882.55 1461.8 1874.84 1460.42 1866.72 C 1456.93 1854.85 1454.22 1815.54 1452.94 1801.29 C 1452.72 1798.86 1456.56 1793.43 1455.82 1790.82 C 1452.49 1790.18 1426.75 1789.85 1422.52 1790.19 C 1420.15 1791.83 1420.85 1790.75 1420.25 1793.47 L 1421.48 1794.95 C 1424.62 1795.07 1425.44 1794.94 1428.48 1795.85 C 1430.29 1800.99 1425.1 1821.47 1423.76 1827.83 C 1421.26 1825.5 1413.1 1822.45 1409.68 1819.89 C 1401.52 1813.81 1399.35 1802.19 1397.43 1792.98 C 1394.22 1777.65 1384.32 1769.9 1371.96 1762.08 C 1402.62 1760.7 1434.71 1755.84 1451.67 1727.46 C 1474.63 1689.06 1460.02 1642.05 1406.82 1659.07 C 1402.62 1643.89 1392.41 1644.79 1378.48 1644.68 C 1371.83 1644.62 1365.05 1644.69 1358.4 1644.66 C 1359.94 1639.42 1363.27 1631.53 1360.24 1626.65 C 1355.77 1629.22 1355.1 1639.73 1354.36 1644.6 C 1346.41 1645.07 1324.92 1646.67 1318.78 1650.93 C 1299.44 1641.98 1303.08 1697.01 1252.61 1684.6 C 1257.14 1653.6 1291.56 1612.87 1315.44 1594.93 C 1317.14 1593.66 1318.88 1592.45 1320.67 1591.31 z" fill="rgb(250,103,89)" transform="translate(0,0)"></path>
<path d="M 1464.95 1890.59 C 1480.11 1897.99 1484.38 1893.58 1497.02 1884.42 C 1520.53 1869.47 1522.02 1897.12 1543.77 1902.05 C 1568.23 1907.59 1579.75 1872.89 1597.86 1877.86 C 1612.53 1881.88 1614.03 1896.95 1632.67 1883.86 C 1634.48 1890.25 1634.95 1895.44 1635.25 1902.05 C 1629.85 1901.99 1620.19 1900.96 1616.45 1904.58 C 1616.59 1907.2 1616.02 1906.14 1617.95 1907.93 C 1633.02 1909.14 1641.49 1903.71 1656.29 1920.86 C 1660.09 1925.26 1667.97 1938.06 1668.24 1943.53 C 1665.8 1952.64 1648.54 1953.84 1640.22 1955.61 C 1639.73 1944.81 1635.87 1930.21 1623.7 1927.77 L 1621.98 1928.3 C 1623.63 1935.83 1638.81 1945.61 1635.4 1955.12 C 1619.26 1964.57 1542.79 1956.19 1522.65 1950.5 C 1485.31 1939.95 1471.29 1929.06 1464.95 1890.59 z" fill="rgb(55,93,108)" transform="translate(0,0)"></path>
<path d="M 1481.94 1866.95 C 1495.32 1860.31 1505.13 1851.03 1520.89 1855.06 C 1529.28 1857.21 1546.19 1865.93 1554.18 1864.18 C 1599.71 1854.21 1549.14 1791.63 1603.11 1790.6 C 1612.9 1817.61 1626.28 1856.28 1632.67 1883.86 C 1614.03 1896.95 1612.53 1881.88 1597.86 1877.86 C 1579.75 1872.89 1568.23 1907.59 1543.77 1902.05 C 1522.02 1897.12 1520.53 1869.47 1497.02 1884.42 C 1484.38 1893.58 1480.11 1897.99 1464.95 1890.59 C 1463.07 1882.55 1461.8 1874.84 1460.42 1866.72 L 1461.25 1865.86 C 1464.53 1864.58 1477.31 1866.51 1481.94 1866.95 z" fill="rgb(251,159,92)" transform="translate(0,0)"></path>
<path d="M 1294.25 1750.92 C 1320.68 1760.48 1344.43 1761.27 1371.96 1762.08 C 1384.32 1769.9 1394.22 1777.65 1397.43 1792.98 C 1399.35 1802.19 1401.52 1813.81 1409.68 1819.89 C 1413.1 1822.45 1421.26 1825.5 1423.76 1827.83 C 1421.94 1836.42 1417.95 1852.72 1416.81 1860.83 C 1413.23 1875.16 1409.94 1885.98 1405.52 1900.04 C 1403 1912.67 1394.77 1926.82 1384.6 1934.32 C 1349.42 1960.25 1274.69 1961.14 1233.09 1956.15 C 1233.65 1952.2 1235.33 1941.98 1237.18 1938.43 C 1239.66 1933.66 1245.7 1932.01 1246.41 1926.28 C 1245.63 1925.72 1244.86 1925.16 1244.09 1924.6 C 1232.81 1928.47 1229.19 1944.99 1228.1 1955.32 C 1217.99 1953.26 1206.94 1951.31 1197.17 1948.24 C 1198.98 1932 1207 1917.49 1221.98 1910.15 C 1233.23 1904.65 1238.79 1906.6 1250.05 1907.76 C 1252.44 1906.25 1251.53 1907.22 1252.51 1904.53 L 1251.31 1902.73 C 1246.85 1900.73 1243.01 1901.01 1238.07 1900.79 C 1237.97 1893.26 1238.07 1888.75 1238.78 1881.27 C 1241.81 1864.27 1245.3 1853.34 1252.63 1837.81 C 1266.99 1809.95 1279.82 1779.42 1294.25 1750.92 z" fill="rgb(250,156,133)" transform="translate(0,0)"></path>
<path d="M 1238.78 1881.27 C 1264.71 1900.67 1276.96 1859.72 1298.11 1874.48 C 1310.53 1883.14 1309.72 1905.39 1337.75 1900.22 C 1353.42 1897.33 1367.84 1879.33 1383.46 1891.45 C 1392.42 1897.78 1394.73 1900.28 1405.52 1900.04 C 1403 1912.67 1394.77 1926.82 1384.6 1934.32 C 1349.42 1960.25 1274.69 1961.14 1233.09 1956.15 C 1233.65 1952.2 1235.33 1941.98 1237.18 1938.43 C 1239.66 1933.66 1245.7 1932.01 1246.41 1926.28 C 1245.63 1925.72 1244.86 1925.16 1244.09 1924.6 C 1232.81 1928.47 1229.19 1944.99 1228.1 1955.32 C 1217.99 1953.26 1206.94 1951.31 1197.17 1948.24 C 1198.98 1932 1207 1917.49 1221.98 1910.15 C 1233.23 1904.65 1238.79 1906.6 1250.05 1907.76 C 1252.44 1906.25 1251.53 1907.22 1252.51 1904.53 L 1251.31 1902.73 C 1246.85 1900.73 1243.01 1901.01 1238.07 1900.79 C 1237.97 1893.26 1238.07 1888.75 1238.78 1881.27 z" fill="rgb(55,93,108)" transform="translate(0,0)"></path>
<path d="M 1252.63 1837.81 C 1287.15 1863.73 1296.02 1808.22 1330.76 1827.98 C 1345.13 1836.16 1346.68 1871.68 1372.17 1867.24 C 1390.24 1863.33 1393.7 1851.56 1416.81 1860.83 C 1413.23 1875.16 1409.94 1885.98 1405.52 1900.04 C 1394.73 1900.28 1392.42 1897.78 1383.46 1891.45 C 1367.84 1879.33 1353.42 1897.33 1337.75 1900.22 C 1309.72 1905.39 1310.53 1883.14 1298.11 1874.48 C 1276.96 1859.72 1264.71 1900.67 1238.78 1881.27 C 1241.81 1864.27 1245.3 1853.34 1252.63 1837.81 z" fill="rgb(246,224,203)" transform="translate(0,0)"></path>
<path d="M 1682.66 1197.27 C 1737.54 1191.74 1765.06 1228.08 1772.5 1279.2 C 1778.18 1318.14 1774.42 1387.4 1724.69 1395.87 C 1712.44 1397.95 1696.46 1391.77 1686.83 1383.9 C 1662.66 1363.93 1656.47 1337.27 1653.13 1307.49 C 1652.69 1294.95 1655.7 1230.2 1636.52 1230.8 L 1635.8 1232.88 C 1636.4 1236.44 1638.17 1237.76 1640.6 1240.43 L 1641.64 1241.55 C 1605.29 1257.87 1592.37 1277.56 1568 1308.25 C 1564.09 1306.54 1559.71 1304.1 1555.88 1302.09 C 1587.08 1251.79 1620.42 1208.31 1682.66 1197.27 z" fill="rgb(250,103,89)" transform="translate(0,0)"></path>
<path d="M 1357.87 1099.19 C 1376.59 1086.16 1403.32 1074.38 1426.26 1079.86 C 1507.65 1099.31 1478.14 1222.71 1461.55 1276.7 L 1448.88 1276.06 C 1456.61 1243.06 1463.76 1209.14 1459.08 1175.12 C 1458.09 1167.85 1456.34 1153.96 1448.74 1151.04 C 1443.56 1157.22 1439.55 1164.65 1434.91 1171.23 C 1427.83 1181.27 1418.12 1194.54 1409.53 1203.18 C 1396.59 1220.14 1369.68 1238.58 1348.24 1242.64 C 1323.7 1247.3 1299.57 1235.47 1296.58 1208.64 C 1293.44 1180.45 1306.89 1153.88 1323.68 1132.03 C 1330.54 1121.62 1347.56 1105.97 1357.87 1099.19 z" fill="rgb(246,224,203)" transform="translate(0,0)"></path>
<path d="M 1357.87 1099.19 C 1376.59 1086.16 1403.32 1074.38 1426.26 1079.86 C 1507.65 1099.31 1478.14 1222.71 1461.55 1276.7 L 1448.88 1276.06 C 1456.61 1243.06 1463.76 1209.14 1459.08 1175.12 C 1458.09 1167.85 1456.34 1153.96 1448.74 1151.04 C 1443.56 1157.22 1439.55 1164.65 1434.91 1171.23 C 1427.83 1181.27 1418.12 1194.54 1409.53 1203.18 C 1411.43 1187.86 1411.16 1178.25 1396.81 1169.88 C 1403.49 1139.48 1395.13 1100.74 1357.87 1099.19 z" fill="rgb(250,103,89)" transform="translate(0,0)"></path>
<path d="M 1357.87 1099.19 C 1395.13 1100.74 1403.49 1139.48 1396.81 1169.88 C 1371.83 1163.97 1328.44 1188.49 1325.63 1140.5 C 1325.45 1137.31 1325.12 1134.82 1323.68 1132.03 C 1330.54 1121.62 1347.56 1105.97 1357.87 1099.19 z" fill="rgb(250,156,133)" transform="translate(0,0)"></path>
<path d="M 1252.61 1684.6 C 1303.08 1697.01 1299.44 1641.98 1318.78 1650.93 C 1325.56 1655.43 1356.02 1648.78 1371.29 1650.82 L 1389.98 1651.29 C 1376.71 1675.05 1397.81 1673.02 1390.79 1693.12 C 1387.81 1701.69 1367.21 1707.62 1372.58 1721.8 C 1377.34 1738.02 1392.98 1738.46 1380.72 1756.63 C 1364.58 1757.08 1351.79 1756.23 1335.63 1754.69 C 1293.05 1749.39 1252.44 1734.4 1252.61 1684.6 z" fill="rgb(250,156,133)" transform="translate(0,0)"></path>
<path d="M 1371.29 1650.82 L 1389.98 1651.29 C 1376.71 1675.05 1397.81 1673.02 1390.79 1693.12 C 1387.81 1701.69 1367.21 1707.62 1372.58 1721.8 C 1377.34 1738.02 1392.98 1738.46 1380.72 1756.63 C 1364.58 1757.08 1351.79 1756.23 1335.63 1754.69 C 1359.04 1722.82 1330.77 1728.48 1328.57 1703.88 C 1326.69 1682.81 1356.24 1680.28 1367.85 1672.49 C 1376.52 1666.66 1360.22 1654.21 1356.44 1651.18 C 1361.45 1651.19 1366.29 1651 1371.29 1650.82 z" fill="rgb(246,224,203)" transform="translate(0,0)"></path>
<path d="M 1586.09 1731.88 C 1571.68 1703.27 1561.75 1668.54 1545.84 1640.12 C 1543.28 1635.55 1539.02 1626.42 1538.09 1621.46 L 1539.12 1620.26 C 1539.76 1620.22 1540.41 1620.15 1541.05 1620.13 C 1558.58 1619.33 1614.53 1667.09 1628.93 1680.52 C 1633.25 1684.99 1651.39 1702.56 1652.7 1708.47 C 1654.17 1715.1 1631.1 1712.34 1628.92 1719 C 1624.53 1728.95 1624.14 1732.64 1616.88 1740.53 C 1604.44 1741.68 1602.21 1740.54 1593.61 1749.94 C 1591.4 1744.41 1588.48 1737.35 1586.09 1731.88 z" fill="rgb(250,103,89)" transform="translate(0,0)"></path>
<path d="M 1628.93 1680.52 C 1633.25 1684.99 1651.39 1702.56 1652.7 1708.47 C 1654.17 1715.1 1631.1 1712.34 1628.92 1719 C 1624.53 1728.95 1624.14 1732.64 1616.88 1740.53 C 1604.44 1741.68 1602.21 1740.54 1593.61 1749.94 C 1591.4 1744.41 1588.48 1737.35 1586.09 1731.88 C 1608.97 1722.98 1584.85 1713.94 1595.41 1698.64 C 1600.26 1691.63 1612.27 1692.66 1619.45 1690.77 C 1624.3 1689.5 1626.48 1684.43 1628.93 1680.52 z" fill="rgb(246,224,203)" transform="translate(0,0)"></path>
<path d="M 1375.42 1715.06 C 1384.67 1705.55 1393.12 1703.57 1396.42 1691.18 C 1399.36 1680.09 1396.75 1676.44 1390.22 1667.97 C 1389.13 1665.9 1389.49 1663.62 1390.34 1661.62 C 1396.72 1646.48 1399 1653.77 1402.76 1665.7 C 1406.32 1664.46 1409.9 1663.29 1413.51 1662.2 C 1423.98 1659.03 1435.43 1659.76 1445.24 1664.67 C 1452.31 1668.22 1453.95 1678.94 1456.02 1685.63 C 1456.88 1688.22 1457.84 1692.21 1456.77 1694.83 C 1455.21 1703.94 1454.29 1709.54 1449.76 1717.74 L 1448.87 1719.37 C 1448.42 1719.52 1447.97 1719.67 1447.52 1719.81 C 1443.87 1722.54 1423.1 1722.55 1422.2 1723.56 C 1416.22 1730.23 1443.96 1726.87 1445.47 1726.8 C 1428.81 1747.04 1415.06 1752.37 1389.43 1755.75 C 1395.48 1731.26 1383.54 1740.02 1377.14 1720.49 L 1375.42 1715.06 z" fill="rgb(55,93,108)" transform="translate(0,0)"></path>
<path d="M 1456.02 1685.63 C 1456.88 1688.22 1457.84 1692.21 1456.77 1694.83 C 1454.75 1686.86 1451.01 1694.61 1442.97 1694.79 C 1442.24 1694.81 1429.55 1697.68 1429.72 1697.59 C 1424.23 1700.45 1421.17 1692.15 1426.95 1692 C 1437.36 1691.73 1446.3 1687.85 1456.02 1685.63 z" fill="rgb(8,9,20)" transform="translate(0,0)"></path>
<path d="M 1657.2 1712.73 C 1663.23 1714.75 1673.75 1738.16 1674.88 1744.51 C 1677.67 1760.17 1676.98 1767.19 1668.35 1780.24 C 1667.52 1775.67 1666.51 1762.02 1660.5 1760.92 C 1656.93 1760.27 1663.48 1781.38 1664.17 1784.85 C 1656.33 1792.6 1650.77 1796.34 1640.54 1800.85 C 1640.97 1790.41 1641.97 1777.17 1633.01 1770.01 L 1632.83 1770.43 C 1630.28 1776.36 1634.64 1780.88 1634.89 1788.5 C 1635.09 1794.63 1634.92 1797.52 1634.29 1803.64 C 1625.56 1805.11 1622.63 1805.12 1613.65 1804.54 L 1596.38 1757.38 C 1603.36 1744.15 1602.3 1748.11 1615.93 1745.63 C 1627.46 1743.53 1629.43 1728.45 1635.18 1719.04 C 1648.52 1718.94 1648.1 1720.99 1657.2 1712.73 z" fill="rgb(55,93,108)" transform="translate(0,0)"></path>
<path d="M 1437.42 1177.83 C 1445.15 1182.71 1450.96 1186.3 1452.85 1196.01 C 1455.77 1211 1452.89 1230.28 1450.28 1245.27 C 1448.7 1255.86 1445.94 1266.03 1443.42 1276.4 C 1429.76 1277.56 1417.97 1279.16 1404.43 1281.46 C 1404.16 1270.88 1404.19 1250.11 1405.82 1239.8 C 1406.03 1231.42 1406.13 1223.04 1406.12 1214.66 C 1418.23 1202.93 1426.58 1190.16 1437.42 1177.83 z" fill="rgb(250,156,133)" transform="translate(0,0)"></path>
<path d="M 1425 1229.42 C 1436.71 1232.37 1440.77 1232.06 1447.63 1241.67 C 1448.51 1242.88 1449.39 1244.08 1450.28 1245.27 C 1448.7 1255.86 1445.94 1266.03 1443.42 1276.4 C 1429.76 1277.56 1417.97 1279.16 1404.43 1281.46 C 1404.16 1270.88 1404.19 1250.11 1405.82 1239.8 C 1415.1 1233.17 1414.03 1233.3 1425 1229.42 z" fill="rgb(246,224,203)" transform="translate(0,0)"></path>
<path d="M 1593.69 1284.91 C 1610.23 1266.75 1621.06 1255.93 1644.52 1247.07 C 1647.23 1262.53 1646.92 1273.58 1646.94 1289.16 C 1641.87 1293.65 1636.37 1298.21 1631.54 1302.82 C 1620.88 1312.68 1611.58 1322.41 1600.44 1331.64 C 1590.44 1323.33 1583.22 1318.3 1572.68 1310.96 C 1579.83 1302.32 1586.07 1293.12 1593.69 1284.91 z" fill="rgb(246,224,203)" transform="translate(0,0)"></path>
<path d="M 1593.69 1284.91 C 1610.23 1266.75 1621.06 1255.93 1644.52 1247.07 C 1647.23 1262.53 1646.92 1273.58 1646.94 1289.16 C 1641.87 1293.65 1636.37 1298.21 1631.54 1302.82 C 1620.14 1285.33 1614.7 1283.33 1593.69 1284.91 z" fill="rgb(250,156,133)" transform="translate(0,0)"></path>
<path d="M 1399.8 1221.03 C 1400.91 1222.23 1399.13 1275 1399.13 1282.42 C 1394.45 1283.41 1389.83 1284.66 1385.28 1286.17 C 1384.41 1269.67 1383.08 1249.99 1382.92 1233.86 C 1388.93 1229.4 1393.87 1225.72 1399.8 1221.03 z" fill="rgb(250,103,89)" transform="translate(0,0)"></path>
<path d="M 1645.7 1297.91 C 1647.33 1299.47 1647.79 1313.24 1648.26 1317.47 C 1635.89 1325.44 1625.06 1334.72 1613.51 1343.27 C 1613.12 1343.55 1611.44 1341.74 1611.34 1341.64 L 1604.81 1335.2 C 1617.79 1322.08 1631.44 1309.63 1645.7 1297.91 z" fill="rgb(250,103,89)" transform="translate(0,0)"></path>
<path d="M 1710.86 293.888 C 1722.42 297.581 1695.18 308.358 1692.36 309.988 L 1689.4 311.728 C 1680.37 311.798 1692.95 302.581 1695.11 301.528 C 1700.81 298.749 1704.77 296.144 1710.86 293.888 z" fill="rgb(8,9,20)" transform="translate(0,0)"></path>
<path d="M 1673.15 265.547 L 1673.44 265.707 C 1674.38 266.218 1677.19 267.588 1677.05 268.629 C 1676.33 273.794 1668.75 292.128 1666.82 296.78 C 1659.5 294.082 1664.33 289.86 1666.52 282.67 C 1668.14 277.338 1671.07 270.839 1673.15 265.547 z" fill="rgb(8,9,20)" transform="translate(0,0)"></path>
<path d="M 1215.48 393.24 C 1218.53 392.742 1223.83 392.091 1221.96 397.055 C 1220.91 399.853 1204.96 401.753 1202.19 402.281 C 1194.32 404.418 1190.69 398.128 1205.52 395.192 L 1215.48 393.24 z" fill="rgb(8,9,20)" transform="translate(0,0)"></path>
<path d="M 1203.13 349.977 C 1206.91 351.117 1225.13 357.968 1227.86 361.497 C 1228.51 362.333 1227.73 364.867 1227.52 365.773 C 1220.51 363.142 1213.43 360.7 1206.61 357.59 C 1201.75 355.374 1200.9 354.581 1203.13 349.977 z" fill="rgb(8,9,20)" transform="translate(0,0)"></path>
<metadata><recraft-signature>{"signed_by": "recraft", "signature_b64": "fQxhudIb5qlNqZkg25WSGFNWApZjAJdmHcPnQLMAAnubbt6Jf4mee7o5DYKs4A1caSmPWU1MxKC2Y8Io3WZNAA==", "signing_algo": "Ed25519", "generation_timestamp": 1774453072, "identifier": "ad6db4e7-08ff-4021-9135-72756b498dff"}</recraft-signature></metadata></svg>