<?xml version="1.0" encoding="utf-8" ?><svg xmlns="http://www.w3.org/2000/svg" xmlns:xlink="http://www.w3.org/1999/xlink" width="303" height="371" viewBox="0 0 303 371"><defs><linearGradient id="gradient_0" gradientUnits="userSpaceOnUse" x1="127.89781" y1="364.25418" x2="155.28847" y2="12.446168"><stop offset="0" stop-color="#BB252B"/><stop offset="1" stop-color="#FF6F67"/></linearGradient></defs><path fill="url(#gradient_0)" d="M58.3668 132.347C51.0118 128.042 41.4945 119.565 35.6205 113.266C17.0949 93.0145 3.48769 68.568 0.911187 40.9921C-3.21381 -3.15692 37.2107 -6.81626 64.8016 17.2971C84.2395 34.2851 95.7576 54.8931 104.298 79.0925C106.659 85.783 108.838 91.1853 109.394 98.3915C110.905 97.674 112.267 97.1843 113.848 96.6357C133.205 89.9164 153.91 87.7415 174.19 90.8684C178.275 91.4983 182.246 92.4194 186.315 93.043C189.206 77.2204 205.499 57.636 220.372 51.4041C235.646 45.004 256.092 47.4284 270.957 53.7836C290.661 62.2073 310.184 75.855 299.816 99.7471C292.184 117.993 278.368 127.887 258.402 120.652C255.337 119.541 252.45 117.893 249.426 116.651C247.527 119.172 245.408 121.365 243.259 123.669C271.401 148.008 289.389 197.085 264.557 229.557C262.465 232.302 260.08 234.81 257.444 237.037C248.452 244.603 228.342 255.644 216.73 257.172C227.041 263.815 233.27 278.428 237.001 289.589C243.018 290.147 249.199 294.497 252.997 299.057C258.221 305.405 260.714 313.565 259.931 321.749C258.746 334.417 249.339 344.788 236.169 346.329C233.575 346.633 230.152 346.835 228.067 345.04C228.042 345.849 229.553 350.911 229.924 351.954C229.996 356.598 228.798 357.601 224.766 359.817C212.022 364.937 184.91 365.628 172.433 360.307C172.278 360.24 172.123 360.173 171.968 360.105C171.763 359.921 171.329 359.705 171.093 359.559C164.951 355.75 165.308 354.119 163.827 348.472L163.792 348.34C163.736 347.035 163.959 346.983 163.284 346.187C162.157 345.646 151.417 346.098 150.553 346.974C150.456 347.893 150.81 348.606 151.04 349.526C151.68 352.078 151.011 354.69 149.82 356.965C148.932 357.942 147.565 359.155 146.463 359.871C133.008 366.062 110.706 364.155 96.4487 360.842C89.9626 358.615 88.0336 354.854 88.9519 348.379C90.3275 343.64 89.7176 342.109 89.0459 337.302C88.3148 332.07 87.5551 326.502 88.2125 321.244C73.169 317.194 71.3013 302.285 75.3236 289.378C78.0151 280.742 82.7619 272.361 88.7153 265.584C90.5409 263.506 92.3181 261.238 94.8251 259.948C76.5269 255.821 54.282 247.848 43.3041 232.028C25.103 205.798 30.6552 168.72 48.3918 143.735C51.5387 139.302 53.8658 135.545 58.3668 132.347Z"/><defs><linearGradient id="gradient_1" gradientUnits="userSpaceOnUse" x1="219.65709" y1="331.04254" x2="257.47476" y2="306.43799"><stop offset="0" stop-color="#E8876F"/><stop offset="1" stop-color="#FCAE90"/></linearGradient></defs><path fill="url(#gradient_1)" d="M237.001 289.589C243.018 290.147 249.199 294.497 252.997 299.057C258.221 305.405 260.714 313.565 259.931 321.749C258.746 334.417 249.339 344.788 236.169 346.329C233.575 346.633 230.152 346.835 228.067 345.04C227.088 343.35 230.664 327.909 230.778 324.576C230.858 322.252 230.009 316.184 231.514 314.945C237.819 306.866 238.991 301.477 237.359 291.452C237.118 290.799 237.088 290.275 237.001 289.589Z"/><path fill="#FECCAF" d="M237.359 291.452L237.652 290.901C237.851 291.425 237.854 291.583 237.921 292.121L238.098 291.419C239.02 291.892 238.806 292.679 239.813 293.494C241.776 295.082 243.792 296.481 245.623 298.228C253.797 306.027 259.593 324.271 244.531 328.425C237.971 325.72 237.855 320.55 233.36 315.931C232.828 315.385 232.07 315.287 231.514 314.945C237.819 306.866 238.991 301.477 237.359 291.452Z"/><path fill="#FB7469" d="M46.275 216.745C40.314 201.617 39.9055 184.363 43.2382 168.559C44.0153 164.874 44.9053 160.993 46.4083 157.524C48.0592 153.714 50.5521 150.218 52.9084 146.815C63.7846 131.105 76.6472 120.127 93.1237 110.668C97.8777 107.939 102.739 105.276 107.848 103.27C112.575 101.414 117.82 100.224 122.74 98.9712C127.344 97.7991 132.055 96.4426 136.747 95.6881C154.468 92.8381 176.629 94.016 193.871 98.8487C198.792 100.228 203.714 102.172 208.395 104.231C231.86 114.552 252.749 137.199 261.974 161.058C268.18 177.109 270.53 197.217 263.394 213.375C262.316 215.815 260.957 218.314 258.772 219.922C255.882 225.003 252.126 229.54 247.674 233.328C237.158 242.319 216.04 251.186 202.754 254.499C194.587 256.535 178.801 259.728 170.454 260.304C164.184 260.618 157.909 260.825 151.631 260.924C149.301 260.94 137.873 260.49 136.759 260.787C131.805 259.952 124.943 260.034 119.301 259.2C98.0566 256.06 76.9085 248.966 60.0001 235.439C53.4517 230.975 49.4079 223.783 46.275 216.745Z"/><path fill="#FECCAF" d="M119.579 198.759C122.717 197.947 126.628 195.07 129.548 193.473C144.415 185.345 161.337 183.497 176.825 191.131C180.512 192.948 183.893 196.302 187.528 197.901L187.801 198.019C191.557 202.757 195.62 206.299 201.952 206.895C209.238 207.581 213.839 206.509 219.782 202.416C224.611 198.209 225.86 195.356 227.732 189.478L227.925 189.601C229.731 190.725 236.335 189.858 238.924 189.998C251.743 190.687 263.59 199.102 255.654 213.017C253.498 216.797 248.941 218.889 245.309 220.969C244.547 221.378 242.166 221.551 241.586 222.147C241.908 222.51 241.769 222.447 242.175 222.628C246.169 222.221 250.484 221.31 254.211 219.663C255.47 219.106 257.371 216.574 258.697 216.377L259.018 216.913C259.019 218.049 258.412 218.095 258.727 219.7L258.772 219.922C255.882 225.003 252.126 229.54 247.674 233.328C237.158 242.319 216.04 251.186 202.754 254.499C194.587 256.535 178.801 259.728 170.454 260.304C164.184 260.618 157.909 260.825 151.631 260.924C149.301 260.94 137.873 260.49 136.759 260.787C131.805 259.952 124.943 260.034 119.301 259.2C98.0566 256.06 76.9085 248.966 60.0001 235.439C53.4517 230.975 49.4079 223.783 46.275 216.745C46.8825 215.856 46.5886 216.057 47.419 215.65C49.3083 215.914 52.0862 219.389 53.8261 220.485C55.8747 221.776 58.7852 222.774 60.7756 223.868C63.1384 224.338 71.9253 225.51 73.7808 224.381L73.6222 224.026C72.7748 223.525 71.0863 223.504 70.0441 223.468C57.8026 223.044 44.851 207.744 57.2589 197.9C63.7493 192.75 71.088 193.864 78.7389 193.321C79.7229 193.251 80.3086 194.483 81.058 195.16L81.2081 195.293C88.0044 210.046 105.891 213.109 117.347 201.336C118.12 200.541 118.892 199.631 119.579 198.759Z"/><path fill="#FCA285" d="M227.732 189.478L227.925 189.601C229.731 190.725 236.335 189.858 238.924 189.998C251.743 190.687 263.59 199.102 255.654 213.017C253.498 216.797 248.941 218.889 245.309 220.969C244.547 221.378 242.166 221.551 241.586 222.147C241.908 222.51 241.769 222.447 242.175 222.628C239.198 223.636 231.276 222.003 228.302 220.989L228.414 220.858C230.48 220.837 232.817 222.573 235.311 222.309C242.134 221.672 249.263 219.799 254.012 214.446C258.625 209.248 259.327 200.143 253.412 195.55C245.54 189.438 237.214 190.154 227.947 190.961C226.337 194.563 224.065 201.376 219.782 202.416C224.611 198.209 225.86 195.356 227.732 189.478Z"/><path fill="#FCA285" d="M46.275 216.745C46.8825 215.856 46.5886 216.057 47.419 215.65C49.3083 215.914 52.0862 219.389 53.8261 220.485C55.8747 221.776 58.7852 222.774 60.7756 223.868C58.6653 224.146 54.6339 221.243 52.8842 220.158C51.6915 219.418 51.9526 220.37 51.1112 221.496C48.1526 225.456 59.3085 233.6 60.0001 235.439C53.4517 230.975 49.4079 223.783 46.275 216.745Z"/><path fill="#FB7469" d="M158.096 194.081C176.838 193.439 164.009 213.228 148.907 210.555C146.593 209.701 145.447 209.126 143.519 207.776C139.129 204.613 136.799 197.944 143.362 195.698C147.908 194.143 151.204 196.236 155.461 194.59C156.279 194.273 157.22 194.171 158.096 194.081Z"/><path fill="#371C1A" d="M152.814 217.328C157.679 216.821 162.104 217.62 166.385 220.006C168.482 221.175 172.048 223.776 170.277 226.568C167.356 228.201 163.53 223.895 161.056 222.701C159.758 222.074 157.351 221.895 155.869 221.777C152.049 221.932 148.78 222.671 145.755 225.178C144.206 226.462 142.056 228.827 139.89 228.324C138.335 227.059 139.602 224.6 140.539 223.255C143.232 219.393 148.406 218.062 152.814 217.328Z"/><path fill="#371C1A" d="M81.2081 195.293C70.0334 164.812 110.999 144.818 121.455 174.292C124.164 181.726 123.792 189.933 120.422 197.092C120.151 197.653 119.87 198.208 119.579 198.759C118.892 199.631 118.12 200.541 117.347 201.336C105.891 213.109 88.0044 210.046 81.2081 195.293Z"/><path fill="#FEE4C8" d="M107.528 169.181C110.396 168.607 113.197 170.43 113.832 173.284C114.468 176.139 112.706 178.978 109.865 179.675C107.973 180.139 105.978 179.543 104.65 178.118C103.322 176.692 102.87 174.659 103.467 172.805C104.064 170.951 105.618 169.564 107.528 169.181Z"/><path fill="#371C1A" d="M187.801 198.019C185.185 191.046 183.429 187.119 184.546 179.431C185.487 172.951 187.825 167.295 193.224 163.228C197.616 159.862 203.174 158.396 208.656 159.159C214.345 160.001 219.453 163.108 222.817 167.773C227.659 174.363 228.932 181.524 227.732 189.478C225.86 195.356 224.611 198.209 219.782 202.416C213.839 206.509 209.238 207.581 201.952 206.895C195.62 206.299 191.557 202.757 187.801 198.019Z"/><path fill="#FEE4C8" d="M195.805 167.022C203.061 166.449 206.206 175.097 198.55 178.098C190.282 178.896 188.958 170.864 195.805 167.022Z"/><path fill="#B13031" d="M83.7943 152.494C84.4947 150.701 85.1059 150.001 86.8414 149.102C90.8522 147.025 95.0475 145.483 99.0888 143.432C102.5 141.701 107.87 134.598 111.637 135.641C113.841 137.951 111.121 144.265 108.877 146.199C105.529 149.085 96.8629 152.99 92.5266 152.685C91.2978 152.861 90.0675 153.027 88.8357 153.181C86.9575 153.409 85.2776 153.652 83.7943 152.494Z"/><path fill="#9D1A22" d="M83.7943 152.494C85.3219 152.342 91.6273 151.788 92.5266 152.685C91.2978 152.861 90.0675 153.027 88.8357 153.181C86.9575 153.409 85.2776 153.652 83.7943 152.494Z"/><path fill="#B13031" d="M190.708 132.845C195.944 134.897 200.389 140.792 206.126 143.06C208.865 144.143 217.622 146.731 218.349 149.252C218.02 150.031 217.532 150.191 216.781 150.627C211.629 151.833 203.641 149.82 198.981 147.481C193.907 144.933 187.513 138.995 190.708 132.845Z"/><path fill="#FB7469" d="M135.981 271.949C136.24 271.61 136.403 271.198 136.908 271.233C140.711 271.501 147.162 273.813 150.882 273.757C155.629 273.685 164.999 274.441 169.365 273.248L170.046 273.586C166.042 277.256 163.544 281.094 163.221 286.69C162.927 291.784 165.106 294.419 167.099 298.762C169.093 303.106 170.016 307.837 173.954 311.014C175.256 310.966 176.125 311.089 177.267 311.809C179.73 312.741 181.32 313.341 183.829 314.02C185.619 313.73 189.39 313.721 190.142 315.714C190.2 316.61 189.8 317.591 189.259 318.286L189.398 319.057C190.448 319.515 191.626 318.447 192.412 318.838C194.168 319.711 195.854 320.814 197.632 321.682C202.061 323.842 206.911 324.038 211.833 324.063C214.323 324.075 218.882 323.031 221.587 323.237C221.639 323.241 221.952 323.84 221.98 323.971C223.043 328.837 221.972 335.533 220.926 340.114C220.536 340.568 220.771 340.425 220.209 340.576C220.486 342.845 224.43 344.489 223.214 347.123L223.148 346.643C223.038 347.055 222.749 348.617 222.642 348.824C220.639 359.552 212.646 358.95 203.448 359.899C196.629 360.602 189.168 359.86 182.394 358.838C166.41 356.425 169.031 345.024 180.345 337.594C178.437 338.001 176.484 338.449 174.591 338.925C162.798 341.891 150.236 342.175 138.196 340.437L137.842 340.8C136.721 340.659 136.592 340.429 135.854 340.941C136.3 341.318 136.724 341.444 137.268 341.667L137.039 341.903C141.61 345.215 144.103 347.41 144.612 353.245C143.194 355.995 141.232 357.182 138.273 358.085C129.468 360.772 110.516 360.66 102.584 356.592C102.478 356.537 102.373 356.481 102.269 356.425C101.961 356.408 101.578 356.342 101.265 356.3C99.1974 354.857 95.8778 351.056 96.7095 347.86C96.7871 347.562 97.0769 347.599 97.4056 347.526L97.4567 346.987L97.7995 347.038C98.8875 344.897 98.9133 344.381 100.319 342.281C97.2781 336.792 96.2921 331.042 96.2051 324.835C100.597 324.773 106.715 324.163 110.56 321.946C112.188 321.008 120.041 317.205 120.559 316.332C124.981 314.071 129.89 314.493 135.801 311.145C140.471 307.77 140.999 303.399 143.025 298.55C145.288 293.132 148.023 288.845 145.902 282.679C144.296 278.011 140.335 274.176 135.981 271.949Z"/><defs><linearGradient id="gradient_2" gradientUnits="userSpaceOnUse" x1="155.51306" y1="333.0025" x2="155.45647" y2="271.23264"><stop offset="0" stop-color="#FFC3A4"/><stop offset="1" stop-color="#FFECD1"/></linearGradient></defs><path fill="url(#gradient_2)" d="M135.981 271.949C136.24 271.61 136.403 271.198 136.908 271.233C140.711 271.501 147.162 273.813 150.882 273.757C155.629 273.685 164.999 274.441 169.365 273.248L170.046 273.586C166.042 277.256 163.544 281.094 163.221 286.69C162.927 291.784 165.106 294.419 167.099 298.762C169.093 303.106 170.016 307.837 173.954 311.014C175.256 310.966 176.125 311.089 177.267 311.809C179.73 312.741 181.32 313.341 183.829 314.02C185.619 313.73 189.39 313.721 190.142 315.714C190.2 316.61 189.8 317.591 189.259 318.286L189.139 318.195C187.573 322.891 182.199 327.191 177.77 329.258C167.028 334.271 149.162 335.087 137.974 331.383C130.93 329.052 126.727 325.185 122.318 319.549C121.658 318.712 121.043 317.321 120.559 316.332C124.981 314.071 129.89 314.493 135.801 311.145C140.471 307.77 140.999 303.399 143.025 298.55C145.288 293.132 148.023 288.845 145.902 282.679C144.296 278.011 140.335 274.176 135.981 271.949Z"/><path fill="#FCA285" d="M120.559 316.332C124.981 314.071 129.89 314.493 135.801 311.145C136.983 314.718 133.386 316.64 130.624 317.726C128.396 318.602 122.96 317.7 122.318 319.549C121.658 318.712 121.043 317.321 120.559 316.332Z"/><path fill="#FB7469" d="M173.954 311.014C175.256 310.966 176.125 311.089 177.267 311.809C179.73 312.741 181.32 313.341 183.829 314.02C185.619 313.73 189.39 313.721 190.142 315.714C190.2 316.61 189.8 317.591 189.259 318.286L189.139 318.195C185 316.664 180.579 317.191 176.456 313.607C175.617 313.146 174.58 311.785 173.954 311.014Z"/><path fill="#FCA285" d="M177.267 311.809C179.73 312.741 181.32 313.341 183.829 314.02C182.644 316.109 178.589 313.591 177.307 312.728C177.06 312.329 177.149 312.428 177.267 311.809Z"/><path fill="#FB7469" d="M100.319 342.281C102.794 340.53 104.023 339.574 106.996 338.592C112.022 336.933 117.142 337.19 122.335 337.719C124.636 337.953 127.18 338.689 129.449 338.599C131.433 339.386 135.023 341.688 137.039 341.903C141.61 345.215 144.103 347.41 144.612 353.245C143.194 355.995 141.232 357.182 138.273 358.085C129.468 360.772 110.516 360.66 102.584 356.592C102.478 356.537 102.373 356.481 102.269 356.425C101.961 356.408 101.578 356.342 101.265 356.3C99.1974 354.857 95.8778 351.056 96.7095 347.86C96.7871 347.562 97.0769 347.599 97.4056 347.526L97.4567 346.987L97.7995 347.038C98.8875 344.897 98.9133 344.381 100.319 342.281Z"/><path fill="#9D1A22" d="M102.269 356.425C101.961 356.408 101.578 356.342 101.265 356.3C99.1974 354.857 95.8778 351.056 96.7095 347.86C96.7871 347.562 97.0769 347.599 97.4056 347.526L97.4567 346.987L97.7995 347.038C97.5157 351.756 98.5214 353.323 102.269 356.425Z"/><path fill="#B13031" d="M222.642 348.824C221.815 346.158 221.869 344.37 219.681 342.06C218.063 340.352 216.085 340.586 214.812 338.492C215.925 338.582 219.14 340.019 220.209 340.576C220.486 342.845 224.43 344.489 223.214 347.123L223.148 346.643C223.038 347.055 222.749 348.617 222.642 348.824Z"/><path fill="#B13031" d="M129.449 338.599L129.673 338.18C130.699 338.183 137.5 340.09 138.196 340.437L137.842 340.8C136.721 340.659 136.592 340.429 135.854 340.941C136.3 341.318 136.724 341.444 137.268 341.667L137.039 341.903C135.023 341.688 131.433 339.386 129.449 338.599Z"/><path fill="#FEE4C8" d="M56.7365 97.1442C44.5166 83.9738 23.9941 55.4343 27.919 35.6566C28.9511 30.4556 37.0677 27.9299 42.0418 30.4408C57.4625 38.2248 70.4656 61.8059 77.1517 77.2982C79.517 80.226 85.554 96.3727 86.7563 100.519C87.3213 102.467 88.0145 106.205 88.3342 108.286C84.3078 110.713 80.3881 113.313 76.586 116.078C72.1509 112.486 59.8985 101.659 56.7365 97.1442Z"/><path fill="#FECCAF" d="M77.1517 77.2982C79.517 80.226 85.554 96.3727 86.7563 100.519C87.3213 102.467 88.0145 106.205 88.3342 108.286C84.3078 110.713 80.3881 113.313 76.586 116.078C72.1509 112.486 59.8985 101.659 56.7365 97.1442C58.13 95.757 59.5742 93.5084 61.0141 91.9117C65.3604 87.092 70.472 80.6386 76.4956 77.9382C76.9416 77.7383 76.8137 77.7622 77.1517 77.2982Z"/><path fill="#FB7469" d="M217.834 284.804L217.689 284.633C212.614 278.719 206.124 274.992 199.194 271.677C196.868 270.565 194.468 270.909 194.6 267.559C195.488 266.66 197.209 266.462 198.419 266.01C203.822 263.989 209.782 262.575 215.532 262.006C222.98 269.564 227.115 275.49 230.8 285.591C234.347 295.318 233.94 305.001 226.513 312.9C224.638 314.894 222.833 315.069 220.767 316.39L220.818 316.6C219.128 319.832 206.527 318.934 203.578 317.362C200.855 315.909 192.35 312.919 193.899 308.938C194.048 308.077 194.267 307.728 193.967 307.042C191.634 307.583 189.704 308.427 187.255 308.53C183.925 308.67 179.623 307.571 177.108 305.342C175.367 303.805 174.33 301.624 174.238 299.304C174.027 294.856 177.248 289.817 180.13 286.597C174.02 289.068 173.266 289.793 170.43 295.965C168.216 291.849 166.053 286.115 168.478 281.746C172.039 275.332 178.682 272.873 185.637 273.12C193.31 273.392 198.157 274.831 204.838 278.518C207.058 279.744 209.466 280.716 211.671 281.989C213.546 283.082 215.127 284.54 217.243 285.519L217.455 285.615L217.834 284.804Z"/><path fill="#9D1A22" d="M193.899 308.938C194.302 310.816 196.47 312.541 197.988 313.574C203.613 317.4 212.193 318.489 218.782 316.96C219.452 316.8 220.114 316.61 220.767 316.39L220.818 316.6C219.128 319.832 206.527 318.934 203.578 317.362C200.855 315.909 192.35 312.919 193.899 308.938Z"/><path fill="#B13031" d="M217.455 285.615L217.834 284.804C218.523 285.439 218.751 285.449 219.008 286.268C218.335 286.318 218.032 286.005 217.455 285.615Z"/><path fill="#FB7469" d="M97.3572 265.252C103.204 265.337 108.847 266.284 114.66 266.366C111.42 271.263 111.842 271.794 106.054 274.346C100.325 276.87 94.7005 280.436 91.7706 286.19C100.733 279.323 117.521 272.897 128.924 274.207C137.376 275.178 144.456 283.135 140.909 291.627C140.39 292.88 139.798 294.149 139.205 295.392C138.345 292.472 137.986 290.712 135.102 289.113C134.851 288.975 134.594 288.845 134.334 288.724L134.069 288.953C134.181 289.642 134.609 290.538 134.979 291.124C137.305 294.807 137.168 299.984 134.652 303.566C131.208 308.47 125.347 308.261 120.048 307.797C117.615 309.013 118.273 307.747 116.3 308.495C116.356 308.977 116.279 308.982 116.533 309.321C116.98 309.784 116.943 310.229 117.02 310.892L117.133 310.658C116.833 314.373 103.445 318.141 100.171 316.771C99.6728 316.7 96.8091 316.654 96.0255 316.598C90.6786 316.213 88.6337 314.327 84.4071 311.511C80.5626 311.227 76.6245 298.402 79.1469 295.03L79.2711 297.064C80.6031 285.545 86.6166 273.698 95.713 266.509C96.2526 266.079 96.8007 265.66 97.3572 265.252Z"/><path fill="#9D1A22" d="M116.533 309.321C116.98 309.784 116.943 310.229 117.02 310.892L117.133 310.658C116.833 314.373 103.445 318.141 100.171 316.771C103.975 316.217 116.443 314.182 116.533 309.321Z"/><path fill="#9D1A22" d="M84.4071 311.511C80.5626 311.227 76.6245 298.402 79.1469 295.03L79.2711 297.064C79.2572 302.264 80.787 307.654 84.4071 311.511Z"/><path fill="#9D1A22" d="M113.241 303.277C115.727 305.379 116.874 307.196 120.048 307.797C117.615 309.013 118.273 307.747 116.3 308.495C115.865 307.218 114.05 304.545 113.241 303.277Z"/><path fill="#FCA285" d="M136.759 260.787C137.873 260.49 149.301 260.94 151.631 260.924C157.909 260.825 164.184 260.618 170.454 260.304L170.383 260.627C174.774 261.575 181.303 260.267 185.831 261.175C190.097 262.031 191.864 266.874 194.432 269.909C187.623 268.989 180.657 268.304 174.036 271.074C173.227 271.413 170.914 273.02 170.046 273.586L169.365 273.248C164.999 274.441 155.629 273.685 150.882 273.757C147.162 273.813 140.711 271.501 136.908 271.233C136.403 271.198 136.24 271.61 135.981 271.949C135.406 271.843 134.449 271.441 133.832 271.26C127.243 269.332 119.925 269.698 113.236 271.25C119.04 259.632 122.19 263.177 133.134 261.75C134.235 261.606 135.816 261.354 136.759 260.787Z"/><path fill="#FCA285" d="M218.867 79.4526C218.037 75.5166 216.545 62.7319 217.434 59.2435L217.749 58.9689C217.823 59.0479 219.73 67.0306 220.352 68.6678C225.432 82.0486 236.788 97.6614 248.156 106.192C250.034 107.601 252.041 108.956 254.092 110.098C255.377 110.813 256.925 111.355 258.103 112.214C254.067 111.023 254.182 110.452 251.288 108.653C239.122 101.09 230.375 89.0603 223.689 76.6107C222.56 74.5085 219.476 66.6905 218.402 66.3667C217.115 67.5722 218.442 76.601 219.12 78.5676C221.703 85.964 226.381 93.0763 230.926 99.4449C233.295 102.764 236.939 106.159 239.226 109.64C240.187 111.102 246.13 114.953 246.452 115.458C244.725 115.487 240.96 111.819 239.512 110.535C237.56 108.802 233.363 101.995 231.062 100.704C229.619 103.412 226.951 106.078 223.958 106.999C222.187 107.57 220.629 106.682 219.081 105.862C214.735 103.558 210.253 101.367 206.02 98.8603C208.427 89.3998 210.875 84.8967 218.867 79.4526Z"/><path fill="#9D1A22" d="M218.867 79.4526C218.037 75.5166 216.545 62.7319 217.434 59.2435L217.749 58.9689C217.823 59.0479 219.73 67.0306 220.352 68.6678C225.432 82.0486 236.788 97.6614 248.156 106.192C250.034 107.601 252.041 108.956 254.092 110.098C255.377 110.813 256.925 111.355 258.103 112.214C254.067 111.023 254.182 110.452 251.288 108.653C239.122 101.09 230.375 89.0603 223.689 76.6107C222.56 74.5085 219.476 66.6905 218.402 66.3667C217.115 67.5722 218.442 76.601 219.12 78.5676C221.703 85.964 226.381 93.0763 230.926 99.4449C233.295 102.764 236.939 106.159 239.226 109.64C240.187 111.102 246.13 114.953 246.452 115.458C244.725 115.487 240.96 111.819 239.512 110.535C237.56 108.802 233.363 101.995 231.062 100.704C230.654 99.8176 227.663 95.4636 226.97 94.3769C223.799 89.4004 221.071 84.9675 218.867 79.4526Z"/><path fill="#FB7469" fill-opacity="0.26274511" d="M149.82 356.965C153.489 356.52 151.684 350.271 153.252 348.143C153.678 347.564 159.216 347.091 160.097 346.993L159.772 346.963L162.255 346.6C162.815 347.147 163.419 349.334 163.71 350.214C163.669 349.481 163.661 349.233 163.767 348.504L163.792 348.34L163.827 348.472C165.308 354.119 164.951 355.75 171.093 359.559C171.329 359.705 171.763 359.921 171.968 360.105L172.15 360.775C175.923 363.881 182.267 364.177 186.718 364.887C186.304 365.084 182.124 365.001 181.345 365C185.863 366.066 196.048 365.064 201.091 365.172C203.739 365.229 207.53 365.504 210.047 365.386L208.266 365.126C208.536 364.93 210.762 364.729 211.388 364.673C213.282 364.532 217.53 362.639 219.171 363.332C222.109 364.574 223.355 361.064 225.186 360.609L225.221 360.258L224.766 359.817C228.798 357.601 229.996 356.598 229.924 351.954C230.243 352.758 230.253 352.906 230.313 353.773C230.274 354.387 230.216 354.094 230.559 354.666L230.878 354.461C232.448 347.427 239.724 350.455 245.589 350.803L245.839 350.892C249.056 352.032 252.509 352.446 255.817 353.369C257.352 353.797 263.771 355.477 262.651 358.006C261.741 360.06 258.101 361.624 256.05 362.291C249.302 364.502 242.225 365.516 235.214 366.464C233.372 366.713 230.411 367.23 228.665 367.223C230.576 366.072 236.012 366.883 237.208 365.049L236.933 364.646C234.773 364.057 232.687 365.157 230.857 366.067C230.318 366.336 229.357 365.666 228.738 365.352C227.92 365.621 225.026 366.323 224.612 366.678L224.588 367.185C225.562 367.445 227.218 367.179 228.546 367.247C226.484 367.9 224.073 367.973 221.901 368.164C213.618 368.895 205.28 369.886 196.971 370.184C192.052 370.36 186.688 369.279 181.931 371L138.079 371C131.002 370.016 125.333 370.416 118.246 369.983C116.225 369.859 113.348 369.88 111.432 369.524C112.986 369.19 115.287 369.754 116.267 369.015C115.682 368.59 107.788 368.152 107.016 368.22C108.632 369.001 109.666 368.526 111.343 369.509C106.826 369.353 102.588 368.543 98.1597 368.142C86.008 367.039 72.9397 365.213 61.4095 361.1C58.8386 360.183 58.2701 359.265 57.266 356.932C62.0338 352.739 69.9082 351.474 75.997 350.24C78.0644 349.821 86.2948 347.811 87.7674 348.214C87.8974 348.663 87.9392 348.967 88.2498 349.317L88.9519 348.379C88.0336 354.854 89.9626 358.615 96.4487 360.842C96.1931 360.993 96.1513 361.068 95.9347 361.277C96.7171 362.871 102.509 363.371 104.552 363.819C113.858 365.858 123.503 364.726 132.943 365.479C133.845 365.551 135.971 365.149 136.955 364.99C135.276 364.985 134.097 365.099 132.349 365.002L132.274 364.835C135.63 363.792 139.661 364.014 143.096 363.393C143.663 363.29 147.022 360.967 147.756 360.439C147.379 360.554 147.099 360.545 146.709 360.563L146.463 359.871C147.565 359.155 148.932 357.942 149.82 356.965ZM247.718 363.286C247.789 363.324 248.4 363.655 248.4 363.655C250.744 363.235 258.92 361.675 259.984 359.709L259.968 359.462C259.111 359.026 258.706 359.053 257.888 358.64L257.111 358.747C256.184 359.533 250.427 362.396 249.523 362.419L248.817 361.804L248.878 362.509C247.963 363.13 246.189 362.515 245.076 363.063L245.157 363.39C246.017 363.631 246.837 363.427 247.718 363.286ZM201.687 369.473C203.2 369.451 209.473 369.056 210.771 368.552L210.763 368.263C210.359 368.167 210.321 368.113 209.935 368.157L209.687 368.195C207.465 368.522 202.213 368.028 200.817 368.819L200.786 369.155C201.115 369.328 201.319 369.481 201.687 369.473Z"/><path fill="#D35C5B" fill-opacity="0.43921569" d="M257.111 358.747L257.888 358.64C258.706 359.053 259.111 359.026 259.968 359.462L259.984 359.709C258.92 361.675 250.744 363.235 248.4 363.655C248.4 363.655 247.789 363.324 247.718 363.286C246.837 363.427 246.017 363.631 245.157 363.39L245.076 363.063C246.189 362.515 247.963 363.13 248.878 362.509L248.817 361.804L249.523 362.419C250.427 362.396 256.184 359.533 257.111 358.747Z"/><path fill="#FB7469" fill-opacity="0.34117648" d="M209.935 368.157C210.321 368.113 210.359 368.167 210.763 368.263L210.771 368.552C209.473 369.056 203.2 369.451 201.687 369.473C201.319 369.481 201.115 369.328 200.786 369.155L200.817 368.819C202.213 368.028 207.465 368.522 209.687 368.195L209.935 368.157Z"/><path fill="#FB7469" fill-opacity="0.082352944" d="M171.968 360.105C172.123 360.173 172.278 360.24 172.433 360.307C184.91 365.628 212.022 364.937 224.766 359.817L225.221 360.258L225.186 360.609C223.355 361.064 222.109 364.574 219.171 363.332C217.53 362.639 213.282 364.532 211.388 364.673C210.762 364.729 208.536 364.93 208.266 365.126L210.047 365.386C207.53 365.504 203.739 365.229 201.091 365.172C196.048 365.064 185.863 366.066 181.345 365C182.124 365.001 186.304 365.084 186.718 364.887C182.267 364.177 175.923 363.881 172.15 360.775L171.968 360.105Z"/><path fill="#FB7469" fill-opacity="0.074509807" d="M146.463 359.871L146.709 360.563C147.099 360.545 147.379 360.554 147.756 360.439C147.022 360.967 143.663 363.29 143.096 363.393C139.661 364.014 135.63 363.792 132.274 364.835L132.349 365.002C134.097 365.099 135.276 364.985 136.955 364.99C135.971 365.149 133.845 365.551 132.943 365.479C123.503 364.726 113.858 365.858 104.552 363.819C102.509 363.371 96.7171 362.871 95.9347 361.277C96.1513 361.068 96.1931 360.993 96.4487 360.842C110.706 364.155 133.008 366.062 146.463 359.871Z"/><path fill="#FB7469" fill-opacity="0.06666667" d="M149.82 356.965C151.011 354.69 151.68 352.078 151.04 349.526C150.81 348.606 150.456 347.893 150.553 346.974C151.417 346.098 162.157 345.646 163.284 346.187C163.959 346.983 163.736 347.035 163.792 348.34L163.767 348.504C163.661 349.233 163.669 349.481 163.71 350.214C163.419 349.334 162.815 347.147 162.255 346.6L159.772 346.963L160.097 346.993C159.216 347.091 153.678 347.564 153.252 348.143C151.684 350.271 153.489 356.52 149.82 356.965Z"/><path fill="#D35C5B" fill-opacity="0.38039216" d="M228.546 367.247C227.218 367.179 225.562 367.445 224.588 367.185L224.612 366.678C225.026 366.323 227.92 365.621 228.738 365.352C229.357 365.666 230.318 366.336 230.857 366.067C232.687 365.157 234.773 364.057 236.933 364.646L237.208 365.049C236.012 366.883 230.576 366.072 228.665 367.223L228.546 367.247Z"/><path fill="#FB7469" fill-opacity="0.10980392" d="M231.63 349.549C231.953 349.441 233.338 348.988 233.529 349.027C236.225 349.583 243.544 349.931 245.589 350.803C239.724 350.455 232.448 347.427 230.878 354.461L230.559 354.666C230.216 354.094 230.274 354.387 230.313 353.773C230.613 351.997 230.972 351.187 231.63 349.549Z"/><path fill="#FB7469" fill-opacity="0.29411766" d="M111.343 369.509C109.666 368.526 108.632 369.001 107.016 368.22C107.788 368.152 115.682 368.59 116.267 369.015C115.287 369.754 112.986 369.19 111.432 369.524L111.343 369.509Z"/></svg>