<?xml version="1.0" encoding="utf-8" ?><svg xmlns="http://www.w3.org/2000/svg" xmlns:xlink="http://www.w3.org/1999/xlink" width="293" height="403" viewBox="0 0 293 403"><defs><linearGradient id="gradient_0" gradientUnits="userSpaceOnUse" x1="129.6635" y1="396.5278" x2="150.14711" y2="9.1817474"><stop offset="0" stop-color="#C1272D"/><stop offset="1" stop-color="#FF6E66"/></linearGradient></defs><path fill="url(#gradient_0)" d="M56.5625 139.349C55.0183 138.249 53.5346 137.066 52.1179 135.806C33.445 119.062 19.0724 98.0736 10.2123 74.61C3.21511 56.4132 -3.28155 26.8114 11.1778 11.0371C25.6516 -4.75282 48.4569 3.91953 61.5597 16.719C81.722 36.4145 92.6054 62.1212 101.189 88.4786C102.989 94.0059 106.094 105.127 106.337 110.805C109.459 109.094 115.374 107.64 118.888 106.815C138.176 102.119 158.325 102.263 177.543 107.234C181.203 85.9453 193.898 60.6664 213.608 50.0782C227.894 42.9 247.685 45.0627 262.3 49.753C273.92 53.4822 288.37 59.4789 292.048 71.952C292.354 72.9896 292.451 73.825 293 74.8006L293 81.199C291.896 83.7004 291.539 87.6082 290.495 90.4203C287.091 99.585 281.525 109.196 272.115 113.186C263.323 116.737 255.997 115.123 247.342 112.576C244.449 116.868 234.766 128.456 231.145 131.504C233.604 134.114 236.725 136.599 239.339 139.019C276.57 173.491 285.822 242.353 232.226 266.853C224.682 270.301 216.382 273.808 208.077 275.357C213.754 278.387 216.204 281.348 220.865 285.819C236.993 301.29 260.3 339.878 228.19 351.956C224.872 353.204 221.765 353.02 218.297 352.287C217.778 356.851 217.005 361.311 216.236 365.853C215.755 368.693 214.091 373.749 214.09 376.368C214.089 377.491 215.937 380.708 216.278 383.197C216.136 388.114 214.313 389.446 210.463 392.058C200.048 396.551 181.227 396.345 169.933 394.932C161.542 393.506 154.521 392.667 153.785 382.588C154.076 379.597 154.354 378.818 155.655 376.11C156.282 375.817 156.561 375.772 156.889 375.206C156.481 374.908 144.007 375.207 142.226 375.056C145.327 389.074 140.027 392.239 127.508 394.826C127.229 394.884 126.949 394.939 126.668 394.99C114.513 396.522 101.127 396.225 89.1715 393.614C84.3379 392.23 80.996 389.963 80.9005 384.576C81.3151 381.887 81.9256 380.231 82.9888 377.742C82.7587 375.562 81.859 372.858 81.4051 370.66C80.3658 365.629 78.8994 358.252 79.0789 353.258C41.8762 352.098 50.3848 317.199 66.0329 296.788C70.9577 290.364 75.7714 284.452 82.417 279.616C84.3162 278.234 86.9829 276.358 88.5608 274.755L88.4307 274.435C85.3242 274.289 81.9861 273.112 79.0173 272.204C62.6724 267.202 47.218 257.926 37.4479 243.628C28.552 230.608 26.119 216.349 26.7582 200.877C27.7535 176.788 39.1665 155.617 56.5625 139.349Z"/><path fill="#FC7369" d="M43.0946 234.213C41.8912 232.625 40.3384 229.196 39.6485 227.31C31.1056 203.956 33.8529 174.553 49.3249 154.626C58.9834 142.186 70.9098 132.537 84.3826 124.314C103.29 113.618 127.228 108.411 148.771 107.824C153.776 107.739 163.283 108.738 168.383 109.473C185.107 111.881 205.941 119.256 220.185 128.232C228.202 133.983 235.564 141.558 241.599 149.28C253.338 164.3 259.549 179.373 260.857 198.425C261.74 211.29 259.325 221.193 255.082 233.242C254.593 234.633 251.407 238.259 250.217 239.413C247.011 243.369 242.531 248.861 238.442 251.847C222.819 263.256 203.405 270.335 184.387 273.413C178.701 274.334 173.203 274.708 167.497 275.311C166.2 275.372 164.705 275.504 163.435 275.531C162.661 275.397 158.086 275.624 157.062 275.653C153.64 275.736 150.216 275.771 146.793 275.761C143.149 275.786 139.505 275.728 135.864 275.587C134.156 275.516 129.733 275.138 128.429 275.318C112.37 273.211 99.7671 271.319 84.5071 265.168C71.0549 259.746 61.2341 255.223 51.1047 244.261C49.6882 243.682 44.0637 236.138 43.0946 234.213Z"/><defs><linearGradient id="gradient_1" gradientUnits="userSpaceOnUse" x1="144.68266" y1="276.49826" x2="152.856" y2="200.84248"><stop offset="0" stop-color="#FFC5A6"/><stop offset="1" stop-color="#FFEBD0"/></linearGradient></defs><path fill="url(#gradient_1)" d="M115.933 207.242C116.617 207.603 116.688 207.804 116.989 208.507C117.508 208.7 118.271 208.403 118.726 208.119C133.767 198.716 150.891 198.075 167.429 203.919C172.354 205.66 176.144 208.109 180.624 210.717C180.817 210.826 182.156 210.587 182.44 210.525C185.666 219.174 195.578 224.477 204.456 221.815C204.558 224.288 206.936 226.686 208.74 228.241C215.447 234.021 222.422 238.602 231.634 237.815C232.891 237.708 235.916 237.476 237 237.063C241 235.535 247.316 236.388 250.477 233.707C251.049 233.222 253.276 230.303 253.884 229.523C253.159 230.346 253.447 231.1 252.649 232.462C251.525 234.381 250.438 235.89 249.077 237.637C250.159 238.593 250.04 238.198 250.217 239.413C247.011 243.369 242.531 248.861 238.442 251.847C222.819 263.256 203.405 270.335 184.387 273.413C178.701 274.334 173.203 274.708 167.497 275.311C166.2 275.372 164.705 275.504 163.435 275.531C162.661 275.397 158.086 275.624 157.062 275.653C153.64 275.736 150.216 275.771 146.793 275.761C143.149 275.786 139.505 275.728 135.864 275.587C134.156 275.516 129.733 275.138 128.429 275.318C112.37 273.211 99.7671 271.319 84.5071 265.168C71.0549 259.746 61.2341 255.223 51.1047 244.261C49.6882 243.682 44.0637 236.138 43.0946 234.213C43.3005 233.546 43.1458 233.681 43.6173 233.419C44.1253 233.768 44.1961 233.818 44.7682 234.034C45.6777 233.247 44.4731 232.61 45.1031 231.693L45.5192 231.951C47.4457 235.148 51.9662 235.72 55.2037 236.494C62.2126 238.168 68.3177 238.451 75.3539 236.768C82.8725 235.128 88.5108 231.255 92.6179 224.731C93.6353 223.114 92.9308 222.732 92.8255 221.079L92.8148 220.886C102.969 223.181 112.565 216.856 115.933 207.242Z"/><path fill="#FDA489" d="M43.0946 234.213C43.3005 233.546 43.1458 233.681 43.6173 233.419C44.1253 233.768 44.1961 233.818 44.7682 234.034C45.6777 233.247 44.4731 232.61 45.1031 231.693L45.5192 231.951C45.0901 233.854 46.6638 233.477 45.2501 236.419C46.0307 239.025 51.1806 242.608 51.1047 244.261C49.6882 243.682 44.0637 236.138 43.0946 234.213Z"/><path fill="#FC7369" d="M148.403 211.637C151.702 208.646 157.446 206.083 160.893 210.309C161.832 211.479 162.251 212.984 162.053 214.471C161.648 217.646 159.074 219.719 156.74 221.554C152.7 224.802 149.417 225.947 144.263 224.48C137.237 222.481 129.946 212.092 139.533 208.285C143.171 208.036 146.1 208.659 148.403 211.637Z"/><path fill="#381C1B" d="M171.684 225.229L172.071 225.415C172.173 225.593 172.285 225.76 172.301 225.983C173.03 236.771 160.302 239.954 152.048 237.017C150.602 236.502 149.686 235.722 148.5 234.648C141.281 239.519 128.82 238.632 124.815 229.9C124.501 228.669 124.25 227.068 125.34 226.139C127.671 225.802 129.209 228.731 131.083 230.281C132.536 231.471 134.245 232.307 136.077 232.722C141.002 233.81 144.194 231.721 148.115 229.251C149.446 230.272 150.9 231.418 152.387 232.168C154.323 233.156 156.479 233.636 158.652 233.563C166.417 233.312 166.892 226.761 171.432 225.308L171.684 225.229Z"/><path fill="#381C1B" d="M182.44 210.525C180.944 206.945 180.158 203.108 180.125 199.227C180.135 192.551 181.931 185.486 186.853 180.721C194.782 173.043 206.777 173.401 214.266 181.577C219.895 187.723 220.945 194.308 220.707 202.333C219.229 212.65 214.424 218.56 204.456 221.815C195.578 224.477 185.666 219.174 182.44 210.525Z"/><path fill="#FEE3C9" d="M190.471 184C193.165 183.244 195.958 184.83 196.69 187.531C197.422 190.232 195.811 193.011 193.103 193.718C190.43 194.417 187.694 192.83 186.971 190.164C186.249 187.497 187.811 184.746 190.471 184Z"/><path fill="#381C1B" d="M76.5472 204.35C74.6813 196.838 76.8258 186.86 82.1908 181.231C88.5362 174.574 99.2309 173.155 106.903 178.247C117.543 185.309 118.057 196.218 115.933 207.242C112.565 216.856 102.969 223.181 92.8148 220.886C90.5731 220.449 88.2915 219.478 86.3524 218.275C81.3621 215.122 77.8335 210.111 76.5472 204.35Z"/><path fill="#FEE3C9" d="M101.278 184.023C103.133 183.646 105.046 184.303 106.278 185.74C107.51 187.176 107.868 189.168 107.213 190.943C106.558 192.719 104.993 194.001 103.123 194.293C100.321 194.732 97.6819 192.852 97.1803 190.06C96.6787 187.269 98.4985 184.588 101.278 184.023Z"/><path fill="#FDA489" d="M45.5192 231.951C49.2173 234.522 51.5301 235.778 56.1203 236.204C56.8406 236.271 58.3337 236.633 58.9757 236.426L59.0755 236.477C58.655 235.204 55.8629 234.989 54.6417 234.406C46.3554 230.467 41.3887 218.642 47.6431 210.851C55.0187 201.664 66.7501 205.721 76.5472 204.35C77.8335 210.111 81.3621 215.122 86.3524 218.275C88.2915 219.478 90.5731 220.449 92.8148 220.886L92.8255 221.079C92.9308 222.732 93.6353 223.114 92.6179 224.731C88.5108 231.255 82.8725 235.128 75.3539 236.768C68.3177 238.451 62.2126 238.168 55.2037 236.494C51.9662 235.72 47.4457 235.148 45.5192 231.951Z"/><path fill="#FDA489" d="M220.707 202.333L220.93 202.494C222.915 203.91 228.786 203.864 231.347 204.117C245.981 205.562 258.868 214.332 248.045 229.708C245.987 232.631 239.744 235.179 236.244 236.041C236.32 236.421 236.34 236.396 236.608 236.685C236.018 236.706 235.643 236.61 235.254 236.919L237 237.063C235.916 237.476 232.891 237.708 231.634 237.815C222.422 238.602 215.447 234.021 208.74 228.241C206.936 226.686 204.558 224.288 204.456 221.815C214.424 218.56 219.229 212.65 220.707 202.333Z"/><path fill="#B0292C" d="M199.304 151.799C204.471 151.495 209.263 153.045 212.602 157.172C213.362 158.112 214.526 161.008 213.333 161.871C212.025 161.953 208.884 160.929 207.424 160.532C202.23 158.843 197.861 159.224 192.723 158.199C192.036 158.061 191.881 157.958 191.614 157.464C192.275 154.263 196.503 152.482 199.304 151.799Z"/><path fill="#B0292C" d="M95.0378 150.323C99.48 149.938 103.615 150.113 106.061 154.564C106.37 155.127 106.206 155.511 105.991 156.019C104.538 156.968 97.2668 157.704 94.8583 158.054C92.7243 158.508 86.6493 160.484 84.9255 159.843C84.4869 158.539 85.315 156.406 86.0939 155.33C88.2587 152.341 91.52 150.932 95.0378 150.323Z"/><path fill="#FC7369" d="M128.429 275.318C129.733 275.138 134.156 275.516 135.864 275.587C139.505 275.728 143.149 275.786 146.793 275.761C150.216 275.771 153.64 275.736 157.062 275.653C158.086 275.624 162.661 275.397 163.435 275.531C164.705 275.504 166.2 275.372 167.497 275.311C168.635 276.178 173.859 275.619 176.008 275.976C184.313 276.195 183.713 277.704 187.618 284.177C192.11 282.297 198.694 281.087 203.468 279.441C206.624 278.352 210.635 282.812 212.852 284.549C222.745 292.833 230.842 303.516 235.746 315.475C238.392 321.855 238.876 330.221 236.079 336.67C234.524 340.337 231.528 343.203 227.796 344.595C225.406 345.511 222.671 345.925 220.135 346.253C219.15 340.909 215.649 321.985 213.319 317.98C213.148 318.06 213.203 318.016 212.936 317.95C212.543 316.549 211.934 315.57 211.526 313.967L211.461 313.708L211.277 313.73C210.903 315.38 211.546 316.291 211.094 317.593C211.001 319.425 211.322 321.911 211.453 323.819C211.716 327.288 211.884 330.764 211.956 334.242C212.109 341.659 211.367 363.766 207.181 371.602C206.853 372.216 204.876 372.501 204.085 372.642C205.635 374.299 206.748 375.439 208.017 377.333C208.006 380.48 208.117 385.785 205.608 387.967C197.455 395.053 168.194 394.109 161.122 386.85C160.705 386.772 160.707 386.818 160.305 386.941C158.476 385.963 157.818 381.799 158.994 380.197L159.621 380.406C160.208 379.752 161.589 377.223 162.271 376.28C163.625 374.406 164.776 373.391 166.346 371.757L166.331 371.396L165.127 371.383L164.869 371.032L165.1 370.242L163.573 370.194C163.684 370.024 163.769 369.893 163.871 369.716L162.796 369.252C156.873 369.945 152.108 370.017 146.167 369.99C144.667 369.983 139.447 369.894 138.318 370.021L138.43 370.375C136.229 371.611 133.855 370.404 132.015 371.396C131.752 371.537 131.905 371.496 131.69 371.533C131.85 371.691 132.092 371.96 132.274 372.058C134.465 372.387 137.794 376.919 137.882 378.998C137.731 379.267 137.681 379.406 137.48 379.626C137.528 382.426 137.901 385.031 135.715 387.097C131.161 391.4 119.021 392.436 113.119 392.287C105.96 392.106 98.7592 391.827 93.2161 387.223L92.8715 387.461C91.0711 387.063 90.1406 383.696 89.9808 382.096L90.2803 382.461L90.6116 382.417C90.8432 381.74 90.6684 379.599 90.6365 378.733L91.0509 378.742C91.2474 378.37 91.634 376.559 91.507 376.231C85.8499 361.656 85.8024 345.569 85.4911 330.148C85.4169 326.47 86.1072 322.164 85.9436 318.479L85.9351 318.323C85.2478 316.244 86.2389 314.294 85.5332 313.339L85.151 313.498C84.8767 314.199 84.6262 314.91 84.3999 315.628L84.1301 315.315C83.9178 315.693 83.0285 318.751 82.8871 319.264C81.9366 322.832 81.1333 326.438 80.4791 330.072C79.8095 333.845 79.4897 339.734 78.0159 343.031C76.4692 346.492 69.5039 344.716 66.9752 343.253C53.18 335.267 58.8078 318.222 64.934 307.203C69.5918 298.825 76.0032 291.27 83.3549 285.169C85.0976 283.727 86.6873 281.837 88.8906 281.152C91.7158 280.21 106.326 282.965 108.002 283.937C110.259 276.963 111.696 275.145 119.095 275.752C121.416 275.943 126.248 275.995 128.429 275.318Z"/><defs><linearGradient id="gradient_2" gradientUnits="userSpaceOnUse" x1="143.51712" y1="360.46411" x2="151.9252" y2="281.25046"><stop offset="0" stop-color="#FFC5A6"/><stop offset="1" stop-color="#FFECD0"/></linearGradient></defs><path fill="url(#gradient_2)" d="M128.429 275.318C129.733 275.138 134.156 275.516 135.864 275.587C139.505 275.728 143.149 275.786 146.793 275.761C150.216 275.771 153.64 275.736 157.062 275.653C158.086 275.624 162.661 275.397 163.435 275.531C164.705 275.504 166.2 275.372 167.497 275.311C168.635 276.178 173.859 275.619 176.008 275.976C184.313 276.195 183.713 277.704 187.618 284.177L187.724 284.517C198.516 306.198 198.635 343.918 173.077 355.825C151.511 365.871 118.139 362.612 107.046 338.515C98.8402 320.691 102.227 302.117 107.996 284.117L108.002 283.937C110.259 276.963 111.696 275.145 119.095 275.752C121.416 275.943 126.248 275.995 128.429 275.318Z"/><path fill="#FDA489" d="M128.429 275.318C129.733 275.138 134.156 275.516 135.864 275.587C139.505 275.728 143.149 275.786 146.793 275.761C150.216 275.771 153.64 275.736 157.062 275.653C158.086 275.624 162.661 275.397 163.435 275.531C164.705 275.504 166.2 275.372 167.497 275.311C168.635 276.178 173.859 275.619 176.008 275.976C184.313 276.195 183.713 277.704 187.618 284.177L187.724 284.517C186.009 285.027 177.839 285.881 175.7 286.149C157.697 288.409 138.64 288.589 120.616 286.366C116.35 285.84 112.208 284.933 107.996 284.117L108.002 283.937C110.259 276.963 111.696 275.145 119.095 275.752C121.416 275.943 126.248 275.995 128.429 275.318Z"/><path fill="#FC7369" d="M163.435 275.531C164.705 275.504 166.2 275.372 167.497 275.311C168.635 276.178 173.859 275.619 176.008 275.976C173.716 276.105 165.315 276.327 163.435 275.531Z"/><path fill="#B0292C" d="M127.314 368.898C131.01 369.1 134.486 369.933 138.318 370.021L138.43 370.375C136.229 371.611 133.855 370.404 132.015 371.396C131.752 371.537 131.905 371.496 131.69 371.533C130.398 370.512 128.77 369.696 127.314 368.898Z"/><path fill="#B0292C" d="M211.094 317.593C210.454 312.911 209.028 307.608 208.628 303.225C210.31 307.676 211.772 313.326 213.319 317.98C213.148 318.06 213.203 318.016 212.936 317.95C212.543 316.549 211.934 315.57 211.526 313.967L211.461 313.708L211.277 313.73C210.903 315.38 211.546 316.291 211.094 317.593Z"/><path fill="#B0292C" d="M86.6263 305.77L87.1533 306.682C86.5629 310.846 86.2991 314.129 85.9351 318.323C85.2478 316.244 86.2389 314.294 85.5332 313.339L85.151 313.498C84.8767 314.199 84.6262 314.91 84.3999 315.628L84.1301 315.315C84.9912 312.516 85.8342 308.707 86.6263 305.77Z"/><path fill="#B0292C" d="M132.274 372.058C134.465 372.387 137.794 376.919 137.882 378.998C137.731 379.267 137.681 379.406 137.48 379.626C136.783 377.045 134.051 374.127 132.274 372.058Z"/><path fill="#B0292C" d="M161.122 386.85C160.705 386.772 160.707 386.818 160.305 386.941C158.476 385.963 157.818 381.799 158.994 380.197L159.621 380.406C159.275 383.32 159.397 384.392 161.122 386.85Z"/><path fill="#B0292C" d="M93.2161 387.223L92.8715 387.461C91.0711 387.063 90.1406 383.696 89.9808 382.096L90.2803 382.461L90.6116 382.417C90.8432 381.74 90.6684 379.599 90.6365 378.733L91.0509 378.742C90.9238 382.148 90.9023 384.381 93.2161 387.223Z"/><path fill="#B0292C" d="M162.796 369.252C165.596 368.97 166.982 368.625 169.71 367.876C168.175 368.92 166.956 369.858 165.1 370.242L163.573 370.194C163.684 370.024 163.769 369.893 163.871 369.716L162.796 369.252Z"/><path fill="#B0292C" d="M87.7802 302.329C87.6515 304.106 87.507 304.954 87.1533 306.682L86.6263 305.77C86.9861 304.384 87.2401 303.658 87.7802 302.329Z"/><path fill="#FEE3C9" d="M54.1442 101.433C43.1893 86.9524 33.3328 71.3126 29.4025 53.3639C27.7058 46.7888 28.4997 34.8124 35.8448 31.9574C42.4045 29.4076 50.5316 37.286 53.9067 42.063C62.7736 54.6126 69.5085 69.1646 74.7019 83.5123C79.1689 95.2006 82.7045 107.224 85.2755 119.47C82.1536 121.022 77.808 124.052 75.3807 125.138C68.64 119.269 59.0473 108.933 54.1442 101.433Z"/><path fill="#FEC0A3" d="M74.7019 83.5123C79.1689 95.2006 82.7045 107.224 85.2755 119.47C82.1536 121.022 77.808 124.052 75.3807 125.138C68.64 119.269 59.0473 108.933 54.1442 101.433C55.2527 98.2913 62.3981 94.6439 65.0864 91.8876C67.6787 89.2296 71.7438 85.7386 74.7019 83.5123Z"/><path fill="#FDA489" d="M212.413 83.1992C211.959 81.4739 210.724 78.2328 210.419 76.7424C209.859 73.9946 208.231 61.1909 208.992 58.958L209.306 58.9003C209.743 59.5976 209.606 60.2999 209.811 61.0737C212.601 71.6205 218.666 81.9821 226.367 89.6134C234.434 97.6073 243.158 104.123 254.295 106.836C255.292 107.076 256.062 107.197 257.092 107.061L257.692 107.418C256.863 107.893 254.851 107.272 253.84 107.023C240.565 103.743 229.751 94.5651 221.115 84.3479C216.985 79.4623 215.029 74.4705 212.04 68.991C211.439 67.8879 210.697 64.5102 209.849 63.6654C208.894 64.9499 210.088 72.2195 210.342 74.2297C212.013 87.4473 223.758 98.6161 233.577 106.581C234.709 107.499 240.448 110.133 242.106 110.881C242.938 111.255 244.759 111.166 245.684 111.814L245.588 112.059C242.658 112.276 235.204 108.12 232.625 106.19C231.338 105.227 228.898 103.104 227.754 102.406C223.588 108.622 216.739 114.89 210.082 118.109C206.004 116.556 201.311 114.671 197.404 112.79C197.971 101.077 203.061 90.3497 212.413 83.1992Z"/><path fill="#B0292C" d="M212.413 83.1992C211.959 81.4739 210.724 78.2328 210.419 76.7424C209.859 73.9946 208.231 61.1909 208.992 58.958L209.306 58.9003C209.743 59.5976 209.606 60.2999 209.811 61.0737C212.601 71.6205 218.666 81.9821 226.367 89.6134C234.434 97.6073 243.158 104.123 254.295 106.836C255.292 107.076 256.062 107.197 257.092 107.061L257.692 107.418C256.863 107.893 254.851 107.272 253.84 107.023C240.565 103.743 229.751 94.5651 221.115 84.3479C216.985 79.4623 215.029 74.4705 212.04 68.991C211.439 67.8879 210.697 64.5102 209.849 63.6654C208.894 64.9499 210.088 72.2195 210.342 74.2297C212.013 87.4473 223.758 98.6161 233.577 106.581C234.709 107.499 240.448 110.133 242.106 110.881C242.938 111.255 244.759 111.166 245.684 111.814L245.588 112.059C242.658 112.276 235.204 108.12 232.625 106.19C231.338 105.227 228.898 103.104 227.754 102.406C220.938 96.3058 216.92 91.0014 212.413 83.1992Z"/><path fill="#FC7369" fill-opacity="0.24313726" d="M142.226 375.056C144.007 375.207 156.481 374.908 156.889 375.206C156.561 375.772 156.282 375.817 155.655 376.11C154.017 376.534 154.355 379.255 153.54 379.964L152.982 379.36C152.028 379.48 152.374 379.321 151.666 379.943C151.933 380.587 151.974 380.684 152.443 381.197L152.384 381.46C153.349 381.975 152.502 382.668 153.549 382.722L153.785 382.588C154.521 392.667 161.542 393.506 169.933 394.932C169.107 394.945 168.989 394.941 168.283 395.361L168.467 395.574C170.804 395.8 174.293 397.1 176.07 397.128C181.501 397.214 187.661 397.225 193.105 397.255C195.056 397.265 199.049 395.613 201.156 395.457C202.986 395.322 209.737 393.807 210.796 392.681L210.463 392.058C214.313 389.446 216.136 388.114 216.278 383.197L216.694 383.63C217.204 383.064 217.211 382.313 217.395 381.46C218.165 381.301 219.864 380.956 220.556 381.022C223.612 381.314 234.796 383.475 237.007 384.82C235.957 384.759 234.398 384.643 233.541 385.244L233.755 385.71C235.152 386.184 235.4 384.842 237.178 385.502C237.145 385.858 237.102 386.214 237.049 386.568C238.899 386.866 238.181 385.4 240.606 387.039L240.775 387.354L242.373 387.759L242.378 387.989C241.511 388.127 241.657 387.96 241.245 388.481L241.496 388.982L241.083 389.402L241.747 389.564L242.165 389.279C242.119 388.905 242.148 388.84 242.001 388.513C242.485 388.813 242.489 388.784 242.91 389.159C242.634 390.868 243.649 390.069 242.962 391.145C241.499 391.494 241.406 389.957 240.125 391.87C239.998 392.06 238.457 391.874 238.157 391.99C236.228 392.735 234.182 394.037 232.78 395.557C235.956 394.325 238.849 393.711 242.026 392.61C237.829 396.27 211.105 400.071 205.059 400.22C204.368 400.209 197.515 400.123 197.584 400.096C196.91 401.072 197.263 400.827 196.288 401.185C195.592 401.109 194.386 400.722 194.12 400.524C193.659 400.65 192.065 401.272 191.641 401.198C183.785 399.816 171.16 400.945 163.383 401.992C155.443 403.061 103.75 399.331 100.045 401.723L100.062 401.305L99.6236 400.924C97.7004 400.706 93.9591 399.501 92.5955 400.306L92.493 401.037C91.4993 400.403 79.6362 399.256 77.691 399.233C68.902 397.822 57.1746 396.095 49.4646 391.724L48.7186 389.08C51.3418 386.056 59.3173 383.875 63.2145 383.225C68.2917 382.379 77.9603 378.506 80.4779 384.595L80.5598 384.796L80.9005 384.576C80.996 389.963 84.3379 392.23 89.1715 393.614L88.6704 393.809C89.4278 394.254 92.0627 394.705 93.0834 394.925C92.3561 394.998 91.6349 395.084 90.9045 395.103C91.8094 395.792 102.957 397.208 104.739 397.112C109.863 396.837 114.951 397.082 120.084 397.053C120.75 397.049 128.255 395.659 128.616 395.27C127.852 394.92 127.487 394.977 126.668 394.99C126.949 394.939 127.229 394.884 127.508 394.826C140.027 392.239 145.327 389.074 142.226 375.056ZM222.871 397.339L227.428 396.977C228.546 396.395 230.585 395.769 231.145 395.324C230.66 394.746 228.624 394.849 227.876 394.87C226.501 396.382 224.821 396.502 222.871 397.339ZM213.287 399.216C214.105 398.975 214.954 398.847 215.485 398.241C215.26 397.697 215.374 397.881 214.749 397.537C213.955 397.835 213.006 398.043 212.534 398.615C212.836 398.992 212.824 399.034 213.287 399.216Z"/><path fill="#FC7369" fill-opacity="0.34901962" d="M227.876 394.87C228.624 394.849 230.66 394.746 231.145 395.324C230.585 395.769 228.546 396.395 227.428 396.977L222.871 397.339C224.821 396.502 226.501 396.382 227.876 394.87Z"/><path fill="#FC7369" fill-opacity="0.36862746" d="M214.749 397.537C215.374 397.881 215.26 397.697 215.485 398.241C214.954 398.847 214.105 398.975 213.287 399.216C212.824 399.034 212.836 398.992 212.534 398.615C213.006 398.043 213.955 397.835 214.749 397.537Z"/><path fill="#FC7369" fill-opacity="0.12156863" d="M77.691 399.233C79.6362 399.256 91.4993 400.403 92.493 401.037C94.7848 401.161 98.1626 401.726 100.045 401.723C103.75 399.331 155.443 403.061 163.383 401.992C171.16 400.945 183.785 399.816 191.641 401.198C192.065 401.272 193.659 400.65 194.12 400.524C194.386 400.722 195.592 401.109 196.288 401.185C197.263 400.827 196.91 401.072 197.584 400.096C197.515 400.123 204.368 400.209 205.059 400.22C201.697 400.886 198.174 401.248 194.751 401.399C193.208 401.467 191.508 401.333 189.991 401.543C189.638 401.592 189.376 401.742 189.085 401.935C187.384 403.062 177.621 401.661 173.87 403L139.375 403C135.164 401.651 122.975 402.473 117.994 402.326C104.304 401.92 91.1967 402.191 77.691 399.233Z"/><path fill="#FC7369" fill-opacity="0.098039217" d="M169.933 394.932C181.227 396.345 200.048 396.551 210.463 392.058L210.796 392.681C209.737 393.807 202.986 395.322 201.156 395.457C199.049 395.613 195.056 397.265 193.105 397.255C187.661 397.225 181.501 397.214 176.07 397.128C174.293 397.1 170.804 395.8 168.467 395.574L168.283 395.361C168.989 394.941 169.107 394.945 169.933 394.932Z"/><path fill="#FC7369" fill-opacity="0.10196079" d="M126.668 394.99C127.487 394.977 127.852 394.92 128.616 395.27C128.255 395.659 120.75 397.049 120.084 397.053C114.951 397.082 109.863 396.837 104.739 397.112C102.957 397.208 91.8094 395.792 90.9045 395.103C91.6349 395.084 92.3561 394.998 93.0834 394.925C92.0627 394.705 89.4278 394.254 88.6704 393.809L89.1715 393.614C101.127 396.225 114.513 396.522 126.668 394.99Z"/><path fill="#FC7369" fill-opacity="0.37254903" d="M232.78 395.557C234.182 394.037 236.228 392.735 238.157 391.99C238.457 391.874 239.998 392.06 240.125 391.87C241.406 389.957 241.499 391.494 242.962 391.145C243.649 390.069 242.634 390.868 242.91 389.159C242.489 388.784 242.485 388.813 242.001 388.513C242.148 388.84 242.119 388.905 242.165 389.279L241.747 389.564L241.083 389.402L241.496 388.982L241.245 388.481C241.657 387.96 241.511 388.127 242.378 387.989L242.373 387.759L240.775 387.354L240.606 387.039C238.181 385.4 238.899 386.866 237.049 386.568C237.102 386.214 237.145 385.858 237.178 385.502C235.4 384.842 235.152 386.184 233.755 385.71L233.541 385.244C234.398 384.643 235.957 384.759 237.007 384.82C239.243 385.699 244.798 387.255 244.558 390.358C244.034 391.534 243.157 392.086 242.026 392.61C238.849 393.711 235.956 394.325 232.78 395.557Z"/><path fill="#FC7369" fill-opacity="0.27058825" d="M92.493 401.037L92.5955 400.306C93.9591 399.501 97.7004 400.706 99.6236 400.924L100.062 401.305L100.045 401.723C98.1626 401.726 94.7848 401.161 92.493 401.037Z"/><path fill="#FC7369" fill-opacity="0.054901961" d="M153.785 382.588L153.549 382.722C152.502 382.668 153.349 381.975 152.384 381.46L152.443 381.197C151.974 380.684 151.933 380.587 151.666 379.943C152.374 379.321 152.028 379.48 152.982 379.36L153.54 379.964C154.355 379.255 154.017 376.534 155.655 376.11C154.354 378.818 154.076 379.597 153.785 382.588Z"/></svg>