<?xml version="1.0" encoding="utf-8" ?>
<svg xmlns="http://www.w3.org/2000/svg"
  xmlns:xlink="http://www.w3.org/1999/xlink" width="896" height="1152" viewBox="0 0 896 1152">
  <!-- <path fill="white" d="M0 0L896 0L896 1152L0 1152L0 0Z" /> -->
  <defs>
    <linearGradient id="gradient_0" gradientUnits="userSpaceOnUse" x1="383.16058" y1="1115.3263" x2="460.64764"
      y2="58.400555">
      <stop offset="0" stop-color="#B9252C" />
      <stop offset="1" stop-color="#FF6F66" />
    </linearGradient>
  </defs>
  <path fill="url(#gradient_0)"
    d="M184.203 425.863C177.858 423.683 169.434 416.723 163.953 412.41C97.4955 360.115 45.4916 282.546 22.9862 200.942C8.02224 146.683 1.19746 67.4942 62.275 39.1895C85.834 28.2717 115.039 30.0915 138.96 38.7348C216.837 67.245 271.424 147.605 303.699 220.461C315.067 246.124 333.403 296.277 335.554 324.017C371.651 307.874 410.319 298.246 449.77 295.578C459.889 294.9 470.935 295.386 481.133 295.151C505.756 294.583 525.027 295.912 549.25 301.04C551.455 297.849 552.734 293.032 553.835 289.345C564.217 254.582 583.499 222.643 609.949 197.736C614.982 192.997 619.956 187.923 625.758 183.756C642.104 171.995 660.651 163.646 680.294 159.207C697.011 155.34 706.736 155.55 723.476 155.391C771.642 154.933 815.897 167.482 857.279 192.184C906.066 221.306 892.9 277.474 868.993 318.355C857.393 338.191 837.866 354.114 815.2 359.068C801.872 361.861 785.852 361.722 772.461 358.928C768.73 358.149 754.155 352.107 751.86 354.497C746.453 360.125 737.25 374.669 730.961 381.415C730.852 381.532 730.227 382.624 730.131 382.795C740.38 392.589 750.884 401.161 760.863 411.249C836.637 487.853 876.688 632.636 793.155 718.327C767.747 744.391 734.134 763.093 700.258 775.987C690.408 779.789 680.357 782.249 670.613 785.763L671.149 786.305C675.716 790.851 681.296 794.004 686.094 798.163C718.704 826.429 743.517 860.899 760.889 900.114C782.894 949.786 768.403 1000.19 710.164 1010.26C709.083 1014.61 708.884 1018.68 708.229 1023.23C706.752 1033.49 703.657 1044.87 703.664 1055.15C703.665 1057.53 706.188 1064.31 706.842 1066.95C712.573 1067.42 726.707 1069.1 731.89 1070.14C744.036 1072.55 795.87 1084.25 802.03 1091.8C802.945 1092.91 803.321 1094.37 803.057 1095.78C802.446 1099.03 799.095 1101.49 796.421 1103.1C764.796 1122.11 648.203 1131.21 605.848 1133.18C556.339 1135.47 506.479 1135.41 456.924 1134.9C424.657 1134.57 392.271 1134.62 360.063 1132.39C348.153 1131.56 335.895 1130.7 324.069 1129.1C317.53 1128.21 311.106 1126.61 304.56 1125.74C280.165 1122.52 255.348 1119.57 231.493 1113.37C220.035 1110.39 206.539 1106.67 196.486 1100.32C194.247 1098.87 192.267 1097 190.263 1095.23C192.037 1093.76 194.224 1092.16 196.082 1090.74C200.61 1088.2 209.298 1084.01 214.167 1082.48C228.788 1077.87 279.584 1064.47 292.731 1065.47C297.475 1048.32 290.41 1028.97 288.046 1011.35C285.6 993.115 284.103 979.01 284.266 960.616C275.377 957.538 266.04 954.955 258.983 948.549C219.026 912.278 243.702 856.08 268.722 819.131C273.031 812.768 276.914 807.101 281.9 801.429C266.868 796.539 249.637 793.636 234.911 788.493C193.442 773.784 153.234 748.411 133.049 707.795C105.076 651.507 106.193 585.771 124.762 526.825C138.371 483.626 158.008 460.369 184.203 425.863Z" />
  <path fill="#F6D7D5"
    d="M480.57 1064.73C492.24 1062.93 509.695 1063.96 522.226 1063.41C510.482 1101.22 550.969 1109.14 578.614 1112.56C610.077 1116.46 641.14 1116.03 672 1108.05C695.204 1102.41 714.052 1095.19 706.842 1066.95C712.573 1067.42 726.707 1069.1 731.89 1070.14C744.036 1072.55 795.87 1084.25 802.03 1091.8C802.945 1092.91 803.321 1094.37 803.057 1095.78C802.446 1099.03 799.095 1101.49 796.421 1103.1C764.796 1122.11 648.203 1131.21 605.848 1133.18C556.339 1135.47 506.479 1135.41 456.924 1134.9C424.657 1134.57 392.271 1134.62 360.063 1132.39C348.153 1131.56 335.895 1130.7 324.069 1129.1C317.53 1128.21 311.106 1126.61 304.56 1125.74C280.165 1122.52 255.348 1119.57 231.493 1113.37C220.035 1110.39 206.539 1106.67 196.486 1100.32C194.247 1098.87 192.267 1097 190.263 1095.23C192.037 1093.76 194.224 1092.16 196.082 1090.74C200.61 1088.2 209.298 1084.01 214.167 1082.48C228.788 1077.87 279.584 1064.47 292.731 1065.47C290.558 1074.84 289.043 1084.53 294.462 1093.12C301.059 1103.58 316.454 1107.89 327.907 1110.38C360.384 1117.44 443.464 1120.02 471.756 1101.59C477.515 1097.84 481.229 1092.35 482.528 1085.59C483.872 1078.6 482.389 1071.5 480.57 1064.73Z" />
  <path fill="#F7E1E1"
    d="M190.263 1095.23C192.037 1093.76 194.224 1092.16 196.082 1090.74C196.172 1093.87 196.207 1097.22 196.486 1100.32C194.247 1098.87 192.267 1097 190.263 1095.23Z" />
  <path fill="#FE776B"
    d="M165.678 702.131C163.529 699.803 161.07 694.14 159.496 691.11C150.441 673.684 145.097 658.123 141.128 638.914C131.533 592.487 135.699 541.215 154.924 497.713C161.083 483.776 173.307 464.46 182.28 451.316C194.854 432.901 213.332 411.792 230.191 397.121C236.358 391.753 246.572 386.356 253.132 381.351C274.797 364.823 298.888 348.988 324.58 339.538C332.753 336.532 341.215 335.23 349.214 332.36C369.519 325.075 389.223 318.964 410.462 314.902C436.831 309.798 463.681 307.598 490.53 308.341C539.541 309.932 604.646 325.357 648.984 346.05C663.677 353.973 678.596 362.751 692.393 372.105C752.873 413.105 797.358 471.397 809.794 544.608C814.673 573.333 819.744 621.563 802.663 646.633C796.185 674.204 754.333 717.94 729.979 730.98C680.804 765.199 610.644 783.228 552.296 792.625C548.737 792.292 540.052 794.429 536.261 795.199C508.903 800.756 480.989 800.56 453.204 800.522C450.223 800.518 447.297 800.411 444.326 800.618C443.306 795.609 440.077 788.944 437.968 784.109C441.228 778.542 442.27 774.669 441.24 768.227C435.614 733.031 410.855 705.154 372.778 711.011C339.323 716.157 318.579 741.189 299.615 766.741C297.739 770.695 292.782 777.384 289.517 780.375C250.417 776.132 185.459 737.014 165.678 702.131Z" />
  <defs>
    <linearGradient id="gradient_1" gradientUnits="userSpaceOnUse" x1="500.12878" y1="798.69897" x2="480.71588"
      y2="576.82507">
      <stop offset="0" stop-color="#FFC5A6" />
      <stop offset="1" stop-color="#FFEBD1" />
    </linearGradient>
  </defs>
  <path fill="url(#gradient_1)"
    d="M359.988 647.213C363.835 647.555 375.298 639.121 378.104 636.463C408.101 608.043 443.392 577.902 486.696 575.87C514.895 574.547 541.376 575.92 567.385 587.912C573.398 590.71 579.212 592.116 584.315 596.704C586.911 599.689 591.488 605.38 594.45 607.76C613.289 622.9 636.654 628.534 658.973 617.773C664.728 634.348 700.164 647.498 716.293 649.131C722.54 649.764 747.121 651.609 752.258 650.369C757.077 650.407 762.738 649.155 767.512 648.22C782.834 643.704 793.035 640.514 801.444 626.337C802.108 633.306 803.502 639.705 802.663 646.633C796.185 674.204 754.333 717.94 729.979 730.98C680.804 765.199 610.644 783.228 552.296 792.625C548.737 792.292 540.052 794.429 536.261 795.199C508.903 800.756 480.989 800.56 453.204 800.522C450.223 800.518 447.297 800.411 444.326 800.618C443.306 795.609 440.077 788.944 437.968 784.109C441.228 778.542 442.27 774.669 441.24 768.227C435.614 733.031 410.855 705.154 372.778 711.011C339.323 716.157 318.579 741.189 299.615 766.741C296.116 769.298 290.951 779.517 287.573 778.866C252.599 772.129 214.546 751.454 188.795 727.689C189.018 717.85 186.961 713.766 178.456 709.051C176.841 708.155 177.043 707.016 176.891 705.378C178.115 703.504 179.422 701.203 182.29 702.248C189.07 704.72 195.053 707.079 202.125 709.071C216.475 713.113 236.151 712.158 251.086 708.666C271.373 702.946 301.729 693.219 309.931 671.825C311.416 667.953 307.453 659.483 310.551 655.479C329.817 660.08 343.302 656.916 359.988 647.213Z" />
  <path fill="#FEAA8F"
    d="M767.512 648.22C782.834 643.704 793.035 640.514 801.444 626.337C802.108 633.306 803.502 639.705 802.663 646.633C796.185 674.204 754.333 717.94 729.979 730.98C732.263 726.588 739.637 723.803 743 720.85C764.955 701.568 802.408 668.868 801.793 636.931L797.761 633.799C791.871 639.655 775.894 649.866 767.512 648.22Z" />
  <path fill="#F34E4D"
    d="M495.581 595.287C505.349 594.365 518.379 594.792 523.21 604.708C530.179 619.013 512.877 639.635 501.038 645.801C491.403 650.818 483.171 650.093 473.518 647.019C471.179 646.168 468.878 645.219 466.619 644.175C426.543 625.675 447.398 587.613 479.419 604.936C479.883 604.245 480.358 603.56 480.841 602.882C485.119 596.915 488.8 596.41 495.581 595.287Z" />
  <path fill="#371A1A"
    d="M560.357 644.746C561.543 644.694 562.083 644.775 563.251 644.895C563.662 645.4 564.214 646.109 564.268 646.809C565.665 664.962 547.925 678.322 531.247 681.022C519.233 682.966 504.949 681.106 493.899 674.379C472.092 694.457 438.084 693.706 417.02 672.794C406.212 660.552 416.75 651.935 426.518 662.008C440.327 676.249 458.19 677.687 476.128 670.605C480.928 668.709 486.083 664.293 491.685 662.075L492.354 661.816C499.619 662.443 505.369 664.887 512.345 666.555C524.958 669.459 538.385 667.004 547.175 656.96C551.421 652.108 554.367 647.315 560.357 644.746Z" />
  <path fill="#371A1A"
    d="M584.315 596.704C575.704 581.661 571.277 571.749 570.568 553.4C568.319 495.172 631.638 458.486 675.445 502.652C691.814 519.156 696.944 537.254 696.685 560.748C694.853 587.286 682.02 605.222 658.973 617.773C636.654 628.534 613.289 622.9 594.45 607.76C591.488 605.38 586.911 599.689 584.315 596.704Z" />
  <path fill="white"
    d="M599.685 511.152C605.01 509.586 610.766 511.007 614.752 514.87C618.738 518.734 620.337 524.444 618.938 529.816C617.539 535.188 613.358 539.391 607.994 540.82C599.847 542.989 591.47 538.206 589.197 530.087C586.923 521.969 591.597 513.531 599.685 511.152Z" />
  <path fill="#371A1A"
    d="M265.454 618.665C263.374 613.864 261.694 608.898 260.433 603.819C255.604 583.945 258.929 562.964 269.666 545.557C278.328 531.645 290.586 523.078 306.565 519.364C309.209 520.835 330.505 520.806 333.04 519.373C370.474 527.764 388.847 574.384 380.806 609.471C380.53 610.677 380.325 611.475 379.864 612.621C376.939 625.068 370.426 638.964 359.912 646.732L359.988 647.213C343.302 656.916 329.817 660.08 310.551 655.479C289.98 650.261 274.515 637.903 265.454 618.665Z" />
  <path fill="#080303"
    d="M359.912 646.732C359.312 646.132 359.066 645.729 358.563 645.045C358.708 641.812 365.435 635.882 367.843 632.202C372.141 625.636 373.606 618.468 377.084 612.294C377.314 612.956 377.273 613.162 377.223 613.843C378.508 612.989 378.637 612.558 379.864 612.621C376.939 625.068 370.426 638.964 359.912 646.732Z" />
  <path fill="white"
    d="M335.683 538.948C341.494 537.795 347.476 539.859 351.34 544.35C355.204 548.84 356.353 555.063 354.348 560.638C352.342 566.212 347.492 570.277 341.653 571.276C332.788 572.793 324.349 566.903 322.716 558.058C321.082 549.213 326.861 540.697 335.683 538.948Z" />
  <path fill="#FEAA8F"
    d="M696.685 560.748C701.791 558.993 707.528 559.4 712.808 558.435C741.04 553.275 776.263 556.518 788.02 587.342C791.807 597.269 793.125 611.209 787.83 621.066C783.011 629.465 772.076 641.824 762.195 644.595C758.535 645.622 749.904 646.908 747.17 648.068C747.954 648.66 747.53 648.39 748.449 648.865C747.468 649.562 747.398 649.473 746.188 649.691L746.06 649.951L752.258 650.369C747.121 651.609 722.54 649.764 716.293 649.131C700.164 647.498 664.728 634.348 658.973 617.773C682.02 605.222 694.853 587.286 696.685 560.748Z" />
  <path fill="#FEAA8F"
    d="M243.523 705.478C228.938 709.301 205.353 707.545 193.189 697.363C146.817 658.544 192.324 616.995 238.817 618.212C245.586 618.389 257.824 619.322 264.646 618.739L265.454 618.665C274.515 637.903 289.98 650.261 310.551 655.479C307.453 659.483 311.416 667.953 309.931 671.825C301.729 693.219 271.373 702.946 251.086 708.666C236.151 712.158 216.475 713.113 202.125 709.071C195.053 707.079 189.07 704.72 182.29 702.248C179.422 701.203 178.115 703.504 176.891 705.378C177.043 707.016 176.841 708.155 178.456 709.051C186.961 713.766 189.018 717.85 188.795 727.689C214.546 751.454 252.599 772.129 287.573 778.866C290.951 779.517 296.116 769.298 299.615 766.741C297.739 770.695 292.782 777.384 289.517 780.375C250.417 776.132 185.459 737.014 165.678 702.131L166.388 701.805C168.214 703.991 169.051 706.915 172.358 707.076C175.484 699.134 176.286 702.412 178.154 699.404C176.489 697.523 175.747 697.496 173.428 697.862C172.528 698.63 172.049 699.245 170.897 699.304L170.9 698.287C173.885 694.253 176.537 697.199 179.988 699.232C196.093 708.722 216.54 712.635 235.02 709.491C237.034 709.148 241.048 709.693 242.689 709.16C246.107 708.05 257.638 706.783 260.02 705.157C257.571 702.544 251.51 703.785 248.894 703.222C242.534 701.852 239.667 690.748 237.168 685.652C235.832 682.927 234.812 681.671 233.36 679.244C231.256 675.73 225.041 675.258 222.234 672.246C217.946 667.644 216.946 659.085 211.678 655.143C209.465 653.487 203.546 652.362 200.866 650.679C199.698 649.945 200.001 647.876 199.649 645.966C197.655 644.769 198.927 645.415 196.348 646.663C195.348 646.791 191.106 645.172 190.57 645.451C185.808 647.929 182.456 659.63 176.628 660.862L175.877 659.673C171.748 667.602 178.238 680.287 183.604 686.759C203.556 710.816 215.653 704.518 243.523 705.478Z" />
  <path fill="#080303"
    d="M306.565 519.364C314.234 517.065 325.387 517.168 333.04 519.373C330.505 520.806 309.209 520.835 306.565 519.364Z" />
  <path fill="#B42D31"
    d="M306.639 447.375C316.01 446.196 329.206 447.443 336.18 454.814C338.241 456.992 340.017 459.451 339.891 462.576C338.977 464.092 338.774 464.261 336.867 464.558C319.55 467.251 305.028 470.083 288.418 475.848C284.522 477.266 266.395 486.127 263.937 483.357C263.385 461.881 288.549 450.036 306.639 447.375Z" />
  <path fill="#B42D31"
    d="M603.935 411.986C604.39 411.961 604.846 411.94 605.301 411.923C617.088 411.468 630.93 415.168 639.168 424.274C642.74 428.224 642.955 431.416 643.096 436.501C631.109 436.436 621.523 434.091 609.016 434.339C599.428 435.069 590.964 437.062 581.662 439.165C579.609 439.629 577.018 439.733 574.968 439.294C573.769 438.379 572.843 437.395 572.873 435.77C573.166 420.317 591.08 412.847 603.935 411.986Z" />
  <path fill="#FE776B"
    d="M552.296 792.625C559.074 797.117 586.136 791.11 597.744 792.038C606.198 797.377 607.938 804.868 611.383 814.034C619.101 813.568 636.412 806.948 644.681 804.709C653.55 802.307 659.596 801.286 668.792 799.886C672.251 801.785 677.499 806.738 680.466 809.439C710.457 836.744 770.809 916.205 747.786 958.55C743.231 967.055 735.385 973.318 726.082 975.872C720.94 977.329 714.679 978.179 709.331 978.911C706.178 970.855 704.123 956.64 702.507 947.591C700.726 937.262 698.433 927.027 695.637 916.924C695.088 914.947 693.014 907.598 692.06 906.07L691.359 906.144C690.375 903.264 689.373 900.39 688.353 897.523C686.319 898.564 685.559 898.783 684.098 900.525C684.801 902.703 685.993 911.618 685.026 913.359C685.003 916.397 689.402 961.041 690.039 962.343L690.275 967.632C690.289 980.843 688.818 1031.78 682.63 1041.54C681.252 1042.38 679.706 1042.18 678.053 1042.19C677.807 1045.96 682.557 1051.24 683.576 1055.15C697.129 1107.05 627.864 1105.02 595.489 1103.33C578.073 1102.43 557.835 1098.42 545.948 1086.56C542.486 1082.85 540.886 1078.14 541.098 1073.24C541.582 1061.98 550.902 1058.39 557.519 1051.57C556.738 1049.52 558.579 1051.93 558.641 1047.23C557.59 1045.57 558.281 1046.15 556.544 1045.36C554.653 1045.71 554.173 1045.64 552.288 1045.22C548.358 1045.17 542.838 1046.14 538.815 1046.71C511.501 1050.59 482.614 1050 455.28 1046.36C453.1 1046.07 450.691 1045.64 448.542 1045.56C445.532 1047.24 445.639 1047.37 445.02 1050.91C461.517 1061.61 472.273 1083 449.599 1095.15C436.453 1102.19 408.602 1103.48 393.63 1104.29C370.051 1105.56 331.803 1104.59 318.603 1081.27C312.908 1071 317.88 1058.74 321.615 1048.82C313.648 1022.15 309.24 990.354 312.492 962.554C330.902 956.974 343.481 951.266 358.386 938.556C363.967 933.798 366.778 928.727 373.301 925.906L373.319 926.194L373.816 926.21L374.509 923.884C376.151 919.49 378.466 915.358 380.654 911.203C387.863 896.364 391.156 886.912 394.422 870.471C395.448 865.304 397.112 854.911 398.538 850.477C412.639 847.307 420.136 846.757 430.945 837.282C432.818 835.535 434.676 833.393 436.417 831.488C443.992 820.602 444.641 813.404 444.326 800.618C447.297 800.411 450.223 800.518 453.204 800.522C480.989 800.56 508.903 800.756 536.261 795.199C540.052 794.429 548.737 792.292 552.296 792.625Z" />
  <defs>
    <linearGradient id="gradient_2" gradientUnits="userSpaceOnUse" x1="486.74933" y1="1024.9453" x2="520.99438"
      y2="801.46655">
      <stop offset="0" stop-color="#FFC3A4" />
      <stop offset="1" stop-color="#FFEDD1" />
    </linearGradient>
  </defs>
  <path fill="url(#gradient_2)"
    d="M552.296 792.625C559.074 797.117 586.136 791.11 597.744 792.038C606.198 797.377 607.938 804.868 611.383 814.034L611.294 814.389C638.147 879.646 647.118 976.247 571.45 1012.37C571.094 1012.54 570.771 1012.62 570.402 1012.71C567.486 1012.77 557.416 1016.72 554.015 1017.96C533.715 1025.4 512.327 1024.43 490.964 1024.19C484.954 1024.15 478.955 1023.67 473.016 1022.75C470.694 1022.39 465.177 1020.73 463.517 1021.66C447.186 1019.95 417.513 1002.06 404.763 991.094C387.085 975.891 375.738 947.063 374.509 923.884C376.151 919.49 378.466 915.358 380.654 911.203C387.863 896.364 391.156 886.912 394.422 870.471C395.448 865.304 397.112 854.911 398.538 850.477C412.639 847.307 420.136 846.757 430.945 837.282C432.818 835.535 434.676 833.393 436.417 831.488C443.992 820.602 444.641 813.404 444.326 800.618C447.297 800.411 450.223 800.518 453.204 800.522C480.989 800.56 508.903 800.756 536.261 795.199C540.052 794.429 548.737 792.292 552.296 792.625Z" />
  <path fill="#FEAA8F"
    d="M552.296 792.625C559.074 797.117 586.136 791.11 597.744 792.038C606.198 797.377 607.938 804.868 611.383 814.034L611.294 814.389C608.61 813.71 551.023 827.515 541.945 829.16C533.159 830.753 524.114 831.963 515.222 832.776C501.739 834.011 488.01 834.337 474.475 834.889C464.201 835.309 452.814 836.495 442.63 835.13C440.838 834.89 439.592 834.49 438.151 833.389L436.417 831.488C443.992 820.602 444.641 813.404 444.326 800.618C447.297 800.411 450.223 800.518 453.204 800.522C480.989 800.56 508.903 800.756 536.261 795.199C540.052 794.429 548.737 792.292 552.296 792.625Z" />
  <path fill="#FEAA8F"
    d="M430.945 837.282C431.578 840.823 432.706 840.631 433.611 843.102C426.379 864.514 412.026 886.722 395.923 902.614C393.145 905.355 390.171 908.267 386.9 910.383C386.272 910.777 382.141 910.738 380.654 911.203C387.863 896.364 391.156 886.912 394.422 870.471C395.448 865.304 397.112 854.911 398.538 850.477C412.639 847.307 420.136 846.757 430.945 837.282Z" />
  <path fill="#FEAA8F"
    d="M436.417 831.488L438.151 833.389C433.546 835.213 435.024 838.861 433.611 843.102C432.706 840.631 431.578 840.823 430.945 837.282C432.818 835.535 434.676 833.393 436.417 831.488Z" />
  <path fill="#FEAA8F"
    d="M463.517 1021.66C465.177 1020.73 470.694 1022.39 473.016 1022.75C478.955 1023.67 484.954 1024.15 490.964 1024.19C512.327 1024.43 533.715 1025.4 554.015 1017.96C557.416 1016.72 567.486 1012.77 570.402 1012.71C544.031 1027.35 493.959 1030.38 465.048 1022.26C464.44 1022.09 464.075 1021.94 463.517 1021.66Z" />
  <defs>
    <linearGradient id="gradient_3" gradientUnits="userSpaceOnUse" x1="670.90973" y1="874.13416" x2="690.51227"
      y2="894.07489">
      <stop offset="0" stop-color="#C41319" />
      <stop offset="1" stop-color="#A31F2A" />
    </linearGradient>
  </defs>
  <path fill="url(#gradient_3)"
    d="M676.429 864.493C680.317 874.245 689.68 896.366 692.06 906.07L691.359 906.144C690.375 903.264 689.373 900.39 688.353 897.523C686.319 898.564 685.559 898.783 684.098 900.525C684.801 902.703 685.993 911.618 685.026 913.359C684.233 909.585 683.935 904.195 683.169 900.094C681.221 889.669 678.534 876.599 675.039 866.732L676.429 864.493Z" />
  <path fill="#B42D31"
    d="M552.288 1045.22C557.282 1044.16 562.308 1043.26 567.358 1042.51C564.04 1046.37 561.829 1048.8 557.519 1051.57C556.738 1049.52 558.579 1051.93 558.641 1047.23C557.59 1045.57 558.281 1046.15 556.544 1045.36C554.653 1045.71 554.173 1045.64 552.288 1045.22Z" />
  <path fill="#B42D31"
    d="M432.973 1042.27C438.478 1043.69 442.938 1044.56 448.542 1045.56C445.532 1047.24 445.639 1047.37 445.02 1050.91C441.033 1048.66 436.671 1045.1 432.973 1042.27Z" />
  <path fill="#F34E4D"
    d="M675.039 866.732C673.668 862.454 672.078 858.375 672.195 853.861L672.198 855.656L673.97 855.82L672.244 856.1L674.131 856.244C674.912 858.998 675.747 861.713 676.429 864.493L675.039 866.732Z" />
  <path fill="#FE776B"
    d="M378.232 721.885C398.937 718.801 420.662 733.658 424.13 754.566C424.448 756.481 424.835 758.189 423.656 759.866C414.956 762.441 405.047 756.287 393.336 755.576C401.456 759.489 409.086 762.461 414.7 769.731C422.876 780.355 428.49 791.925 427.233 805.57C424.98 830.039 401.465 831.676 381.595 829.695C388.287 870.752 369.725 908.475 334.411 929.861C301.429 946.487 264.403 941.078 257.638 899.531C253.764 875.736 264.323 853.431 274.839 832.828C278.373 825.905 285.655 818.391 289.27 811.251C306.167 776.406 335.664 727.216 378.232 721.885Z" />
  <path fill="#FEE1C4"
    d="M172.946 312.775C153.825 292.481 128.902 252.937 116.232 228.264C102.432 201.391 84.6729 159.894 94.7435 129.392C96.5566 123.493 101.156 117.64 106.961 115.075C130.217 104.796 154.904 126.805 169.453 142.898C177.931 152.276 184.537 163.558 191.383 173.792C208.653 199.609 222.978 226.809 236.584 254.638C250.963 281.445 267.858 319.398 272.928 349.431C267.537 354.905 244.786 369.678 237.193 374.575C219.838 358.307 200.772 344.437 185.198 326.02C181.41 321.54 176.593 317.429 172.946 312.775Z" />
  <path fill="#FEAA8F"
    d="M236.584 254.638C250.963 281.445 267.858 319.398 272.928 349.431C267.537 354.905 244.786 369.678 237.193 374.575C219.838 358.307 200.772 344.437 185.198 326.02C181.41 321.54 176.593 317.429 172.946 312.775C175.783 309.245 178.271 304.439 181.975 300.005C192.846 286.994 204.627 275.895 217.601 265.079C222.948 260.622 235.131 256.315 236.584 254.638Z" />
  <path fill="#FEAA8F"
    d="M636.757 188.529L637.014 189.167C638.694 193.396 639.458 197.5 640.786 201.815C643.124 209.169 645.951 216.359 649.248 223.335C673.22 272.939 726.193 322.884 780.323 336.462C781.386 336.729 781.439 336.808 782.594 336.876C778.514 337.342 774.194 335.284 770.424 334.2C749.123 328.079 730.072 315.575 712.558 302.107C691.387 285.828 673.735 263.823 658.544 241.966C656.084 238.415 653.435 231.755 651.38 229.209C647.934 224.941 641.554 203.73 638.512 202.329L638.174 202.825L638.791 202.438C637.817 204.184 638.267 219.106 638.62 222.694C640.83 245.171 653.135 275.409 668.805 291.32C689.623 312.458 710.169 338.462 738.332 347.838C740.943 348.458 741.691 349.421 744 350.696C743.207 351.145 743.154 351.282 742.19 350.95C725.936 345.351 712.46 336.312 700.274 324.289C697.77 321.819 691.792 315.305 689.3 314.018C683.989 321.266 666.944 342.526 656.944 338.565C646.205 334.311 634.761 328.54 623.673 324.495C620.119 323.199 614.801 321.05 611.528 319.167C613.144 305.08 616.094 292.146 624.744 280.563C627.649 276.672 643.266 259.231 647.151 258.622C637.411 233.412 636.767 215.692 636.757 188.529Z" />
  <path fill="#B42D31"
    d="M636.757 188.529L637.014 189.167C638.694 193.396 639.458 197.5 640.786 201.815C643.124 209.169 645.951 216.359 649.248 223.335C673.22 272.939 726.193 322.884 780.323 336.462C781.386 336.729 781.439 336.808 782.594 336.876C778.514 337.342 774.194 335.284 770.424 334.2C749.123 328.079 730.072 315.575 712.558 302.107C691.387 285.828 673.735 263.823 658.544 241.966C656.084 238.415 653.435 231.755 651.38 229.209C647.934 224.941 641.554 203.73 638.512 202.329L638.174 202.825L638.791 202.438C637.817 204.184 638.267 219.106 638.62 222.694C640.83 245.171 653.135 275.409 668.805 291.32C689.623 312.458 710.169 338.462 738.332 347.838C740.943 348.458 741.691 349.421 744 350.696C743.207 351.145 743.154 351.282 742.19 350.95C725.936 345.351 712.46 336.312 700.274 324.289C697.77 321.819 691.792 315.305 689.3 314.018C669.326 294.537 658.998 283.906 647.151 258.622C637.411 233.412 636.767 215.692 636.757 188.529Z" />
  <path fill="#B42D31"
    d="M690.039 962.343L690.804 962.442L690.758 962.862L691.778 964.901L691.859 964.472C692.883 969.33 692.272 979.7 691.028 984.473C690.816 981.47 691.126 969.01 690.275 967.632L690.039 962.343Z" />
</svg>