<?xml version="1.0" encoding="utf-8" ?><svg xmlns="http://www.w3.org/2000/svg" xmlns:xlink="http://www.w3.org/1999/xlink" width="337" height="405" viewBox="0 0 337 405"><defs><linearGradient id="gradient_0" gradientUnits="userSpaceOnUse" x1="191.43454" y1="392.72614" x2="144.90016" y2="-10.919226"><stop offset="0" stop-color="#B92229"/><stop offset="1" stop-color="#FF6E67"/></linearGradient></defs><path fill="url(#gradient_0)" d="M61.1083 136.242C60.3036 135.939 59.534 135.549 58.8129 135.08C55.1546 132.667 50.8285 128.528 47.5672 125.426C26.3491 105.169 9.19264 78.8014 3.59608 49.7208C0.0161681 31.1191 1.52187 6.57532 24.623 2.72754C36.8932 0.683775 48.3929 5.14524 58.2117 12.2777C83.8681 30.9148 97.3884 62.422 106.234 91.9124C107.547 96.304 108.144 100.869 108.923 105.298C110.73 104.744 112.523 104.122 114.309 103.484C135.382 95.9627 158.843 94.1115 180.814 98.3592C183.105 98.8021 185.777 99.2479 187.872 100.264C188.107 94.8677 190.984 85.1926 192.823 80.0762C199.027 62.8071 209.896 45.3448 227.052 37.2676C243.969 29.303 266.63 31.753 283.78 37.9281C290.565 40.3712 296.904 43.8993 299.928 50.7706C303.05 57.8643 300.762 67.3747 297.993 74.2477C294.279 83.4691 288.563 93.8854 278.932 97.868C273.94 99.9321 267.316 101.059 262.221 99.0992C260.204 101.656 258.227 104.7 256.136 107.34C251.212 113.555 246.548 119.227 240.774 124.661C241.382 125.426 242.074 126.097 242.783 126.768C246.451 130.234 250.233 133.629 253.575 137.416C263.908 149.275 271.372 163.353 275.391 178.559C276.572 183.202 277.454 189.349 278.389 194.231C286.094 192.798 295.697 195.677 301.506 200.856C307.258 206.044 310.719 213.301 311.13 221.036C311.765 233.859 300.166 249.734 291.854 258.742C279.009 272.665 259.053 285.341 241.311 292.223C238.286 293.397 234.213 295.172 231.037 295.303C232.594 299.331 234.477 306.466 235.819 310.864C250.34 315.678 261.239 335.334 256.071 350.002C253.325 357.797 245.707 366.317 237.603 368.47C236.795 370.165 236.672 372.701 236.837 374.562C236.862 378.442 236.964 380.016 235.056 383.47C232.981 385.763 231.689 386.665 228.789 387.826C215.404 391.897 194.14 392.388 181.004 387.521C171.789 383.281 172.674 378.763 173.863 369.842C169.868 370.252 163 370.169 159.133 369.939C162.174 376.834 163.601 381.001 157.131 385.95C147.009 391.579 127.549 391.486 116.371 390.173C108.909 389.29 97.2601 388.28 98.6793 378.009C99.6278 374.753 100.097 372.91 99.3048 369.459C97.513 361.65 95.8415 354.125 95.402 346.107C90.8112 348.49 85.5588 348.821 80.6121 347.247C66.1265 342.638 62.1057 328.299 66.7339 314.822C68.0787 310.906 69.6755 307.702 71.9323 304.173C77.9466 294.1 85.76 285.297 95.0037 278.079C98.2863 275.51 99.5881 274.119 103.367 272.105C102.51 272.088 101.653 272.054 100.797 272.004C96.5246 271.734 89.8701 269.816 85.8839 268.426C71.9278 263.557 59.3586 256.782 49.6357 245.378C36.6982 230.203 33.2805 211.105 34.854 191.695C36.2378 174.626 43.1094 158.784 53.3004 145.13C55.7434 141.857 58.0371 138.906 61.1083 136.242Z"/><path fill="#FCAB8E" d="M236.161 313.49C235.896 312.923 235.843 311.521 235.819 310.864C250.34 315.678 261.239 335.334 256.071 350.002C253.325 357.797 245.707 366.317 237.603 368.47C237.444 366.657 238.415 354.298 238.899 352.582C239.97 338.709 238.172 327.039 236.161 313.49Z"/><path fill="#FEE1C4" d="M236.161 313.49L236.643 313.433C237.574 314.223 237.754 314.962 238.384 315.45C239.793 316.541 241.305 317.296 242.638 318.571C246.878 322.626 250.66 328.991 251.058 334.875C251.336 338.978 250.014 343.924 247.25 346.993C245.05 349.436 241.931 351.166 239.312 353.122C239.006 352.827 239.059 352.947 238.899 352.582C239.97 338.709 238.172 327.039 236.161 313.49Z"/><path fill="#FE766A" d="M51.3846 230.453C50.7433 229.665 49.6218 227.281 49.1449 226.299C44.4548 216.638 42.7337 205.291 42.5971 194.643C42.4319 181.757 45.2076 169.352 51.3585 157.989C52.7338 155.448 54.831 152.599 56.4773 150.144C59.436 145.733 62.4105 141.742 66.1856 137.978C87.1368 117.357 114.498 104.504 143.746 101.545C149.304 100.959 155.982 101.136 161.626 100.997C168.739 100.822 175.708 102.146 182.708 103.353C186.379 103.986 192.42 104.889 195.879 106.017C210.198 110.882 228.148 117.795 238.932 128.576C252.162 141.802 262.59 157.937 267.32 176.043C268.881 182.02 270.742 188.813 270.723 195.06C269.629 195.628 268.537 196.202 267.45 196.782C265.745 198.012 264.063 199.272 262.405 200.563C255.56 206.306 254.879 211.226 255.116 219.922C256.016 221.772 256.497 221.259 257.591 222.124C258.08 222.511 259.521 226.186 259.842 227.019C259.493 227.559 258.87 228.559 258.427 228.987L258.192 229.195C255.06 232.016 252.107 237.246 248.579 240.652C237.288 251.552 226.481 263.577 211.966 270.225C207.297 272.364 203.135 272.82 199.383 274.379C197.611 272.226 198.516 272.603 196.034 270.389C192.41 267.156 180.503 269.905 178.753 268.91L178.992 268.49C172.955 269.013 167.336 270.175 161.249 270.538C157.202 270.752 153.151 270.874 149.099 270.905C148.06 270.913 142.993 270.867 142.249 271.033C140.134 271.01 136.502 270.513 134.26 270.287C125.761 269.43 117.728 268.405 109.395 266.226C95.0702 262.439 79.9587 256.232 67.7696 247.711C62.7463 244.2 54.4733 235.682 51.3846 230.453Z"/><defs><linearGradient id="gradient_1" gradientUnits="userSpaceOnUse" x1="87.062202" y1="273.58832" x2="211.71986" y2="170.82054"><stop offset="0" stop-color="#FFBA9C"/><stop offset="1" stop-color="#FFECD3"/></linearGradient></defs><path fill="url(#gradient_1)" d="M124.861 195.736L125.162 195.75C125.831 196.308 125.777 196.956 126.006 197.976L126.408 198.18C128.169 197.952 131.746 195.068 133.484 194.02C147.257 185.717 164.663 185.427 179.605 190.546C183.015 191.715 187.128 194.151 190.691 195.667C192.474 197.179 197.933 201.227 199.899 201.896C207.493 204.478 219.688 200.563 226.468 205.301L226.623 205.596C229.351 210.857 226.827 214.282 232.084 219.015C236.267 222.782 251.563 220.62 253.577 221.839C253.142 223.779 250.763 225.778 251.14 226.974C252.293 225.953 254.482 221.411 255.116 219.922C256.016 221.772 256.497 221.259 257.591 222.124C258.08 222.511 259.521 226.186 259.842 227.019C259.493 227.559 258.87 228.559 258.427 228.987L258.192 229.195C255.06 232.016 252.107 237.246 248.579 240.652C237.288 251.552 226.481 263.577 211.966 270.225C207.297 272.364 203.135 272.82 199.383 274.379C197.611 272.226 198.516 272.603 196.034 270.389C192.41 267.156 180.503 269.905 178.753 268.91L178.992 268.49C172.955 269.013 167.336 270.175 161.249 270.538C157.202 270.752 153.151 270.874 149.099 270.905C148.06 270.913 142.993 270.867 142.249 271.033C140.134 271.01 136.502 270.513 134.26 270.287C125.761 269.43 117.728 268.405 109.395 266.226C95.0702 262.439 79.9587 256.232 67.7696 247.711C62.7463 244.2 54.4733 235.682 51.3846 230.453C51.38 229.473 51.1978 229.209 50.7797 228.357C51.6127 229.12 53.6943 231.457 54.6917 230.28C54.3677 228.88 52.2181 225.199 51.4063 223.757C52.0667 223.938 54.577 227.088 55.7344 227.915C58.9033 230.179 62.2622 230.85 66.0437 231.449C68.6343 232.093 72.0781 232.467 74.7242 232.424C74.4115 231.976 69.299 232.476 68.8354 231.266L69.8619 230.992L69.7381 230.654C68.2475 229.713 66.8286 230.501 65.782 229.96C59.2008 226.559 57.2417 224.304 54.3631 217.958C54.3635 217.943 54.3639 217.927 54.3643 217.911C52.0169 208.549 60.3872 202.295 68.6744 200.405C72.0412 199.637 79.8164 198.962 83.378 200.099C84.2629 200.382 84.8415 204.825 87.0939 206.069C87.445 206.573 87.8091 207.069 88.1859 207.554C91.4631 211.79 96.3113 214.523 101.632 215.135C114.64 216.683 123.503 208.277 124.861 195.736Z"/><path fill="#DE4D4C" d="M255.116 219.922C256.016 221.772 256.497 221.259 257.591 222.124C258.08 222.511 259.521 226.186 259.842 227.019C259.493 227.559 258.87 228.559 258.427 228.987L258.192 229.195C255.06 232.016 252.107 237.246 248.579 240.652C237.288 251.552 226.481 263.577 211.966 270.225C207.297 272.364 203.135 272.82 199.383 274.379C197.611 272.226 198.516 272.603 196.034 270.389C192.41 267.156 180.503 269.905 178.753 268.91L178.992 268.49C180.847 268.502 188.69 266.996 190.777 266.512C210.015 262.238 227.603 252.485 241.417 238.431C244.559 235.275 248.795 230.749 251.14 226.974C252.293 225.953 254.482 221.411 255.116 219.922Z"/><path fill="#381C1B" d="M141.709 237.734C139.308 234.372 130.609 219.281 133.82 215.788C134.656 215.794 136.981 217.241 138.242 217.743C140.343 218.595 142.604 218.978 144.868 218.865C150.309 218.605 155.335 215.815 159.398 215.558C165.188 215.192 168.685 217.564 175.63 215.679C180.558 214.341 181.863 211.551 185.148 210.11C186.439 210.945 186.02 214.115 185.998 215.485C185.895 222.114 184.399 227.613 181.748 233.65C179.013 239.83 176.007 243.925 169.408 246.419C157.865 250.782 148.929 247.29 141.709 237.734Z"/><path fill="#E85856" d="M148.262 231.175C159.273 222.87 168.671 224.101 179.218 231.874C180.213 232.719 180.62 232.981 181.748 233.65C179.013 239.83 176.007 243.925 169.408 246.419C157.865 250.782 148.929 247.29 141.709 237.734C141.641 237.774 147.391 231.924 148.262 231.175Z"/><path fill="#0A0406" d="M148.262 231.175L148.07 230.511C149.407 228.331 155.767 225.447 158.239 225.004C160.018 224.686 163.25 224.03 164.915 224.235C168.271 224.649 178.144 228.145 179.346 231.373L179.218 231.874C168.671 224.101 159.273 222.87 148.262 231.175Z"/><path fill="#E85856" d="M163.355 195.292C169.489 194.631 171.997 198.415 169.314 203.906C167.772 207.063 163.918 209.939 160.574 210.957C156.816 212.101 153.88 210.951 150.6 209.103C147.349 207.066 145.165 204.841 144.227 201.115C145.882 194.197 153.523 195.554 157.495 200.018C159.432 197.413 160.298 196.342 163.355 195.292Z"/><path fill="#FCAB8E" d="M233.267 183.112L233.901 182.298C235.603 182.661 236.098 184.51 237.09 185.898L237.353 185.96C244.114 187.523 257.399 187.329 262.188 192.904C264.239 195.291 261.022 198.954 261.319 199.828L261.493 199.984L262.405 200.563C255.56 206.306 254.879 211.226 255.116 219.922C254.482 221.411 252.293 225.953 251.14 226.974C250.763 225.778 253.142 223.779 253.577 221.839C251.563 220.62 236.267 222.782 232.084 219.015C226.827 214.282 229.351 210.857 226.623 205.596L226.468 205.301C219.688 200.563 207.493 204.478 199.899 201.896C197.933 201.227 192.474 197.179 190.691 195.667C190.423 193.815 189.822 194.32 190.262 192.42C193.215 191.437 196.864 188.866 199.831 187.367C205.573 184.468 212.975 181.998 219.465 183.37C222.053 183.901 224.49 185.288 227.009 185.979C230.406 186.91 232.26 186.67 233.267 183.112Z"/><path fill="#381C1B" d="M85.6215 180.574C87.7531 175.847 91.6576 172.148 96.4925 170.275C107.771 165.966 119.319 173.901 123.196 184.532C124.492 188.118 125.058 191.927 124.861 195.736C123.503 208.277 114.64 216.683 101.632 215.135C96.3113 214.523 91.4631 211.79 88.1859 207.554C87.8091 207.069 87.445 206.573 87.0939 206.069C86.2516 204.589 85.7355 203.702 85.1013 202.103C81.9417 196.95 82.9114 185.87 85.6215 180.574Z"/><defs><linearGradient id="gradient_2" gradientUnits="userSpaceOnUse" x1="83.5299" y1="190.08513" x2="85.250298" y2="190.14134"><stop offset="0" stop-color="black"/><stop offset="1" stop-color="#221010"/></linearGradient></defs><path fill="url(#gradient_2)" d="M85.6215 180.574C86.2651 181.994 85.1338 185.026 84.8232 186.663C84.1485 190.221 84.5036 194.455 85.2181 197.991C85.3708 198.746 85.8215 200.19 85.6297 200.727L84.9236 198.888L84.6647 198.789C84.4866 199.585 85.0354 201.063 85.3136 201.851L85.1013 202.103C81.9417 196.95 82.9114 185.87 85.6215 180.574Z"/><path fill="#FEF9F2" d="M107.556 177.801C110.288 177.439 112.602 177.99 113.736 180.86C114.292 182.253 114.267 183.811 113.666 185.185C112.932 186.827 112.043 187.292 110.487 187.906C107.997 188.23 105.87 187.624 104.624 185.294C103.941 184.027 103.796 182.539 104.221 181.164C104.819 179.253 105.929 178.625 107.556 177.801Z"/><path fill="#381C1B" d="M190.262 192.42C189.853 192.191 190.013 192.348 189.787 191.915C192.152 189.656 192.164 187.758 193.863 185.223C201.383 174.004 217.876 165.186 229.899 175.212C232.171 177.107 233.211 180.149 233.267 183.112C232.26 186.67 230.406 186.91 227.009 185.979C224.49 185.288 222.053 183.901 219.465 183.37C212.975 181.998 205.573 184.468 199.831 187.367C196.864 188.866 193.215 191.437 190.262 192.42Z"/><path fill="#FE9080" d="M261.493 199.984C263.197 198.746 265.161 196.604 266.995 196.403L267.45 196.782C265.745 198.012 264.063 199.272 262.405 200.563L261.493 199.984Z"/><path fill="#B32E31" d="M99.7728 143.57C102.773 143.387 105.966 143.344 108.19 145.812C108.989 146.699 109.705 148.029 109.597 149.244C109.211 149.73 108.963 149.869 108.253 149.976C103.466 150.697 99.9952 150.772 95.4333 152.849C93.3954 153.63 88.5325 157.58 87.3294 154.536C87.4781 149.11 94.9631 144.57 99.7728 143.57Z"/><path fill="#B32E31" d="M203.426 140.573C208.248 140.058 214.12 140.961 217.213 145.265C217.926 146.257 218.422 147.332 218.191 148.568C217.261 149.216 212.762 148.549 211.375 148.41C208.83 147.901 205.834 148.128 203.247 148.104C201.004 148.083 197.137 148.939 196.193 146.305C196.396 143.311 200.902 141.214 203.426 140.573Z"/><path fill="#FE766A" d="M259.842 227.019C260.358 227.962 260.9 228.89 261.467 229.803C264.258 233.09 270.096 234.453 274.258 234.749C274.645 234.776 275.033 234.779 275.42 234.759C275.832 235.314 276.831 236.689 277.352 237.047C281.7 240.04 289.094 242.868 294.33 241.794L294.479 242.061C292.964 244.892 290.002 248.576 287.899 250.995C275.538 265.217 257.949 276.773 240.973 284.801C236.727 286.808 233.321 288.84 228.769 290.218C224.707 285.486 223.953 281.508 221.179 277.648C222.52 283.464 225.349 290.102 227.12 295.952C232.376 313.308 236.099 331.217 233.849 349.439C232.843 357.589 233.533 361.455 227.394 367.543L223.73 366.289C226.334 368.723 228.77 370.652 228.778 374.508C228.784 377.458 228.714 380.717 226.461 382.919C221.666 387.606 208.898 387.528 202.647 387.697C195.895 387.879 189.628 386.463 183.517 383.951L183.147 384.2C178.915 384.147 176.295 372.728 180.667 371.523C181.157 371.236 183.366 368.014 184.124 367.365C186.028 365.734 187.815 365.125 189.454 363.173C178.634 364.791 164.438 365.756 153.646 364.017C152.301 365.387 151.324 364.256 149.508 364.35C147.971 365.77 148.413 364.387 147.71 365.452C148.751 368.372 157.712 374.151 155.003 380.176C153.967 382.48 151.127 384.464 148.627 385.121C138.645 387.743 121.262 388.652 111.56 384.608C109.302 383.667 107.726 381.438 106.58 379.587L105.804 379.647C104.587 378.188 104.811 376.518 105.12 374.811L105.026 376.236L106.086 371.754L106.471 371.659C106.814 371.092 107.426 369.473 107.708 368.772C105.648 362.399 104.304 355.816 103.701 349.146C103.356 345.481 103.098 339.863 102.539 336.423C102.493 336.998 102.414 337.558 102.339 338.129C102.155 337.815 101.842 330.678 101.5 329.649C101.289 329.013 101.664 326.343 101.797 325.551L101.937 325.554L102.22 328.285C102.329 321.458 102.336 315.318 103.039 308.521L102.088 308.081C100.854 311.289 100.064 313.768 99.3342 317.219C98.05 321.658 97.8982 331.553 95.4816 335.16C88.2445 345.962 73.6596 339.594 71.0275 328.765C68.1591 316.962 75.8127 305.166 82.5336 296.638C87.1579 290.77 99.8504 278.796 106.298 276.984C112.864 279.015 115.277 280.248 122.857 281.229C123.926 277.962 125.407 272.232 129.538 271.869C132.868 271.577 139.339 272.784 142.249 271.033C142.993 270.867 148.06 270.913 149.099 270.905C153.151 270.874 157.202 270.752 161.249 270.538C167.336 270.175 172.955 269.013 178.992 268.49L178.753 268.91C180.503 269.905 192.41 267.156 196.034 270.389C198.516 272.603 197.611 272.226 199.383 274.379C203.135 272.82 207.297 272.364 211.966 270.225C226.481 263.577 237.288 251.552 248.579 240.652C252.107 237.246 255.06 232.016 258.192 229.195L258.427 228.987C258.87 228.559 259.493 227.559 259.842 227.019Z"/><defs><linearGradient id="gradient_3" gradientUnits="userSpaceOnUse" x1="158.21245" y1="355.49567" x2="167.95088" y2="271.16449"><stop offset="0" stop-color="#FFC8AA"/><stop offset="1" stop-color="#FFEFD3"/></linearGradient></defs><path fill="url(#gradient_3)" d="M142.249 271.033C142.993 270.867 148.06 270.913 149.099 270.905C153.151 270.874 157.202 270.752 161.249 270.538C167.336 270.175 172.955 269.013 178.992 268.49L178.753 268.91C180.503 269.905 192.41 267.156 196.034 270.389C198.516 272.603 197.611 272.226 199.383 274.379C201.176 276.828 202.33 280.206 203.402 283.018C218.228 321.89 203.605 362.853 155.595 355.609C118.313 349.984 113.162 315.374 121.984 283.842C122.215 283.035 122.532 282.014 122.857 281.229C123.926 277.962 125.407 272.232 129.538 271.869C132.868 271.577 139.339 272.784 142.249 271.033Z"/><path fill="#FCAB8E" d="M142.249 271.033C142.993 270.867 148.06 270.913 149.099 270.905C153.151 270.874 157.202 270.752 161.249 270.538C167.336 270.175 172.955 269.013 178.992 268.49L178.753 268.91C180.503 269.905 192.41 267.156 196.034 270.389C198.516 272.603 197.611 272.226 199.383 274.379C188.326 275.811 177.897 279.075 166.93 280.883C155.573 282.755 144.143 282.611 132.679 282.122C129.369 281.981 125.908 281.394 122.857 281.229C123.926 277.962 125.407 272.232 129.538 271.869C132.868 271.577 139.339 272.784 142.249 271.033Z"/><path fill="#B32E31" d="M183.517 383.951L183.147 384.2C178.915 384.147 176.295 372.728 180.667 371.523C178.378 376.388 178.822 380.817 183.517 383.951Z"/><path fill="#B32E31" d="M149.508 364.35C148.529 364.003 148.083 363.792 147.172 363.329L147.258 362.856L146.713 362.918L146.778 362.798C148.433 362.764 151.886 363.629 153.646 364.017C152.301 365.387 151.324 364.256 149.508 364.35Z"/><path fill="#B32E31" d="M102.539 336.423C102.493 336.998 102.414 337.558 102.339 338.129C102.155 337.815 101.842 330.678 101.5 329.649C101.289 329.013 101.664 326.343 101.797 325.551L101.937 325.554L102.22 328.285C102.253 331 102.359 333.714 102.539 336.423Z"/><path fill="#B32E31" d="M106.58 379.587L105.804 379.647C104.587 378.188 104.811 376.518 105.12 374.811L105.026 376.236L106.086 371.754L106.471 371.659C105.782 374.894 105.501 376.361 106.58 379.587Z"/><path fill="#E85856" d="M259.842 227.019C260.358 227.962 260.9 228.89 261.467 229.803C259.986 229.645 259.801 229.663 258.427 228.987C258.87 228.559 259.493 227.559 259.842 227.019Z"/><path fill="#B32E31" d="M102.088 308.081C102.527 306.407 103.005 304.557 103.541 302.919C103.478 303.647 103.001 308.046 103.039 308.521L102.088 308.081Z"/><path fill="#FEE1C4" d="M57.1532 98.9752C49.9602 91.7815 39.8188 76.2722 35.5728 67.3625C31.6446 58.7932 26.7694 47.5552 29.7262 38.0853C31.4531 32.5547 37.9053 29.1449 43.1418 31.7934C59.2937 39.9628 69.4613 63.2231 76.4337 78.7352C80.2629 84.8627 86.8172 107.172 88.2893 114.675C85.9359 116.537 83.1552 118.537 80.5607 120.044C74.9683 117.102 60.9172 104.105 57.1532 98.9752Z"/><path fill="#FCAB8E" d="M76.4337 78.7352C80.2629 84.8627 86.8172 107.172 88.2893 114.675C85.9359 116.537 83.1552 118.537 80.5607 120.044C74.9683 117.102 60.9172 104.105 57.1532 98.9752C57.8048 98.1932 59.4267 95.7924 60.3013 94.6785C63.2863 90.812 66.5412 87.1616 70.0414 83.7545C71.3773 82.4493 76.114 79.401 76.4337 78.7352Z"/><path fill="#FE766A" d="M279.937 197.36C280.72 197.253 283.052 197.332 283.949 197.398C290.817 197.802 295.857 199.35 300.631 204.634C306.916 211.456 308.25 225.796 300.68 232.232C294.796 237.233 284.353 236.91 279.344 230.847L281.409 229.047C283.674 227.448 286.38 224.593 286.373 221.624C286.368 219.794 285.503 219.098 284.335 217.859C282.478 222.689 278.694 226.984 273.203 227.704C265.788 228.39 262.033 219.967 261.494 213.905C260.586 203.696 271.068 198.168 279.937 197.36Z"/><path fill="#FCAB8E" d="M224.493 72.2503C225.212 72.7481 227.354 76.0866 228.039 77.027C231.708 82.0637 236.173 85.9319 240.826 89.9918C236.39 99.2022 230.259 103.756 222.279 109.816L220.119 111.362C215.705 109.763 211.438 107.784 207.366 105.447C207.728 92.355 213.748 79.9162 224.493 72.2503Z"/><path fill="#FE766A" d="M246.436 35.8624C259.117 35.3846 287.26 37.3704 295.037 49.7701C300.065 57.787 292.794 73.1954 288.014 80.1362C286.83 81.8555 285.906 84.0297 283.888 85.2106C283.838 84.7181 285.725 83.2998 286.017 82.7429C287.761 79.4177 293.463 72.4 292.832 68.8713L293.463 68.2273C293.398 67.4616 287.345 58.4005 286.469 57.1572C283.582 52.7857 279.59 51.0077 275.695 47.8948C275.008 47.3456 273.491 43.066 272.255 42.4186C271.525 42.0359 270.062 42.1543 269.518 41.5062C269.772 41.0384 269.933 40.8124 270.032 40.2803C269.421 40.3652 269.353 40.5637 268.778 40.9929C267.49 40.9342 262.78 41.2345 262.045 40.6276L262.024 40.2317C262.579 40.1082 262.373 40.2524 262.752 39.9154L262.434 39.6655C261.628 39.6249 261.023 39.653 260.372 39.1408C260.201 39.0055 260.065 39.2788 259.133 39.1084C258.625 38.4941 258.734 38.8394 258.808 38.0348C259.573 37.628 259.65 37.5229 260.194 36.8416L259.986 36.5843C257.137 35.9912 250.472 36.0027 247.463 36.0709C249.179 36.1095 254.423 35.8287 254.861 37.6434L254.509 37.9434C250.985 37.6656 248.167 38.9095 244.564 39.1655C242.085 39.3418 238.441 38.38 236.003 39.5379C235.303 39.8699 235.394 38.6247 234.996 38.176C234.782 38.7027 234.778 38.7425 234.432 39.2279C232.636 37.7619 229.499 41.3041 227.348 41.2494L227.347 41.049C229.744 38.683 242.543 36.1582 246.436 35.8624Z"/><path fill="#E85856" fill-opacity="0.22352941" d="M159.133 369.939C163 370.169 169.868 370.252 173.863 369.842C172.674 378.763 171.789 383.281 181.004 387.521L180.297 387.758L180.218 388.228C180.883 388.96 193.517 391.783 195.23 391.83C200.017 391.858 204.838 391.276 209.617 391.695C210.57 391.779 214.518 392.706 214.914 392.491C217.125 391.288 228.047 389.903 229.183 388.484C229.007 387.971 229.168 388.167 228.789 387.826C231.689 386.665 232.981 385.763 235.056 383.47C235.174 384.193 235.023 383.889 235.521 384.419C236.68 383.877 237.054 382.683 237.488 381.519C240.239 385.58 234.213 385.51 236.97 390.277C238.072 389.705 245.016 388.249 245.812 388.593C246.37 390.034 244.807 388.754 246.519 390.294L247.031 390.284C247.035 389.909 247.047 389.912 246.986 389.541C247.544 389.875 247.999 389.739 248.613 389.675L248.966 390.028L248.768 390.513L248.49 390.571C248.05 390.666 247.703 390.801 247.284 390.957L247.207 391.165C247.116 391.407 247.054 391.546 246.944 391.775C246.273 391.807 246.202 391.728 245.573 391.424C244.155 391.574 243.544 392.095 242.161 392.346L242.368 392.711C241.92 392.837 241.581 392.879 241.215 393.135C242.534 393.236 243.998 393.155 245.112 393.26C243.405 393.669 240.676 394.105 238.928 394.261C226.43 395.377 213.669 397.729 201.125 397.57C195.356 397.497 189.844 397.692 184.099 397.735C171.868 397.871 159.635 397.741 147.409 397.346C140.556 397.184 133.572 397.424 126.72 397.271C124.206 397.215 121.332 396.419 118.765 396.212C117.567 396.116 114.078 396.283 113.192 396.181C110.47 395.867 97.0329 394.758 95.2476 394.055C96.8078 393.601 98.1414 394.359 99.267 393.826L99.3883 393.301C98.1497 392.814 95.3 391.641 94.0756 391.839C93.7068 392.312 93.7413 392.81 93.8379 393.381L94.2505 393.587L95.2476 394.055C92.721 394.03 83.9128 392.247 81.0822 391.662C78.1946 391.065 68.9038 388.738 67.3874 386.177C66.6986 385.014 67.2025 383.957 67.5672 382.702C73.1537 379.227 90.5211 375.73 96.6834 376.208C97.7086 376.851 97.4942 376.876 98.1232 378.114L98.6793 378.009C97.2601 388.28 108.909 389.29 116.371 390.173L115.019 390.248L114.879 390.409C116.251 390.719 119.27 391.117 120.644 391.017C119.692 392.148 117.771 390.908 116.745 391.383C119.537 393.178 132.448 391.736 136.078 391.974C137.683 392.079 138.854 393.082 140.041 392.232C141.975 391.195 144.208 390.858 146.337 390.453C148.226 390.799 150.087 390.305 151.855 389.73C152.982 389.058 153.828 389.429 154.71 389.325C160.926 388.595 163.853 383.321 164.182 377.509C164.259 376.162 165.366 376.127 165.595 375.1C164.791 374.916 164.252 375.284 163.349 375.597C162.298 376.623 162.728 378.782 162.555 380.674C161.764 382.775 160.062 386.035 157.745 386.638C157.16 386.299 157.34 386.536 157.131 385.95C163.601 381.001 162.174 376.834 159.133 369.939ZM90.6088 381.067C92.8926 380.089 94.6341 382.217 96.0178 382.133C96.8163 381.051 95.9698 379.775 96.8387 379.263C96.8247 378.6 96.8683 378.315 96.624 377.713L96.311 377.518L96.0253 377.633C93.6535 378.566 88.8404 377.094 88.1708 380.462C88.8427 380.941 89.7698 380.99 90.6088 381.067ZM227 395.17C228.359 395.112 232.032 394.703 232.753 393.558C232.066 393.178 231.708 393.214 231.011 392.752C230.738 392.772 230.432 392.768 230.185 392.856C228.743 394.001 224.675 394.083 223.547 395.099C224.345 395.592 226.003 395.291 227 395.17ZM235.688 394.303C237.17 394.168 238.506 394.241 239.574 393.231C239.282 392.439 238.296 392.467 237.671 392.81C236.538 393.055 234.655 393.366 233.759 394.058C234.265 394.446 234.986 394.346 235.688 394.303ZM177.217 392.974L177.522 393.473C177.935 393.408 177.835 393.497 178.108 393.286L178.053 392.836C177.464 392.748 177.733 392.699 177.217 392.974ZM84.1725 380.546L84.1934 381.007C85.0067 381.613 86.2449 381.351 87.2567 381.208L87.2356 380.756C86.3879 380.32 85.0801 380.346 84.1725 380.546ZM220.599 394.882C219.883 394.946 217.514 395.167 217.059 395.613C217.604 395.679 218.15 395.732 218.697 395.771C219.562 396.016 219.678 396.038 220.569 395.943L221.207 395.531L221.264 395.083C220.794 394.822 221 394.816 220.599 394.882ZM74.4308 387.795C73.4662 387.89 73.161 387.888 72.246 388.3C72.5978 388.839 72.5824 388.682 73.3925 388.925L73.2938 388.595C74.3669 388.361 74.738 388.713 75.6124 388.4C75.3975 387.802 75.5838 388.061 74.9103 387.704L74.4308 387.795ZM194.018 396.113C192.789 395.472 192.225 395.427 190.83 395.561C185.661 396.058 180.402 395.334 175.201 395.7C172.742 395.778 170.047 396.511 167.6 396.356C163.527 396.097 159.46 396.239 155.397 396.06C152.441 395.929 146.253 394.557 143.577 396.395C144.754 397.465 183.188 397.36 187.772 397.208C189.37 397.156 193.187 396.76 195.051 396.724C197.102 397.444 205.575 396.957 208.165 396.857C207.066 396.563 205.248 396.938 203.827 396.496C204.394 396.1 208.329 396.161 209.313 396.141C206.974 395.76 196.426 395.537 194.018 396.113ZM74.5407 382.413C73.7888 382.947 73.5173 383.182 72.8616 383.832L72.879 384.186C73.3574 384.133 73.6056 384.135 74.0664 383.987L74.2294 383.869C74.8691 383.414 75.0846 383.288 75.794 382.966C75.3765 382.569 75.0976 382.555 74.5407 382.413ZM83.4474 390.121L82.7365 390.183L82.8045 390.173L81.9416 390.342L82.7173 390.599C82.8858 391.01 82.9716 391.33 83.2873 391.641L84.5604 391.98L85.6152 391.703C85.7484 391.138 85.7526 391.431 85.4597 390.812C84.8493 390.386 84.1973 389.683 83.4474 390.121Z"/><defs><linearGradient id="gradient_4" gradientUnits="userSpaceOnUse" x1="169.37317" y1="395.87491" x2="169.37794" y2="396.85312"><stop offset="0" stop-color="#E15F5E" stop-opacity="0.28627452"/><stop offset="1" stop-color="#DE5E5D" stop-opacity="0.32156864"/></linearGradient></defs><path fill="url(#gradient_4)" d="M195.051 396.724C193.187 396.76 189.37 397.156 187.772 397.208C183.188 397.36 144.754 397.465 143.577 396.395C146.253 394.557 152.441 395.929 155.397 396.06C159.46 396.239 163.527 396.097 167.6 396.356C170.047 396.511 172.742 395.778 175.201 395.7C180.402 395.334 185.661 396.058 190.83 395.561C192.225 395.427 192.789 395.472 194.018 396.113C194.501 396.327 194.749 396.396 195.273 396.459L195.051 396.724Z"/><path fill="#DE4D4C" fill-opacity="0.29803923" d="M96.311 377.518L96.624 377.713C96.8683 378.315 96.8247 378.6 96.8387 379.263C95.9698 379.775 96.8163 381.051 96.0178 382.133C94.6341 382.217 92.8926 380.089 90.6088 381.067C89.7698 380.99 88.8427 380.941 88.1708 380.462C88.8404 377.094 93.6535 378.566 96.0253 377.633L96.311 377.518Z"/><path fill="#E85856" fill-opacity="0.3019608" d="M194.018 396.113C196.426 395.537 206.974 395.76 209.313 396.141C208.329 396.161 204.394 396.1 203.827 396.496C205.248 396.938 207.066 396.563 208.165 396.857C205.575 396.957 197.102 397.444 195.051 396.724L195.273 396.459C194.749 396.396 194.501 396.327 194.018 396.113Z"/><path fill="#E85856" fill-opacity="0.33725491" d="M230.185 392.856C230.432 392.768 230.738 392.772 231.011 392.752C231.708 393.214 232.066 393.178 232.753 393.558C232.032 394.703 228.359 395.112 227 395.17C226.003 395.291 224.345 395.592 223.547 395.099C224.675 394.083 228.743 394.001 230.185 392.856Z"/><path fill="#DE4D4C" fill-opacity="0.33333334" d="M237.671 392.81C238.296 392.467 239.282 392.439 239.574 393.231C238.506 394.241 237.17 394.168 235.688 394.303C234.986 394.346 234.265 394.446 233.759 394.058C234.655 393.366 236.538 393.055 237.671 392.81Z"/><path fill="#DE4D4C" fill-opacity="0.29411766" d="M83.4474 390.121C84.1973 389.683 84.8493 390.386 85.4597 390.812C85.7526 391.431 85.7484 391.138 85.6152 391.703L84.5604 391.98L83.2873 391.641C82.9716 391.33 82.8858 391.01 82.7173 390.599L81.9416 390.342L82.8045 390.173L82.7365 390.183L83.4474 390.121Z"/><path fill="#E85856" fill-opacity="0.32156864" d="M220.599 394.882C221 394.816 220.794 394.822 221.264 395.083L221.207 395.531L220.569 395.943C219.678 396.038 219.562 396.016 218.697 395.771C218.15 395.732 217.604 395.679 217.059 395.613C217.514 395.167 219.883 394.946 220.599 394.882Z"/><path fill="#DE4D4C" fill-opacity="0.29019609" d="M74.5407 382.413C75.0976 382.555 75.3765 382.569 75.794 382.966C75.0846 383.288 74.8691 383.414 74.2294 383.869L74.0664 383.987C73.6056 384.135 73.3574 384.133 72.879 384.186L72.8616 383.832C73.5173 383.182 73.7888 382.947 74.5407 382.413Z"/><path fill="#DE4D4C" fill-opacity="0.29019609" d="M74.4308 387.795L74.9103 387.704C75.5838 388.061 75.3975 387.802 75.6124 388.4C74.738 388.713 74.3669 388.361 73.2938 388.595L73.3925 388.925C72.5824 388.682 72.5978 388.839 72.246 388.3C73.161 387.888 73.4662 387.89 74.4308 387.795Z"/><path fill="#DE4D4C" fill-opacity="0.29411766" d="M84.1725 380.546C85.0801 380.346 86.3879 380.32 87.2356 380.756L87.2567 381.208C86.2449 381.351 85.0067 381.613 84.1934 381.007L84.1725 380.546Z"/><path fill="#E85856" fill-opacity="0.29803923" d="M177.217 392.974C177.733 392.699 177.464 392.748 178.053 392.836L178.108 393.286C177.835 393.497 177.935 393.408 177.522 393.473L177.217 392.974Z"/><path fill="#FEBA57" d="M317.929 106.082C318.211 106.174 318.562 106.332 318.644 106.652C319.449 109.782 320.289 112.581 321.587 115.541C324.616 122.452 329.727 125.965 336.643 128.498C325.806 131.687 322.387 136.42 319.119 146.897C318.787 147.962 318.317 149.336 317.408 149.967C314.671 145.469 314.897 140.313 309.841 135.314C308.629 134.124 307.282 133.078 305.829 132.198C304.175 131.194 299.576 129.499 299.024 128.472C299.743 126.963 307.216 124.032 309.949 121.176C315.282 115.603 314.614 111.863 317.929 106.082Z"/><path fill="#DE4D4C" fill-opacity="0.29411766" d="M237.863 376.587C241.714 375.902 255.255 379.262 259.484 380.476C261.144 380.952 263.483 382.024 265.126 382.628L266.907 385.139C266.321 385.975 265.591 387.124 264.832 387.743C265.052 387.01 265.213 386.95 265.018 386.37C263.612 386.819 260.66 387.501 259.965 388.651C260.508 389.161 260.502 388.997 261.442 389.096C258.197 390.12 254.913 391.014 251.598 391.778C249.746 392.204 246.778 392.742 245.112 393.26C243.998 393.155 242.534 393.236 241.215 393.135C241.581 392.879 241.92 392.837 242.368 392.711L242.161 392.346C243.544 392.095 244.155 391.574 245.573 391.424C246.202 391.728 246.273 391.807 246.944 391.775C247.054 391.546 247.116 391.407 247.207 391.165L247.284 390.957C247.703 390.801 248.05 390.666 248.49 390.571L248.768 390.513L248.966 390.028L248.613 389.675C247.999 389.739 247.544 389.875 246.986 389.541C247.047 389.912 247.035 389.909 247.031 390.284L246.519 390.294C244.807 388.754 246.37 390.034 245.812 388.593C245.016 388.249 238.072 389.705 236.97 390.277C234.213 385.51 240.239 385.58 237.488 381.519C237.082 379.182 237.952 378.703 237.863 376.587Z"/><path fill="#FEBA57" d="M294.158 138.306C295.089 138.664 294.93 140.019 295.12 140.998C295.541 143.07 296.294 145.061 297.35 146.893C299.588 150.797 302.49 153.287 306.797 154.456C301.089 157.14 296.762 158.272 295.343 165.094C295.154 166.005 294.836 168.176 294.399 168.83L293.853 168.916C292.67 167.143 291.644 164.013 290.55 162.06C287.788 157.124 285.775 156.304 280.851 154.748C285.401 151.565 290.051 149.621 291.827 144.448C292.385 142.826 293.35 139.985 294.012 138.607L294.158 138.306Z"/><path fill="#FEBA57" d="M318.469 154.968C319.768 155.575 321.645 163.084 323.393 164.861C325.488 166.991 327.748 168.257 329.943 170.027C329.557 170.562 326.078 171.508 324.759 172.487C320.985 175.285 320.242 178.914 319.419 183.131C317.746 182.262 317.473 178.705 316.341 176.622C313.912 172.154 311.864 171.324 307.446 169.818C312.81 167.273 315.505 164.276 317.375 158.487C317.755 157.312 317.773 155.879 318.469 154.968Z"/><path fill="#E85856" fill-opacity="0.070588239" d="M157.131 385.95C157.34 386.536 157.16 386.299 157.745 386.638C160.062 386.035 161.764 382.775 162.555 380.674C161.963 388.086 154.736 387.919 149.044 389.883C148.216 390.168 147.185 390.148 146.337 390.453C144.208 390.858 141.975 391.195 140.041 392.232C138.854 393.082 137.683 392.079 136.078 391.974C132.448 391.736 119.537 393.178 116.745 391.383C117.771 390.908 119.692 392.148 120.644 391.017C119.27 391.117 116.251 390.719 114.879 390.409L115.019 390.248L116.371 390.173C127.549 391.486 147.009 391.579 157.131 385.95Z"/><path fill="#E85856" fill-opacity="0.10980392" d="M228.789 387.826C229.168 388.167 229.007 387.971 229.183 388.484C228.047 389.903 217.125 391.288 214.914 392.491C214.518 392.706 210.57 391.779 209.617 391.695C204.838 391.276 200.017 391.858 195.23 391.83C193.517 391.783 180.883 388.96 180.218 388.228L180.297 387.758L181.004 387.521C194.14 392.388 215.404 391.897 228.789 387.826Z"/><path fill="#E85856" fill-opacity="0.18039216" d="M162.555 380.674C162.728 378.782 162.298 376.623 163.349 375.597C164.252 375.284 164.791 374.916 165.595 375.1C165.366 376.127 164.259 376.162 164.182 377.509C163.853 383.321 160.926 388.595 154.71 389.325C153.828 389.429 152.982 389.058 151.855 389.73C150.087 390.305 148.226 390.799 146.337 390.453C147.185 390.148 148.216 390.168 149.044 389.883C154.736 387.919 161.963 388.086 162.555 380.674Z"/><path fill="#E85856" fill-opacity="0.2" d="M236.837 374.562C237.132 375.149 237.121 375.631 237.161 376.28L237.505 376.686L237.863 376.587C237.952 378.703 237.082 379.182 237.488 381.519C237.054 382.683 236.68 383.877 235.521 384.419C235.023 383.889 235.174 384.193 235.056 383.47C236.964 380.016 236.862 378.442 236.837 374.562Z"/><path fill="#DE4D4C" fill-opacity="0.36862746" d="M261.442 389.096C260.502 388.997 260.508 389.161 259.965 388.651C260.66 387.501 263.612 386.819 265.018 386.37C265.213 386.95 265.052 387.01 264.832 387.743C263.813 388.157 262.455 388.758 261.442 389.096Z"/><path fill="#DE4D4C" fill-opacity="0.29803923" d="M94.2505 393.587L93.8379 393.381C93.7413 392.81 93.7068 392.312 94.0756 391.839C95.3 391.641 98.1497 392.814 99.3883 393.301C97.1344 393.481 95.584 392.198 94.3026 393.195L94.2505 393.587Z"/><path fill="#DE4D4C" fill-opacity="0.34509805" d="M94.2505 393.587L94.3026 393.195C95.584 392.198 97.1344 393.481 99.3883 393.301L99.267 393.826C98.1414 394.359 96.8078 393.601 95.2476 394.055L94.2505 393.587Z"/></svg>